<?xml version="1.0" encoding="utf-8"?>
<!-- Generator: Adobe Illustrator 16.0.0, SVG Export Plug-In . SVG Version: 6.00 Build 0)  -->
<!DOCTYPE svg PUBLIC "-//W3C//DTD SVG 1.1//EN" "http://www.w3.org/Graphics/SVG/1.1/DTD/svg11.dtd">
<svg version="1.1" id="图层_1" xmlns="http://www.w3.org/2000/svg" xmlns:xlink="http://www.w3.org/1999/xlink" x="0px" y="0px"
	 width="245.003px" height="121.005px" viewBox="0 0 245.003 121.005" enable-background="new 0 0 245.003 121.005"
	 xml:space="preserve">
<g>
	<g>
		<line fill="none" stroke="#535353" stroke-width="2" stroke-miterlimit="10" x1="111.514" y1="53.992" x2="112.865" y2="53.342"/>
		
			<line fill="none" stroke="#535353" stroke-width="2" stroke-miterlimit="10" stroke-dasharray="2.9603,2.9603" x1="115.534" y1="52.06" x2="167.568" y2="27.07"/>
		<line fill="none" stroke="#535353" stroke-width="2" stroke-miterlimit="10" x1="168.903" y1="26.429" x2="170.256" y2="25.779"/>
		<g>
			<path fill="#535353" d="M174.063,23.951c-1.473,1.525-3.151,3.727-3.952,5.591l-0.355-3.522l-2.527-2.479
				C169.185,24.08,171.953,24.146,174.063,23.951z"/>
		</g>
	</g>
</g>
<g>
	<path fill="#EDC6DE" d="M215.598,38.099c0,3.43-2.78,6.211-6.209,6.211h-29.182c-3.429,0-6.209-2.781-6.209-6.211V8.918
		c0-3.429,2.78-6.209,6.209-6.209h29.182c3.429,0,6.209,2.78,6.209,6.209V38.099z"/>
	<path fill="none" stroke="#7B2879" stroke-miterlimit="10" stroke-dasharray="2.9939,2.9939" d="M215.598,38.099
		c0,3.43-2.78,6.211-6.209,6.211h-29.182c-3.429,0-6.209-2.781-6.209-6.211V8.918c0-3.429,2.78-6.209,6.209-6.209h29.182
		c3.429,0,6.209,2.78,6.209,6.209V38.099z"/>
</g>
<g>
	<rect x="151.987" y="19.822" fill="none" width="85.621" height="27.449"/>
	<path fill="#942F8C" d="M187.863,21.2c0.135,0.051,0.232,0.14,0.295,0.269c0.061,0.129,0.068,0.261,0.021,0.396l-1.85,5.26v0.005
		c-0.006,0.021-0.016,0.043-0.027,0.065c-0.006,0.007-0.008,0.011-0.008,0.014c-0.012,0.021-0.025,0.039-0.04,0.057
		c0.006-0.008,0.003-0.004-0.009,0.014c-0.012,0.015-0.025,0.029-0.039,0.044c-0.01,0.009-0.012,0.012-0.01,0.009
		c-0.018,0.015-0.035,0.029-0.053,0.044c0.004-0.003-0.001,0-0.013,0.009c-0.018,0.012-0.035,0.021-0.053,0.031
		c-0.009,0.003-0.012,0.004-0.009,0.004c-0.021,0.009-0.039,0.017-0.057,0.021c-0.012,0.007-0.014,0.008-0.005,0.005
		c-0.018,0.006-0.038,0.011-0.062,0.013c-0.023,0.007-0.031,0.008-0.021,0.005c-0.029,0.006-0.058,0.009-0.084,0.009
		s-0.055-0.003-0.084-0.009c0.01,0.003,0.002,0.002-0.021-0.005c-0.023-0.002-0.043-0.007-0.057-0.013
		c0.006,0.003,0.002,0.002-0.01-0.005c-0.018-0.005-0.035-0.013-0.053-0.021l-0.013-0.004c-0.018-0.01-0.035-0.02-0.053-0.031
		c0-0.003-0.001-0.004-0.005-0.004l-0.004-0.005c-0.021-0.015-0.038-0.029-0.053-0.044c0,0.003-0.004,0-0.014-0.009
		c-0.014-0.015-0.027-0.03-0.039-0.048l-0.009-0.01c-0.012-0.018-0.023-0.036-0.035-0.057c-0.003-0.006-0.006-0.01-0.009-0.014
		c-0.012-0.022-0.021-0.045-0.031-0.065v-0.005l-1.357-3.867l-1.357,3.867v0.005c-0.01,0.021-0.02,0.043-0.031,0.065
		c-0.003,0.007-0.006,0.011-0.009,0.014c-0.012,0.021-0.023,0.039-0.035,0.057c0.006-0.008,0.003-0.004-0.009,0.014
		c-0.015,0.015-0.029,0.029-0.044,0.044c-0.009,0.009-0.012,0.012-0.009,0.009c-0.015,0.015-0.032,0.029-0.053,0.044
		c0.006-0.003,0.002,0-0.014,0.009c-0.018,0.012-0.035,0.021-0.053,0.031c-0.008,0.003-0.012,0.004-0.008,0.004
		c-0.021,0.009-0.039,0.017-0.053,0.021c-0.016,0.007-0.018,0.008-0.01,0.005c-0.018,0.006-0.037,0.011-0.061,0.013
		c-0.021,0.007-0.028,0.008-0.022,0.005c-0.026,0.006-0.053,0.009-0.079,0.009c-0.029,0-0.057-0.003-0.084-0.009
		c0.01,0.003,0.002,0.002-0.021-0.005c-0.023-0.002-0.044-0.007-0.062-0.013c0.009,0.003,0.007,0.002-0.005-0.005
		c-0.018-0.005-0.036-0.013-0.057-0.021c0.003,0,0-0.001-0.009-0.004c-0.018-0.01-0.035-0.02-0.053-0.031
		c-0.003-0.003-0.006-0.004-0.009-0.004c0-0.003-0.002-0.005-0.004-0.005c-0.018-0.015-0.035-0.029-0.053-0.044
		c0.002,0.003,0,0-0.01-0.009c-0.014-0.015-0.029-0.03-0.043-0.048l-0.005-0.01c-0.015-0.018-0.028-0.036-0.04-0.057
		c-0.002-0.006-0.006-0.01-0.008-0.014c-0.012-0.022-0.021-0.045-0.027-0.065l-0.004-0.005l-1.846-5.26
		c-0.047-0.135-0.039-0.267,0.021-0.396c0.063-0.129,0.16-0.218,0.295-0.269c0.135-0.046,0.267-0.039,0.396,0.022
		c0.129,0.064,0.218,0.164,0.269,0.299l1.357,3.867l1.357-3.867v-0.005c0.004-0.005,0.006-0.014,0.01-0.025
		c0.008-0.018,0.012-0.025,0.008-0.022c0.004,0,0.008-0.006,0.014-0.018c0.023-0.047,0.053-0.088,0.088-0.123
		c0.038-0.038,0.082-0.07,0.132-0.097c0.012-0.006,0.017-0.009,0.013-0.009l0.022-0.009c0.015-0.006,0.023-0.009,0.026-0.009
		c-0.003,0-0.002-0.001,0.004-0.005c-0.002,0.004,0.004,0.002,0.018-0.004c0.012-0.003,0.021-0.006,0.027-0.009
		c0.006,0,0.014-0.001,0.025-0.005c0.01-0.002,0.017-0.004,0.022-0.004s0.017-0.001,0.03-0.004c0.01,0,0.017,0,0.022,0h0.048
		c0.01,0,0.02,0.001,0.031,0.004h0.021c0.006,0,0.017,0.002,0.031,0.004l0.018,0.005c0.009,0.003,0.021,0.006,0.035,0.009
		c0,0.003,0.002,0.004,0.004,0.004c0.004,0,0.006,0,0.01,0v0.005h0.004c0.006,0.003,0.015,0.008,0.026,0.013l0.022,0.005
		l0.018,0.013c0.047,0.024,0.089,0.055,0.127,0.093c0.035,0.035,0.064,0.075,0.088,0.118l0.009,0.022l0.009,0.018
		c0.006,0.015,0.01,0.025,0.014,0.03v0.005l1.357,3.867l1.357-3.867c0.047-0.135,0.135-0.234,0.264-0.299
		c0.129-0.062,0.193-0.093,0.193-0.093S187.726,21.154,187.863,21.2z"/>
	<path fill="#942F8C" d="M192.877,26.431c0.145,0,0.266,0.051,0.365,0.153c0.103,0.103,0.154,0.226,0.154,0.369
		s-0.052,0.266-0.154,0.364c-0.1,0.104-0.221,0.154-0.365,0.154h-3.182c-0.143,0-0.265-0.051-0.364-0.154
		c-0.103-0.099-0.153-0.221-0.153-0.364v-5.269c0-0.146,0.051-0.27,0.153-0.369c0.1-0.103,0.222-0.154,0.364-0.154h0.005
		l3.177,0.009c0.145,0,0.268,0.052,0.369,0.153c0.1,0.104,0.15,0.227,0.15,0.369c0,0.145-0.052,0.266-0.154,0.365
		c-0.1,0.103-0.221,0.154-0.365,0.154h-0.004l-2.654-0.01v1.596h1.916c0.144,0,0.267,0.05,0.369,0.149
		c0.103,0.103,0.154,0.226,0.154,0.369s-0.052,0.267-0.154,0.369c-0.103,0.1-0.226,0.149-0.369,0.149h-1.916v1.596H192.877z"/>
	<path fill="#942F8C" d="M194.895,27.472c-0.144,0-0.266-0.051-0.365-0.154c-0.102-0.099-0.153-0.221-0.153-0.364v-5.251
		c0-0.141,0.05-0.263,0.149-0.365c0.103-0.1,0.225-0.15,0.365-0.154l1.846-0.008c0.551,0,1.016,0.176,1.396,0.527
		c0.379,0.352,0.567,0.781,0.567,1.291c0,0.492-0.181,0.919-0.54,1.279c0.434,0.357,0.65,0.811,0.65,1.357
		c0,0.508-0.193,0.941-0.58,1.301c-0.385,0.361-0.848,0.541-1.389,0.541H194.895z M195.413,23.815h1.327
		c0.249,0,0.466-0.08,0.65-0.242c0.182-0.163,0.272-0.356,0.272-0.58c0-0.219-0.089-0.404-0.269-0.553
		c-0.178-0.152-0.396-0.229-0.654-0.229l-1.327,0.008V23.815z M195.413,26.435h1.429c0.258,0,0.477-0.079,0.658-0.237
		c0.182-0.155,0.273-0.344,0.273-0.567c0-0.216-0.09-0.399-0.269-0.549c-0.179-0.152-0.397-0.229-0.655-0.229
		c-0.014,0-0.027,0-0.039,0c-0.023,0-0.047,0-0.07,0h-1.327V26.435z"/>
	<path fill="#942F8C" d="M202.994,23.794c0.143,0,0.265,0.051,0.364,0.153c0.103,0.1,0.153,0.222,0.153,0.364
		c0,0.145-0.051,0.266-0.153,0.365c-0.1,0.103-0.222,0.154-0.364,0.154h-2.202c-0.144,0-0.265-0.052-0.364-0.154
		c-0.104-0.1-0.154-0.221-0.154-0.365c0-0.143,0.051-0.265,0.154-0.364c0.1-0.103,0.221-0.153,0.364-0.153H202.994z"/>
	<path fill="#942F8C" d="M206.545,22.69c-0.135,0.047-0.268,0.041-0.396-0.018c-0.129-0.062-0.218-0.159-0.268-0.295
		c-0.047-0.134-0.041-0.266,0.018-0.395c0.062-0.129,0.16-0.219,0.295-0.269l1.354-0.492c0.17-0.059,0.328-0.036,0.475,0.065
		c0.146,0.104,0.219,0.244,0.219,0.422v5.243c0,0.144-0.049,0.266-0.148,0.364c-0.104,0.104-0.227,0.154-0.369,0.154
		c-0.145,0-0.266-0.051-0.365-0.154c-0.103-0.099-0.154-0.221-0.154-0.364v-4.505L206.545,22.69z"/>
</g>
<g>
	<rect x="51.754" y="56.255" fill="none" width="85.622" height="27.449"/>
	<path fill="#942F8C" d="M92.067,57.753c0.16,0,0.296,0.057,0.41,0.171c0.111,0.114,0.166,0.251,0.166,0.41
		s-0.057,0.295-0.171,0.405c-0.111,0.114-0.246,0.171-0.405,0.171h-0.005l-2.949-0.01v1.773h2.129c0.16,0,0.296,0.055,0.41,0.166
		c0.114,0.113,0.171,0.25,0.171,0.41c0,0.158-0.057,0.295-0.171,0.41c-0.114,0.109-0.25,0.166-0.41,0.166h-2.129v2.354
		c0,0.158-0.057,0.295-0.171,0.404c-0.114,0.115-0.25,0.172-0.41,0.172s-0.294-0.057-0.405-0.172
		c-0.114-0.109-0.171-0.246-0.171-0.404v-5.855c0-0.163,0.057-0.3,0.171-0.41c0.111-0.114,0.246-0.171,0.405-0.171h0.005
		L92.067,57.753z"/>
	<path fill="#942F8C" d="M94.182,64.755c-0.16,0-0.294-0.057-0.405-0.172c-0.114-0.109-0.171-0.246-0.171-0.404v-5.826
		c0-0.159,0.057-0.295,0.171-0.405c0.111-0.114,0.246-0.171,0.405-0.171s0.294,0.057,0.405,0.171
		c0.114,0.11,0.171,0.246,0.171,0.405v5.826c0,0.158-0.057,0.295-0.171,0.404C94.476,64.699,94.341,64.755,94.182,64.755z"/>
	<path fill="#942F8C" d="M98.884,57.738c0.605,0,1.122,0.2,1.548,0.601c0.43,0.4,0.645,0.882,0.645,1.446
		c0,0.553-0.207,1.027-0.62,1.426c-0.41,0.393-0.908,0.6-1.494,0.619h-0.005h-0.005h-0.01c-0.036,0.004-0.055,0.006-0.059,0.006
		l-0.029-0.006h-1.431v2.35c0,0.158-0.055,0.295-0.166,0.404c-0.114,0.115-0.25,0.172-0.41,0.172s-0.294-0.057-0.405-0.172
		c-0.114-0.109-0.171-0.246-0.171-0.404v-5.865c0-0.159,0.057-0.295,0.171-0.405c0.111-0.114,0.246-0.171,0.405-0.171H98.884z
		 M98.918,60.677c0.277-0.006,0.513-0.096,0.708-0.268c0.195-0.176,0.293-0.385,0.293-0.625c0-0.244-0.101-0.455-0.303-0.63
		c-0.202-0.176-0.446-0.264-0.732-0.264h-1.46v1.787H98.918z"/>
</g>
<circle fill="none" stroke="#7B2879" stroke-width="2" stroke-miterlimit="10" cx="94.199" cy="59.888" r="17.32"/>
<path fill="#A84F9E" stroke="#7B2879" stroke-miterlimit="10" d="M215.598,111.833c0,3.43-2.78,6.211-6.209,6.211h-29.182
	c-3.429,0-6.209-2.781-6.209-6.211V82.653c0-3.429,2.78-6.209,6.209-6.209h29.182c3.429,0,6.209,2.78,6.209,6.209V111.833z"/>
<g>
	<rect x="151.987" y="93.556" fill="none" width="85.621" height="27.449"/>
	<path fill="#FFFFFF" d="M187.863,94.935c0.135,0.051,0.232,0.139,0.295,0.268c0.061,0.129,0.068,0.262,0.021,0.396l-1.85,5.26
		v0.004c-0.006,0.021-0.016,0.043-0.027,0.066c-0.006,0.006-0.008,0.01-0.008,0.014c-0.012,0.02-0.025,0.039-0.04,0.057
		c0.006-0.008,0.003-0.004-0.009,0.014c-0.012,0.014-0.025,0.029-0.039,0.043c-0.01,0.01-0.012,0.012-0.01,0.01
		c-0.018,0.014-0.035,0.029-0.053,0.043c0.004-0.002-0.001,0-0.013,0.01c-0.018,0.012-0.035,0.021-0.053,0.031
		c-0.009,0.002-0.012,0.004-0.009,0.004c-0.021,0.008-0.039,0.016-0.057,0.021c-0.012,0.006-0.014,0.008-0.005,0.004
		c-0.018,0.006-0.038,0.012-0.062,0.014c-0.023,0.006-0.031,0.008-0.021,0.004c-0.029,0.006-0.058,0.01-0.084,0.01
		s-0.055-0.004-0.084-0.01c0.01,0.004,0.002,0.002-0.021-0.004c-0.023-0.002-0.043-0.008-0.057-0.014
		c0.006,0.004,0.002,0.002-0.01-0.004c-0.018-0.006-0.035-0.014-0.053-0.021l-0.013-0.004c-0.018-0.01-0.035-0.02-0.053-0.031
		c0-0.004-0.001-0.004-0.005-0.004l-0.004-0.006c-0.021-0.014-0.038-0.029-0.053-0.043c0,0.002-0.004,0-0.014-0.01
		c-0.014-0.014-0.027-0.029-0.039-0.047l-0.009-0.01c-0.012-0.018-0.023-0.037-0.035-0.057c-0.003-0.006-0.006-0.01-0.009-0.014
		c-0.012-0.023-0.021-0.045-0.031-0.066v-0.004l-1.357-3.867l-1.357,3.867v0.004c-0.01,0.021-0.02,0.043-0.031,0.066
		c-0.003,0.006-0.006,0.01-0.009,0.014c-0.012,0.02-0.023,0.039-0.035,0.057c0.006-0.008,0.003-0.004-0.009,0.014
		c-0.015,0.014-0.029,0.029-0.044,0.043c-0.009,0.01-0.012,0.012-0.009,0.01c-0.015,0.014-0.032,0.029-0.053,0.043
		c0.006-0.002,0.002,0-0.014,0.01c-0.018,0.012-0.035,0.021-0.053,0.031c-0.008,0.002-0.012,0.004-0.008,0.004
		c-0.021,0.008-0.039,0.016-0.053,0.021c-0.016,0.006-0.018,0.008-0.01,0.004c-0.018,0.006-0.037,0.012-0.061,0.014
		c-0.021,0.006-0.028,0.008-0.022,0.004c-0.026,0.006-0.053,0.01-0.079,0.01c-0.029,0-0.057-0.004-0.084-0.01
		c0.01,0.004,0.002,0.002-0.021-0.004c-0.023-0.002-0.044-0.008-0.062-0.014c0.009,0.004,0.007,0.002-0.005-0.004
		c-0.018-0.006-0.036-0.014-0.057-0.021c0.003,0,0-0.002-0.009-0.004c-0.018-0.01-0.035-0.02-0.053-0.031
		c-0.003-0.004-0.006-0.004-0.009-0.004c0-0.004-0.002-0.006-0.004-0.006c-0.018-0.014-0.035-0.029-0.053-0.043
		c0.002,0.002,0,0-0.01-0.01c-0.014-0.014-0.029-0.029-0.043-0.047l-0.005-0.01c-0.015-0.018-0.028-0.037-0.04-0.057
		c-0.002-0.006-0.006-0.01-0.008-0.014c-0.012-0.023-0.021-0.045-0.027-0.066l-0.004-0.004l-1.846-5.26
		c-0.047-0.135-0.039-0.268,0.021-0.396c0.063-0.129,0.16-0.217,0.295-0.268c0.135-0.047,0.267-0.039,0.396,0.021
		c0.129,0.064,0.218,0.164,0.269,0.299l1.357,3.867l1.357-3.867v-0.004c0.004-0.006,0.006-0.014,0.01-0.025
		c0.008-0.018,0.012-0.025,0.008-0.023c0.004,0,0.008-0.006,0.014-0.018c0.023-0.047,0.053-0.088,0.088-0.123
		c0.038-0.037,0.082-0.07,0.132-0.096c0.012-0.006,0.017-0.01,0.013-0.01l0.022-0.008c0.015-0.006,0.023-0.01,0.026-0.01
		c-0.003,0-0.002,0,0.004-0.004c-0.002,0.004,0.004,0.002,0.018-0.004c0.012-0.004,0.021-0.006,0.027-0.01
		c0.006,0,0.014,0,0.025-0.004c0.01-0.002,0.017-0.004,0.022-0.004s0.017-0.002,0.03-0.004c0.01,0,0.017,0,0.022,0h0.048
		c0.01,0,0.02,0,0.031,0.004h0.021c0.006,0,0.017,0.002,0.031,0.004l0.018,0.004c0.009,0.004,0.021,0.006,0.035,0.01
		c0,0.002,0.002,0.004,0.004,0.004c0.004,0,0.006,0,0.01,0v0.004h0.004c0.006,0.004,0.015,0.008,0.026,0.014l0.022,0.004
		l0.018,0.014c0.047,0.023,0.089,0.055,0.127,0.092c0.035,0.035,0.064,0.076,0.088,0.119l0.009,0.021l0.009,0.018
		c0.006,0.016,0.01,0.025,0.014,0.031v0.004l1.357,3.867l1.357-3.867c0.047-0.135,0.135-0.234,0.264-0.299
		c0.129-0.061,0.193-0.092,0.193-0.092S187.726,94.888,187.863,94.935z"/>
	<path fill="#FFFFFF" d="M192.877,100.166c0.145,0,0.266,0.051,0.365,0.152c0.103,0.104,0.154,0.227,0.154,0.369
		c0,0.145-0.052,0.266-0.154,0.365c-0.1,0.104-0.221,0.154-0.365,0.154h-3.182c-0.143,0-0.265-0.051-0.364-0.154
		c-0.103-0.1-0.153-0.221-0.153-0.365v-5.268c0-0.146,0.051-0.27,0.153-0.369c0.1-0.104,0.222-0.154,0.364-0.154h0.005l3.177,0.008
		c0.145,0,0.268,0.053,0.369,0.154c0.1,0.104,0.15,0.227,0.15,0.369c0,0.145-0.052,0.266-0.154,0.365
		c-0.1,0.102-0.221,0.154-0.365,0.154h-0.004l-2.654-0.01v1.596h1.916c0.144,0,0.267,0.049,0.369,0.148
		c0.103,0.104,0.154,0.227,0.154,0.369c0,0.145-0.052,0.268-0.154,0.369c-0.103,0.1-0.226,0.15-0.369,0.15h-1.916v1.596H192.877z"/>
	<path fill="#FFFFFF" d="M194.895,101.207c-0.144,0-0.266-0.051-0.365-0.154c-0.102-0.1-0.153-0.221-0.153-0.365v-5.25
		c0-0.141,0.05-0.264,0.149-0.365c0.103-0.1,0.225-0.15,0.365-0.154l1.846-0.008c0.551,0,1.016,0.176,1.396,0.527
		c0.379,0.352,0.567,0.781,0.567,1.291c0,0.492-0.181,0.918-0.54,1.279c0.434,0.357,0.65,0.811,0.65,1.357
		c0,0.508-0.193,0.941-0.58,1.301c-0.385,0.361-0.848,0.541-1.389,0.541H194.895z M195.413,97.55h1.327
		c0.249,0,0.466-0.08,0.65-0.242c0.182-0.164,0.272-0.357,0.272-0.58c0-0.219-0.089-0.404-0.269-0.553
		c-0.178-0.152-0.396-0.229-0.654-0.229l-1.327,0.008V97.55z M195.413,100.169h1.429c0.258,0,0.477-0.08,0.658-0.238
		c0.182-0.154,0.273-0.344,0.273-0.566c0-0.217-0.09-0.4-0.269-0.549c-0.179-0.152-0.397-0.229-0.655-0.229
		c-0.014,0-0.027,0-0.039,0c-0.023,0-0.047,0-0.07,0h-1.327V100.169z"/>
	<path fill="#FFFFFF" d="M202.994,97.529c0.143,0,0.265,0.051,0.364,0.152c0.103,0.1,0.153,0.223,0.153,0.365
		c0,0.145-0.051,0.266-0.153,0.365c-0.1,0.102-0.222,0.154-0.364,0.154h-2.202c-0.144,0-0.265-0.053-0.364-0.154
		c-0.104-0.1-0.154-0.221-0.154-0.365c0-0.143,0.051-0.266,0.154-0.365c0.1-0.102,0.221-0.152,0.364-0.152H202.994z"/>
	<path fill="#FFFFFF" d="M209.34,100.687c0,0.145-0.052,0.266-0.154,0.365c-0.1,0.104-0.221,0.154-0.365,0.154h-2.649
		c-0.208,0-0.36-0.092-0.457-0.277c-0.097-0.184-0.087-0.363,0.03-0.535l2.343-3.406c0.035-0.088,0.053-0.18,0.053-0.277
		c0-0.213-0.076-0.396-0.229-0.549c-0.152-0.15-0.335-0.225-0.55-0.225c-0.211,0-0.393,0.074-0.545,0.225
		c-0.152,0.152-0.229,0.336-0.229,0.549c0,0.018,0.002,0.035,0.005,0.053c0.009,0.145-0.035,0.268-0.132,0.373
		c-0.094,0.109-0.213,0.168-0.355,0.176c-0.145,0.01-0.269-0.033-0.374-0.127c-0.108-0.094-0.167-0.213-0.176-0.355
		c-0.003-0.041-0.005-0.08-0.005-0.119c0-0.5,0.178-0.928,0.532-1.283c0.354-0.354,0.78-0.531,1.278-0.531
		c0.502,0,0.93,0.178,1.283,0.531c0.355,0.355,0.532,0.783,0.532,1.283c0,0.258-0.053,0.504-0.158,0.738
		c-0.012,0.029-0.026,0.057-0.044,0.084l-1.814,2.637h1.66c0.145,0,0.266,0.049,0.365,0.148
		C209.288,100.421,209.34,100.544,209.34,100.687z"/>
</g>
<g>
	<g>
		<line fill="none" stroke="#535353" stroke-width="2" stroke-miterlimit="10" x1="111.514" y1="68.683" x2="112.865" y2="69.333"/>
		
			<line fill="none" stroke="#535353" stroke-width="2" stroke-miterlimit="10" stroke-dasharray="2.9602,2.9602" x1="115.534" y1="70.615" x2="167.569" y2="95.605"/>
		<line fill="none" stroke="#535353" stroke-width="2" stroke-miterlimit="10" x1="168.903" y1="96.246" x2="170.255" y2="96.896"/>
		<g>
			<path fill="#535353" d="M174.063,98.724c-2.111-0.195-4.88-0.129-6.835,0.41l2.527-2.479l0.355-3.521
				C170.912,94.998,172.591,97.199,174.063,98.724z"/>
		</g>
	</g>
</g>
<g>
	<g>
		<path fill="#AB4E9E" d="M16.788,63.056c-1.393,0.791-3.003,1.244-4.719,1.244s-3.327-0.452-4.719-1.243
			c-3.694,1.128-6.516,3.632-7.349,6.9h24.137C23.304,66.689,20.482,64.183,16.788,63.056z"/>
		<g>
			<path fill="#AB4E9E" d="M12.068,45.821c-4.581,0-8.294,3.716-8.294,8.298s3.713,8.295,8.294,8.295
				c4.58,0,8.293-3.713,8.293-8.295S16.648,45.821,12.068,45.821z M12.068,60.339c-2.638,0-4.891-1.633-5.796-3.959h11.592
				C16.959,58.707,14.706,60.339,12.068,60.339z"/>
		</g>
	</g>
</g>
<g>
	<g>
		<line fill="none" stroke="#535353" stroke-width="2" stroke-miterlimit="10" x1="16.028" y1="59.888" x2="17.528" y2="59.888"/>
		
			<line fill="none" stroke="#535353" stroke-width="2" stroke-miterlimit="10" stroke-dasharray="3.1545,3.1545" x1="20.682" y1="59.888" x2="69.577" y2="59.888"/>
		<line fill="none" stroke="#535353" stroke-width="2" stroke-miterlimit="10" x1="71.154" y1="59.888" x2="72.654" y2="59.888"/>
		<g>
			<path fill="#535353" d="M76.879,59.888c-1.988,0.737-4.454,1.996-5.983,3.329l1.205-3.329l-1.205-3.328
				C72.425,57.893,74.891,59.151,76.879,59.888z"/>
		</g>
	</g>
</g>
<g>
	<rect x="218.566" y="0" fill="none" width="26.437" height="49.02"/>
	<path fill="#BE1E2D" d="M230.449,26.32l-5.789,5.789l-2.32-2.32L228.129,24l-5.789-5.813l2.32-2.297l5.789,5.789l5.813-5.789
		l2.297,2.32L232.77,24l5.789,5.789l-2.32,2.32L230.449,26.32z"/>
</g>
<g>
</g>
<g>
</g>
<g>
</g>
<g>
</g>
<g>
</g>
<g>
</g>
<g>
</g>
</svg>
