<?xml version="1.0" encoding="utf-8"?>
<!-- Generator: Adobe Illustrator 16.0.0, SVG Export Plug-In . SVG Version: 6.00 Build 0)  -->
<!DOCTYPE svg PUBLIC "-//W3C//DTD SVG 1.1//EN" "http://www.w3.org/Graphics/SVG/1.1/DTD/svg11.dtd">
<svg version="1.1" id="图层_1" xmlns="http://www.w3.org/2000/svg" xmlns:xlink="http://www.w3.org/1999/xlink" x="0px" y="0px"
	 width="291.689px" height="49.443px" viewBox="0 0 291.689 49.443" enable-background="new 0 0 291.689 49.443"
	 xml:space="preserve">
<g>
	<g>
		<line fill="none" stroke="#535353" stroke-width="2" stroke-miterlimit="10" x1="61.744" y1="24.721" x2="63.244" y2="24.721"/>
		
			<line fill="none" stroke="#535353" stroke-width="2" stroke-miterlimit="10" stroke-dasharray="3.1295,3.1295" x1="66.374" y1="24.721" x2="108.621" y2="24.721"/>
		<line fill="none" stroke="#535353" stroke-width="2" stroke-miterlimit="10" x1="110.186" y1="24.721" x2="111.686" y2="24.721"/>
		<g>
			<path fill="#535353" d="M115.911,24.721c-1.988,0.738-4.454,1.996-5.983,3.329l1.205-3.329l-1.205-3.329
				C111.457,22.725,113.923,23.984,115.911,24.721z"/>
		</g>
	</g>
</g>
<g>
	<g>
		<line fill="none" stroke="#535353" stroke-width="2" stroke-miterlimit="10" x1="164.355" y1="24.721" x2="165.855" y2="24.721"/>
		
			<line fill="none" stroke="#535353" stroke-width="2" stroke-miterlimit="10" stroke-dasharray="3.1454,3.1454" x1="169" y1="24.721" x2="217.753" y2="24.721"/>
		<line fill="none" stroke="#535353" stroke-width="2" stroke-miterlimit="10" x1="219.326" y1="24.721" x2="220.826" y2="24.721"/>
		<g>
			<path fill="#535353" d="M225.05,24.721c-1.988,0.738-4.454,1.996-5.983,3.329l1.204-3.329l-1.204-3.329
				C220.596,22.725,223.062,23.984,225.05,24.721z"/>
		</g>
	</g>
</g>
<path fill="#A8509E" stroke="#7C287A" stroke-miterlimit="10" d="M164.355,41.711c0,3.994-3.238,7.232-7.231,7.232h-33.982
	c-3.993,0-7.231-3.238-7.231-7.232V7.73c0-3.993,3.238-7.23,7.231-7.23h33.982c3.993,0,7.231,3.237,7.231,7.23V41.711z"/>
<g>
	<rect x="97.322" y="19.4" fill="none" width="85.622" height="27.449"/>
	<path fill="#FFFFFF" d="M137.258,21.239c0.18,0.066,0.311,0.186,0.393,0.357s0.092,0.348,0.029,0.527l-2.467,7.014v0.006
		c-0.008,0.027-0.02,0.057-0.035,0.088c-0.008,0.008-0.012,0.014-0.012,0.018c-0.016,0.027-0.033,0.053-0.053,0.076
		c0.008-0.012,0.004-0.006-0.012,0.018c-0.016,0.02-0.033,0.039-0.053,0.059c-0.012,0.012-0.016,0.016-0.012,0.012
		c-0.023,0.02-0.047,0.039-0.07,0.059c0.004-0.004-0.002,0-0.018,0.012c-0.023,0.016-0.047,0.029-0.07,0.041
		c-0.012,0.004-0.016,0.006-0.012,0.006c-0.027,0.012-0.053,0.021-0.076,0.029c-0.016,0.008-0.018,0.01-0.006,0.006
		c-0.023,0.008-0.051,0.014-0.082,0.018c-0.031,0.008-0.041,0.01-0.029,0.006c-0.039,0.008-0.076,0.012-0.111,0.012
		s-0.072-0.004-0.111-0.012c0.012,0.004,0.002,0.002-0.029-0.006c-0.031-0.004-0.057-0.01-0.076-0.018
		c0.008,0.004,0.004,0.002-0.012-0.006c-0.023-0.008-0.047-0.018-0.07-0.029l-0.018-0.006c-0.023-0.012-0.047-0.025-0.07-0.041
		c0-0.004-0.002-0.006-0.006-0.006l-0.006-0.006c-0.027-0.02-0.051-0.039-0.07-0.059c0,0.004-0.006,0-0.018-0.012
		c-0.02-0.02-0.037-0.041-0.053-0.064l-0.012-0.012c-0.016-0.023-0.031-0.049-0.047-0.076c-0.004-0.008-0.008-0.014-0.012-0.018
		c-0.016-0.031-0.029-0.061-0.041-0.088v-0.006l-1.811-5.156l-1.811,5.156v0.006c-0.012,0.027-0.025,0.057-0.041,0.088
		c-0.004,0.008-0.008,0.014-0.012,0.018c-0.016,0.027-0.031,0.053-0.047,0.076c0.008-0.012,0.004-0.006-0.012,0.018
		c-0.02,0.02-0.039,0.039-0.059,0.059c-0.012,0.012-0.016,0.016-0.012,0.012c-0.02,0.02-0.043,0.039-0.07,0.059
		c0.008-0.004,0.002,0-0.018,0.012c-0.023,0.016-0.047,0.029-0.07,0.041c-0.012,0.004-0.016,0.006-0.012,0.006
		c-0.027,0.012-0.051,0.021-0.07,0.029s-0.023,0.01-0.012,0.006c-0.023,0.008-0.051,0.014-0.082,0.018
		c-0.027,0.008-0.037,0.01-0.029,0.006c-0.035,0.008-0.07,0.012-0.105,0.012c-0.039,0-0.076-0.004-0.111-0.012
		c0.012,0.004,0.002,0.002-0.029-0.006c-0.031-0.004-0.059-0.01-0.082-0.018c0.012,0.004,0.01,0.002-0.006-0.006
		c-0.023-0.008-0.049-0.018-0.076-0.029c0.004,0,0-0.002-0.012-0.006c-0.023-0.012-0.047-0.025-0.07-0.041
		c-0.004-0.004-0.008-0.006-0.012-0.006c0-0.004-0.002-0.006-0.006-0.006c-0.023-0.02-0.047-0.039-0.07-0.059
		c0.004,0.004,0,0-0.012-0.012c-0.02-0.02-0.039-0.041-0.059-0.064l-0.006-0.012c-0.02-0.023-0.037-0.049-0.053-0.076
		c-0.004-0.008-0.008-0.014-0.012-0.018c-0.016-0.031-0.027-0.061-0.035-0.088l-0.006-0.006l-2.461-7.014
		c-0.063-0.18-0.053-0.355,0.029-0.527s0.213-0.291,0.393-0.357c0.18-0.063,0.355-0.053,0.527,0.029
		c0.172,0.086,0.291,0.219,0.357,0.398l1.811,5.156l1.811-5.156v-0.006c0.004-0.008,0.008-0.02,0.012-0.035
		c0.012-0.023,0.016-0.033,0.012-0.029c0.004,0,0.01-0.008,0.018-0.023c0.031-0.063,0.07-0.117,0.117-0.164
		c0.051-0.051,0.109-0.094,0.176-0.129c0.016-0.008,0.021-0.012,0.018-0.012l0.029-0.012c0.02-0.008,0.031-0.012,0.035-0.012
		c-0.004,0-0.002-0.002,0.006-0.006c-0.004,0.004,0.004,0.002,0.023-0.006c0.016-0.004,0.027-0.008,0.035-0.012
		c0.008,0,0.02-0.002,0.035-0.006c0.012-0.004,0.021-0.006,0.029-0.006s0.021-0.002,0.041-0.006c0.012,0,0.021,0,0.029,0h0.064
		c0.012,0,0.025,0.002,0.041,0.006h0.029c0.008,0,0.021,0.002,0.041,0.006l0.023,0.006c0.012,0.004,0.027,0.008,0.047,0.012
		c0,0.004,0.002,0.006,0.006,0.006s0.008,0,0.012,0v0.006h0.006c0.008,0.004,0.02,0.01,0.035,0.018l0.029,0.006l0.023,0.018
		c0.063,0.031,0.119,0.072,0.17,0.123c0.047,0.047,0.086,0.1,0.117,0.158l0.012,0.029l0.012,0.023
		c0.008,0.02,0.014,0.033,0.018,0.041v0.006l1.811,5.156l1.811-5.156c0.063-0.18,0.18-0.313,0.352-0.398
		c0.172-0.082,0.258-0.123,0.258-0.123S137.075,21.177,137.258,21.239z"/>
	<path fill="#FFFFFF" d="M144.354,28.212c0.191,0,0.354,0.068,0.486,0.205c0.137,0.137,0.205,0.301,0.205,0.492
		s-0.068,0.354-0.205,0.486c-0.133,0.137-0.295,0.205-0.486,0.205h-4.242c-0.191,0-0.354-0.068-0.486-0.205
		c-0.137-0.133-0.205-0.295-0.205-0.486v-7.025c0-0.195,0.068-0.359,0.205-0.492c0.133-0.137,0.295-0.205,0.486-0.205h0.006
		l4.236,0.012c0.191,0,0.355,0.068,0.492,0.205c0.133,0.137,0.199,0.301,0.199,0.492s-0.068,0.354-0.205,0.486
		c-0.133,0.137-0.295,0.205-0.486,0.205h-0.006l-3.539-0.012v2.127h2.555c0.191,0,0.355,0.066,0.492,0.199
		c0.137,0.137,0.205,0.301,0.205,0.492s-0.068,0.355-0.205,0.492c-0.137,0.133-0.301,0.199-0.492,0.199h-2.555v2.127H144.354z"/>
	<path fill="#FFFFFF" d="M147.565,29.601c-0.191,0-0.354-0.068-0.486-0.205c-0.137-0.133-0.205-0.295-0.205-0.486v-7.002
		c0-0.188,0.066-0.35,0.199-0.486c0.137-0.133,0.299-0.201,0.486-0.205l2.461-0.012c0.734,0,1.355,0.234,1.863,0.703
		c0.504,0.469,0.756,1.043,0.756,1.723c0,0.656-0.24,1.225-0.721,1.705c0.578,0.477,0.867,1.08,0.867,1.811
		c0,0.676-0.258,1.254-0.773,1.734c-0.512,0.48-1.129,0.721-1.852,0.721H147.565z M148.256,24.726h1.77
		c0.332,0,0.621-0.107,0.867-0.322c0.242-0.219,0.363-0.477,0.363-0.773c0-0.293-0.119-0.539-0.357-0.738
		c-0.238-0.203-0.529-0.305-0.873-0.305l-1.77,0.012V24.726z M148.256,28.218h1.904c0.344,0,0.637-0.105,0.879-0.316
		c0.242-0.207,0.363-0.459,0.363-0.756c0-0.289-0.119-0.533-0.357-0.732c-0.238-0.203-0.529-0.305-0.873-0.305
		c-0.02,0-0.037,0-0.053,0c-0.031,0-0.063,0-0.094,0h-1.77V28.218z"/>
</g>
<path fill="#A84F9E" stroke="#7B2879" stroke-miterlimit="10" d="M272.705,41.436c0,3.928-3.186,7.114-7.113,7.114h-33.428
	c-3.928,0-7.113-3.187-7.113-7.114V8.007c0-3.928,3.186-7.113,7.113-7.113h33.428c3.928,0,7.113,3.185,7.113,7.113V41.436z"/>
<g>
	<rect x="206.067" y="18.4" fill="none" width="85.621" height="27.449"/>
	<path fill="#FFFFFF" d="M242.271,28.601c-0.188,0-0.35-0.066-0.486-0.199c-0.137-0.137-0.205-0.301-0.205-0.492v-7.014
		c0-0.191,0.068-0.355,0.205-0.492c0.133-0.133,0.295-0.199,0.486-0.199h1.775c1.156,0,2.145,0.408,2.965,1.225
		c0.816,0.82,1.225,1.807,1.225,2.959c0,1.156-0.408,2.143-1.225,2.959c-0.82,0.82-1.809,1.23-2.965,1.23l-1.764,0.023H242.271z
		 M242.968,27.206l1.072-0.018c0.777,0,1.439-0.273,1.986-0.82s0.82-1.207,0.82-1.98c0-0.77-0.273-1.428-0.82-1.975
		c-0.547-0.551-1.207-0.826-1.98-0.826h-1.078V27.206z"/>
	<path fill="#FFFFFF" d="M250.644,28.601c-0.191,0-0.354-0.068-0.486-0.205c-0.137-0.133-0.205-0.295-0.205-0.486v-7.002
		c0-0.188,0.066-0.35,0.199-0.486c0.137-0.133,0.299-0.201,0.486-0.205l2.461-0.012c0.734,0,1.355,0.234,1.863,0.703
		c0.504,0.469,0.756,1.043,0.756,1.723c0,0.656-0.24,1.225-0.721,1.705c0.578,0.477,0.867,1.08,0.867,1.811
		c0,0.676-0.258,1.254-0.773,1.734c-0.512,0.48-1.129,0.721-1.852,0.721H250.644z M251.335,23.726h1.77
		c0.332,0,0.621-0.107,0.867-0.322c0.242-0.219,0.363-0.477,0.363-0.773c0-0.293-0.119-0.539-0.357-0.738
		c-0.238-0.203-0.529-0.305-0.873-0.305l-1.77,0.012V23.726z M251.335,27.218h1.904c0.344,0,0.637-0.105,0.879-0.316
		c0.242-0.207,0.363-0.459,0.363-0.756c0-0.289-0.119-0.533-0.357-0.732c-0.238-0.203-0.529-0.305-0.873-0.305
		c-0.02,0-0.037,0-0.053,0c-0.031,0-0.063,0-0.094,0h-1.77V27.218z"/>
</g>
<g>
	<rect y="19.4" fill="none" width="85.622" height="27.449"/>
	<path fill="#942F8C" d="M40.313,20.898c0.16,0,0.296,0.057,0.41,0.171c0.111,0.114,0.166,0.251,0.166,0.41
		s-0.057,0.295-0.171,0.405c-0.111,0.114-0.246,0.171-0.405,0.171h-0.005l-2.949-0.01v1.772h2.129c0.16,0,0.296,0.056,0.41,0.166
		c0.114,0.114,0.171,0.251,0.171,0.41s-0.057,0.296-0.171,0.41c-0.114,0.11-0.25,0.166-0.41,0.166h-2.129v2.354
		c0,0.159-0.057,0.295-0.171,0.405c-0.114,0.114-0.25,0.171-0.41,0.171s-0.294-0.057-0.405-0.171
		c-0.114-0.11-0.171-0.246-0.171-0.405V21.47c0-0.163,0.057-0.3,0.171-0.41c0.111-0.114,0.246-0.171,0.405-0.171h0.005
		L40.313,20.898z"/>
	<path fill="#942F8C" d="M42.427,27.9c-0.16,0-0.294-0.057-0.405-0.171c-0.114-0.11-0.171-0.246-0.171-0.405v-5.825
		c0-0.159,0.057-0.295,0.171-0.405c0.111-0.114,0.246-0.171,0.405-0.171s0.294,0.057,0.405,0.171
		c0.114,0.11,0.171,0.246,0.171,0.405v5.825c0,0.159-0.057,0.295-0.171,0.405C42.722,27.844,42.587,27.9,42.427,27.9z"/>
	<path fill="#942F8C" d="M47.129,20.884c0.605,0,1.122,0.2,1.548,0.601c0.43,0.4,0.645,0.882,0.645,1.445
		c0,0.554-0.207,1.028-0.62,1.426c-0.41,0.394-0.908,0.601-1.494,0.62h-0.005h-0.005h-0.01c-0.036,0.003-0.055,0.005-0.059,0.005
		L47.1,24.976h-1.431v2.349c0,0.159-0.055,0.295-0.166,0.405c-0.114,0.114-0.25,0.171-0.41,0.171s-0.294-0.057-0.405-0.171
		c-0.114-0.11-0.171-0.246-0.171-0.405V21.46c0-0.159,0.057-0.295,0.171-0.405c0.111-0.114,0.246-0.171,0.405-0.171H47.129z
		 M47.164,23.823c0.277-0.007,0.513-0.096,0.708-0.269c0.195-0.176,0.293-0.384,0.293-0.625c0-0.244-0.101-0.454-0.303-0.63
		s-0.446-0.264-0.732-0.264h-1.46v1.787H47.164z"/>
</g>
<g>
	<rect x="168.756" y="11.416" fill="none" width="51.287" height="19.969"/>
	<path fill="#942F8C" d="M186.173,12.615c0.127,0,0.235,0.046,0.324,0.137c0.091,0.089,0.137,0.196,0.137,0.324v4.219h2.066
		c0.127,0,0.236,0.046,0.328,0.137c0.088,0.089,0.133,0.196,0.133,0.324s-0.045,0.235-0.133,0.324
		c-0.092,0.091-0.201,0.137-0.328,0.137h-2.527c-0.128,0-0.236-0.046-0.324-0.137c-0.092-0.089-0.137-0.196-0.137-0.324v-4.68
		c0-0.128,0.045-0.235,0.137-0.324C185.937,12.661,186.045,12.615,186.173,12.615z"/>
	<path fill="#942F8C" d="M190.642,18.216c-0.128,0-0.236-0.046-0.324-0.137c-0.092-0.089-0.137-0.196-0.137-0.324v-4.66
		c0-0.128,0.045-0.235,0.137-0.324c0.088-0.091,0.196-0.137,0.324-0.137c0.127,0,0.235,0.046,0.324,0.137
		c0.091,0.089,0.137,0.196,0.137,0.324v4.66c0,0.128-0.046,0.235-0.137,0.324C190.877,18.17,190.769,18.216,190.642,18.216z"/>
	<path fill="#942F8C" d="M196.525,18.041h-0.004v-0.004l-2.809-3.613v3.332c0,0.128-0.046,0.235-0.137,0.324
		c-0.089,0.091-0.197,0.137-0.324,0.137c-0.128,0-0.236-0.046-0.324-0.137c-0.092-0.089-0.137-0.196-0.137-0.324v-4.68
		c0-0.099,0.028-0.188,0.086-0.266c0.057-0.081,0.133-0.137,0.227-0.168c0.091-0.034,0.185-0.036,0.281-0.008
		c0.094,0.028,0.17,0.082,0.23,0.16l2.809,3.617v-3.336c0-0.128,0.044-0.235,0.133-0.324c0.091-0.091,0.2-0.137,0.328-0.137
		c0.127,0,0.235,0.046,0.324,0.137c0.091,0.089,0.137,0.196,0.137,0.324v4.688c0,0.005-0.002,0.013-0.004,0.023
		c0,0.011,0,0.017,0,0.02c0,0.005-0.002,0.013-0.004,0.023c0,0.011-0.002,0.019-0.004,0.023l-0.004,0.02
		c-0.003,0.013-0.006,0.021-0.008,0.023c0,0.003-0.003,0.009-0.008,0.02c-0.003,0.011-0.006,0.019-0.008,0.023l-0.008,0.02
		l-0.012,0.02c-0.003,0.005-0.007,0.013-0.012,0.023l-0.012,0.012c-0.003,0.005-0.008,0.013-0.016,0.023l-0.012,0.016
		c-0.003,0.003-0.008,0.008-0.016,0.016c-0.008,0.011-0.014,0.016-0.016,0.016c0,0.003-0.006,0.008-0.016,0.016
		c-0.008,0.008-0.015,0.013-0.02,0.016c0.008-0.005,0.006-0.004-0.004,0.004l-0.004,0.004c-0.021,0.016-0.041,0.028-0.059,0.039
		h-0.004c-0.021,0.011-0.042,0.02-0.063,0.027c-0.011,0.005-0.014,0.007-0.008,0.004c-0.021,0.008-0.043,0.013-0.066,0.016
		l-0.012,0.004c-0.023,0.003-0.046,0.004-0.066,0.004c-0.016,0-0.033-0.001-0.051-0.004c0.005,0.003,0.002,0.003-0.008,0
		c-0.016-0.003-0.029-0.005-0.039-0.008c0.002,0.003-0.003,0.001-0.016-0.004c-0.014-0.003-0.023-0.005-0.031-0.008
		c-0.003,0-0.008-0.003-0.016-0.008c-0.014-0.003-0.023-0.007-0.031-0.012c-0.006,0-0.011-0.003-0.016-0.008
		c-0.011-0.005-0.02-0.009-0.027-0.012c-0.008-0.005-0.014-0.009-0.016-0.012c-0.008-0.005-0.018-0.012-0.027-0.02
		c-0.008-0.005-0.014-0.009-0.016-0.012c-0.014-0.011-0.025-0.021-0.035-0.031l-0.004-0.004v-0.004
		c-0.011-0.011-0.016-0.016-0.016-0.016S196.533,18.051,196.525,18.041z"/>
	<path fill="#942F8C" d="M199.494,18.181c-0.125,0-0.233-0.046-0.324-0.137c-0.089-0.089-0.133-0.195-0.133-0.32v-4.641
		c0-0.125,0.044-0.231,0.133-0.32c0.091-0.091,0.199-0.137,0.324-0.137s0.232,0.046,0.324,0.137c0.088,0.089,0.133,0.195,0.133,0.32
		v2.055l2.234-2.348c0.086-0.091,0.192-0.14,0.32-0.145c0.125-0.003,0.232,0.04,0.324,0.129c0.091,0.086,0.138,0.191,0.141,0.316
		c0.005,0.128-0.037,0.237-0.125,0.328l-1.875,1.973l1.949,2.051c0.086,0.094,0.127,0.203,0.125,0.328
		c-0.003,0.125-0.05,0.231-0.141,0.32c-0.089,0.083-0.194,0.125-0.316,0.125c-0.131,0-0.241-0.047-0.332-0.141l-1.918-2.02
		l-0.387,0.41v1.258c0,0.125-0.045,0.231-0.133,0.32C199.726,18.135,199.619,18.181,199.494,18.181z"/>
</g>
<circle fill="none" stroke="#7B2879" stroke-width="2" stroke-miterlimit="10" cx="42.445" cy="23.034" r="17.32"/>
<g>
</g>
<g>
</g>
<g>
</g>
<g>
</g>
<g>
</g>
<g>
</g>
<g>
</g>
</svg>
