<?xml version="1.0" encoding="utf-8"?>
<!-- Generator: Adobe Illustrator 16.0.0, SVG Export Plug-In . SVG Version: 6.00 Build 0)  -->
<!DOCTYPE svg PUBLIC "-//W3C//DTD SVG 1.1//EN" "http://www.w3.org/Graphics/SVG/1.1/DTD/svg11.dtd">
<svg version="1.1" id="图层_1" xmlns="http://www.w3.org/2000/svg" xmlns:xlink="http://www.w3.org/1999/xlink" x="0px" y="0px"
	 width="291.688px" height="118.796px" viewBox="0 0 291.688 118.796" enable-background="new 0 0 291.688 118.796"
	 xml:space="preserve">
<g>
	<g>
		<line fill="none" stroke="#535353" stroke-width="2" stroke-miterlimit="10" x1="61.744" y1="58.366" x2="63.244" y2="58.366"/>
		
			<line fill="none" stroke="#535353" stroke-width="2" stroke-miterlimit="10" stroke-dasharray="2.836,2.836" x1="66.08" y1="58.366" x2="104.366" y2="58.366"/>
		<line fill="none" stroke="#535353" stroke-width="2" stroke-miterlimit="10" x1="105.784" y1="58.366" x2="107.284" y2="58.366"/>
		<g>
			<path fill="#535353" d="M111.509,58.366c-1.988,0.737-4.454,1.996-5.983,3.329l1.204-3.329l-1.204-3.328
				C107.055,56.371,109.521,57.628,111.509,58.366z"/>
		</g>
	</g>
</g>
<g>
	<g>
		<line fill="none" stroke="#535353" stroke-width="2" stroke-miterlimit="10" x1="165.593" y1="51.782" x2="166.945" y2="51.133"/>
		
			<line fill="none" stroke="#535353" stroke-width="2" stroke-miterlimit="10" stroke-dasharray="2.9603,2.9603" x1="169.614" y1="49.851" x2="221.648" y2="24.86"/>
		<line fill="none" stroke="#535353" stroke-width="2" stroke-miterlimit="10" x1="222.983" y1="24.219" x2="224.335" y2="23.57"/>
		<g>
			<path fill="#535353" d="M228.143,21.741c-1.473,1.525-3.151,3.728-3.952,5.591l-0.355-3.522l-2.527-2.479
				C223.264,21.871,226.033,21.937,228.143,21.741z"/>
		</g>
	</g>
</g>
<path fill="#A84F9E" stroke="#7B2879" stroke-miterlimit="10" d="M269.677,35.89c0,3.429-2.78,6.211-6.209,6.211h-29.182
	c-3.429,0-6.209-2.782-6.209-6.211V6.709c0-3.429,2.78-6.209,6.209-6.209h29.182c3.429,0,6.209,2.78,6.209,6.209V35.89z"/>
<g>
	<rect x="206.067" y="17.612" fill="none" width="85.621" height="27.449"/>
	<path fill="#FFFFFF" d="M241.943,18.991c0.135,0.051,0.232,0.14,0.295,0.269c0.061,0.129,0.068,0.261,0.021,0.396l-1.85,5.26v0.005
		c-0.006,0.021-0.016,0.043-0.027,0.065c-0.006,0.007-0.008,0.011-0.008,0.014c-0.012,0.021-0.025,0.039-0.04,0.057
		c0.006-0.008,0.003-0.004-0.009,0.014c-0.012,0.015-0.025,0.029-0.039,0.044c-0.01,0.009-0.012,0.012-0.01,0.009
		c-0.018,0.015-0.035,0.029-0.053,0.044c0.004-0.003-0.001,0-0.013,0.009c-0.018,0.012-0.035,0.021-0.053,0.031
		c-0.009,0.003-0.012,0.004-0.009,0.004c-0.021,0.009-0.039,0.017-0.057,0.021c-0.012,0.007-0.014,0.008-0.005,0.005
		c-0.018,0.006-0.038,0.011-0.062,0.013c-0.023,0.007-0.031,0.008-0.021,0.005c-0.029,0.006-0.058,0.009-0.084,0.009
		s-0.055-0.003-0.084-0.009c0.01,0.003,0.002,0.002-0.021-0.005c-0.023-0.002-0.043-0.007-0.057-0.013
		c0.006,0.003,0.002,0.002-0.01-0.005c-0.018-0.005-0.035-0.013-0.053-0.021l-0.013-0.004c-0.018-0.01-0.035-0.02-0.053-0.031
		c0-0.003-0.001-0.004-0.005-0.004l-0.004-0.005c-0.021-0.015-0.038-0.029-0.053-0.044c0,0.003-0.004,0-0.014-0.009
		c-0.014-0.015-0.027-0.03-0.039-0.048l-0.009-0.01c-0.012-0.018-0.023-0.036-0.035-0.057c-0.003-0.006-0.006-0.01-0.009-0.014
		c-0.012-0.022-0.021-0.045-0.031-0.065v-0.005l-1.357-3.867l-1.357,3.867v0.005c-0.01,0.021-0.02,0.043-0.031,0.065
		c-0.003,0.007-0.006,0.011-0.009,0.014c-0.012,0.021-0.023,0.039-0.035,0.057c0.006-0.008,0.003-0.004-0.009,0.014
		c-0.015,0.015-0.029,0.029-0.044,0.044c-0.009,0.009-0.012,0.012-0.009,0.009c-0.015,0.015-0.032,0.029-0.053,0.044
		c0.006-0.003,0.002,0-0.014,0.009c-0.018,0.012-0.035,0.021-0.053,0.031c-0.008,0.003-0.012,0.004-0.008,0.004
		c-0.021,0.009-0.039,0.017-0.053,0.021c-0.016,0.007-0.018,0.008-0.01,0.005c-0.018,0.006-0.037,0.011-0.061,0.013
		c-0.021,0.007-0.028,0.008-0.022,0.005c-0.026,0.006-0.053,0.009-0.079,0.009c-0.029,0-0.057-0.003-0.084-0.009
		c0.01,0.003,0.002,0.002-0.021-0.005c-0.023-0.002-0.044-0.007-0.062-0.013c0.009,0.003,0.007,0.002-0.005-0.005
		c-0.018-0.005-0.036-0.013-0.057-0.021c0.003,0,0-0.001-0.009-0.004c-0.018-0.01-0.035-0.02-0.053-0.031
		c-0.003-0.003-0.006-0.004-0.009-0.004c0-0.003-0.002-0.005-0.004-0.005c-0.018-0.015-0.035-0.029-0.053-0.044
		c0.002,0.003,0,0-0.01-0.009c-0.014-0.015-0.029-0.03-0.043-0.048l-0.005-0.01c-0.015-0.018-0.028-0.036-0.04-0.057
		c-0.002-0.006-0.006-0.01-0.008-0.014c-0.012-0.022-0.021-0.045-0.027-0.065l-0.004-0.005l-1.846-5.26
		c-0.047-0.135-0.039-0.267,0.021-0.396c0.063-0.129,0.16-0.218,0.295-0.269c0.135-0.046,0.267-0.039,0.396,0.022
		c0.129,0.064,0.218,0.164,0.269,0.299l1.357,3.867l1.357-3.867v-0.005c0.004-0.005,0.006-0.014,0.01-0.025
		c0.008-0.018,0.012-0.025,0.008-0.022c0.004,0,0.008-0.006,0.014-0.018c0.023-0.047,0.053-0.088,0.088-0.123
		c0.038-0.038,0.082-0.07,0.132-0.097c0.012-0.006,0.017-0.009,0.013-0.009l0.022-0.009c0.015-0.006,0.023-0.009,0.026-0.009
		c-0.003,0-0.002-0.001,0.004-0.005c-0.002,0.004,0.004,0.002,0.018-0.004c0.012-0.003,0.021-0.006,0.027-0.009
		c0.006,0,0.014-0.001,0.025-0.005c0.01-0.002,0.017-0.004,0.022-0.004s0.017-0.001,0.03-0.004c0.01,0,0.017,0,0.022,0h0.048
		c0.01,0,0.02,0.001,0.031,0.004h0.021c0.006,0,0.017,0.002,0.031,0.004l0.018,0.005c0.009,0.003,0.021,0.006,0.035,0.009
		c0,0.003,0.002,0.004,0.004,0.004c0.004,0,0.006,0,0.01,0v0.005h0.004c0.006,0.003,0.015,0.008,0.026,0.013l0.022,0.005
		l0.018,0.013c0.047,0.024,0.089,0.055,0.127,0.093c0.035,0.035,0.064,0.075,0.088,0.118l0.009,0.022l0.009,0.018
		c0.006,0.015,0.01,0.025,0.014,0.03v0.005l1.357,3.867l1.357-3.867c0.047-0.135,0.135-0.234,0.264-0.299
		c0.129-0.062,0.193-0.093,0.193-0.093S241.805,18.945,241.943,18.991z"/>
	<path fill="#FFFFFF" d="M246.957,24.221c0.145,0,0.266,0.051,0.365,0.153c0.103,0.103,0.154,0.226,0.154,0.369
		s-0.052,0.266-0.154,0.364c-0.1,0.104-0.221,0.154-0.365,0.154h-3.182c-0.143,0-0.265-0.051-0.364-0.154
		c-0.103-0.099-0.153-0.221-0.153-0.364v-5.269c0-0.146,0.051-0.27,0.153-0.369c0.1-0.103,0.222-0.154,0.364-0.154h0.005
		l3.177,0.009c0.145,0,0.268,0.052,0.369,0.153c0.1,0.104,0.15,0.227,0.15,0.369c0,0.145-0.052,0.266-0.154,0.365
		c-0.1,0.103-0.221,0.154-0.365,0.154h-0.004l-2.654-0.01v1.596h1.916c0.144,0,0.267,0.05,0.369,0.149
		c0.103,0.103,0.154,0.226,0.154,0.369s-0.052,0.267-0.154,0.369c-0.103,0.1-0.226,0.149-0.369,0.149h-1.916v1.596H246.957z"/>
	<path fill="#FFFFFF" d="M248.974,25.262c-0.144,0-0.266-0.051-0.365-0.154c-0.102-0.099-0.153-0.221-0.153-0.364v-5.251
		c0-0.141,0.05-0.263,0.149-0.365c0.103-0.1,0.225-0.15,0.365-0.154l1.846-0.008c0.551,0,1.016,0.176,1.396,0.527
		c0.379,0.352,0.567,0.781,0.567,1.291c0,0.492-0.181,0.919-0.54,1.279c0.434,0.357,0.65,0.811,0.65,1.357
		c0,0.508-0.193,0.941-0.58,1.301c-0.385,0.361-0.848,0.541-1.389,0.541H248.974z M249.493,21.606h1.327
		c0.249,0,0.466-0.08,0.65-0.242c0.182-0.163,0.272-0.356,0.272-0.58c0-0.219-0.089-0.404-0.269-0.553
		c-0.178-0.152-0.396-0.229-0.654-0.229l-1.327,0.008V21.606z M249.493,24.225h1.429c0.258,0,0.477-0.079,0.658-0.237
		c0.182-0.155,0.273-0.344,0.273-0.567c0-0.216-0.09-0.399-0.269-0.549c-0.179-0.152-0.397-0.229-0.655-0.229
		c-0.014,0-0.027,0-0.039,0c-0.023,0-0.047,0-0.07,0h-1.327V24.225z"/>
	<path fill="#FFFFFF" d="M257.074,21.584c0.143,0,0.265,0.051,0.364,0.153c0.103,0.1,0.153,0.222,0.153,0.364
		c0,0.145-0.051,0.266-0.153,0.365c-0.1,0.103-0.222,0.154-0.364,0.154h-2.202c-0.144,0-0.265-0.052-0.364-0.154
		c-0.104-0.1-0.154-0.221-0.154-0.365c0-0.143,0.051-0.265,0.154-0.364c0.1-0.103,0.221-0.153,0.364-0.153H257.074z"/>
	<path fill="#FFFFFF" d="M260.625,20.481c-0.135,0.047-0.268,0.041-0.396-0.018c-0.129-0.062-0.218-0.159-0.268-0.295
		c-0.047-0.134-0.041-0.266,0.018-0.395c0.062-0.129,0.16-0.219,0.295-0.269l1.354-0.492c0.17-0.059,0.328-0.036,0.475,0.065
		c0.146,0.104,0.219,0.244,0.219,0.422v5.243c0,0.144-0.049,0.266-0.148,0.364c-0.104,0.104-0.227,0.154-0.369,0.154
		c-0.145,0-0.266-0.051-0.365-0.154c-0.103-0.099-0.154-0.221-0.154-0.364v-4.505L260.625,20.481z"/>
</g>
<g>
	<rect y="53.045" fill="none" width="85.622" height="27.45"/>
	<path fill="#942F8C" d="M40.313,54.543c0.16,0,0.296,0.057,0.41,0.171c0.111,0.114,0.166,0.251,0.166,0.41
		s-0.057,0.295-0.171,0.405c-0.111,0.114-0.246,0.171-0.405,0.171h-0.005l-2.949-0.01v1.772h2.129c0.16,0,0.296,0.056,0.41,0.166
		c0.114,0.114,0.171,0.251,0.171,0.41s-0.057,0.296-0.171,0.41c-0.114,0.11-0.25,0.166-0.41,0.166h-2.129v2.354
		c0,0.159-0.057,0.295-0.171,0.405c-0.114,0.114-0.25,0.171-0.41,0.171s-0.294-0.057-0.405-0.171
		c-0.114-0.11-0.171-0.246-0.171-0.405v-5.854c0-0.163,0.057-0.3,0.171-0.41c0.111-0.114,0.246-0.171,0.405-0.171h0.005
		L40.313,54.543z"/>
	<path fill="#942F8C" d="M42.427,61.545c-0.16,0-0.294-0.057-0.405-0.171c-0.114-0.11-0.171-0.246-0.171-0.405v-5.825
		c0-0.159,0.057-0.295,0.171-0.405c0.111-0.114,0.246-0.171,0.405-0.171s0.294,0.057,0.405,0.171
		c0.114,0.11,0.171,0.246,0.171,0.405v5.825c0,0.159-0.057,0.295-0.171,0.405C42.722,61.489,42.587,61.545,42.427,61.545z"/>
	<path fill="#942F8C" d="M47.129,54.529c0.605,0,1.122,0.2,1.548,0.601c0.43,0.4,0.645,0.882,0.645,1.445
		c0,0.554-0.207,1.028-0.62,1.426c-0.41,0.394-0.908,0.601-1.494,0.62h-0.005h-0.005h-0.01c-0.036,0.003-0.055,0.005-0.059,0.005
		L47.1,58.621h-1.431v2.349c0,0.159-0.055,0.295-0.166,0.405c-0.114,0.114-0.25,0.171-0.41,0.171s-0.294-0.057-0.405-0.171
		c-0.114-0.11-0.171-0.246-0.171-0.405v-5.864c0-0.159,0.057-0.295,0.171-0.405c0.111-0.114,0.246-0.171,0.405-0.171H47.129z
		 M47.164,57.468c0.277-0.007,0.513-0.096,0.708-0.269c0.195-0.176,0.293-0.384,0.293-0.625c0-0.244-0.101-0.454-0.303-0.63
		s-0.446-0.264-0.732-0.264h-1.46v1.787H47.164z"/>
</g>
<circle fill="none" stroke="#7B2879" stroke-width="2" stroke-miterlimit="10" cx="42.445" cy="56.679" r="17.32"/>
<path fill="#A84F9E" stroke="#7B2879" stroke-miterlimit="10" d="M269.677,109.624c0,3.43-2.78,6.211-6.209,6.211h-29.182
	c-3.429,0-6.209-2.781-6.209-6.211V80.443c0-3.429,2.78-6.209,6.209-6.209h29.182c3.429,0,6.209,2.78,6.209,6.209V109.624z"/>
<g>
	<rect x="206.067" y="91.347" fill="none" width="85.621" height="27.449"/>
	<path fill="#FFFFFF" d="M241.943,92.726c0.135,0.051,0.232,0.139,0.295,0.268c0.061,0.129,0.068,0.262,0.021,0.396l-1.85,5.26
		v0.004c-0.006,0.021-0.016,0.043-0.027,0.066c-0.006,0.006-0.008,0.01-0.008,0.014c-0.012,0.02-0.025,0.039-0.04,0.057
		c0.006-0.008,0.003-0.004-0.009,0.014c-0.012,0.014-0.025,0.029-0.039,0.043c-0.01,0.01-0.012,0.012-0.01,0.01
		c-0.018,0.014-0.035,0.029-0.053,0.043c0.004-0.002-0.001,0-0.013,0.01c-0.018,0.012-0.035,0.021-0.053,0.031
		c-0.009,0.002-0.012,0.004-0.009,0.004c-0.021,0.008-0.039,0.016-0.057,0.021c-0.012,0.006-0.014,0.008-0.005,0.004
		c-0.018,0.006-0.038,0.012-0.062,0.014c-0.023,0.006-0.031,0.008-0.021,0.004c-0.029,0.006-0.058,0.01-0.084,0.01
		s-0.055-0.004-0.084-0.01c0.01,0.004,0.002,0.002-0.021-0.004c-0.023-0.002-0.043-0.008-0.057-0.014
		c0.006,0.004,0.002,0.002-0.01-0.004c-0.018-0.006-0.035-0.014-0.053-0.021l-0.013-0.004c-0.018-0.01-0.035-0.02-0.053-0.031
		c0-0.004-0.001-0.004-0.005-0.004l-0.004-0.006c-0.021-0.014-0.038-0.029-0.053-0.043c0,0.002-0.004,0-0.014-0.01
		c-0.014-0.014-0.027-0.029-0.039-0.047l-0.009-0.01c-0.012-0.018-0.023-0.037-0.035-0.057c-0.003-0.006-0.006-0.01-0.009-0.014
		c-0.012-0.023-0.021-0.045-0.031-0.066v-0.004l-1.357-3.867l-1.357,3.867v0.004c-0.01,0.021-0.02,0.043-0.031,0.066
		c-0.003,0.006-0.006,0.01-0.009,0.014c-0.012,0.02-0.023,0.039-0.035,0.057c0.006-0.008,0.003-0.004-0.009,0.014
		c-0.015,0.014-0.029,0.029-0.044,0.043c-0.009,0.01-0.012,0.012-0.009,0.01c-0.015,0.014-0.032,0.029-0.053,0.043
		c0.006-0.002,0.002,0-0.014,0.01c-0.018,0.012-0.035,0.021-0.053,0.031c-0.008,0.002-0.012,0.004-0.008,0.004
		c-0.021,0.008-0.039,0.016-0.053,0.021c-0.016,0.006-0.018,0.008-0.01,0.004c-0.018,0.006-0.037,0.012-0.061,0.014
		c-0.021,0.006-0.028,0.008-0.022,0.004c-0.026,0.006-0.053,0.01-0.079,0.01c-0.029,0-0.057-0.004-0.084-0.01
		c0.01,0.004,0.002,0.002-0.021-0.004c-0.023-0.002-0.044-0.008-0.062-0.014c0.009,0.004,0.007,0.002-0.005-0.004
		c-0.018-0.006-0.036-0.014-0.057-0.021c0.003,0,0-0.002-0.009-0.004c-0.018-0.01-0.035-0.02-0.053-0.031
		c-0.003-0.004-0.006-0.004-0.009-0.004c0-0.004-0.002-0.006-0.004-0.006c-0.018-0.014-0.035-0.029-0.053-0.043
		c0.002,0.002,0,0-0.01-0.01c-0.014-0.014-0.029-0.029-0.043-0.047l-0.005-0.01c-0.015-0.018-0.028-0.037-0.04-0.057
		c-0.002-0.006-0.006-0.01-0.008-0.014c-0.012-0.023-0.021-0.045-0.027-0.066l-0.004-0.004l-1.846-5.26
		c-0.047-0.135-0.039-0.268,0.021-0.396c0.063-0.129,0.16-0.217,0.295-0.268c0.135-0.047,0.267-0.039,0.396,0.021
		c0.129,0.064,0.218,0.164,0.269,0.299l1.357,3.867l1.357-3.867v-0.004c0.004-0.006,0.006-0.014,0.01-0.025
		c0.008-0.018,0.012-0.025,0.008-0.023c0.004,0,0.008-0.006,0.014-0.018c0.023-0.047,0.053-0.088,0.088-0.123
		c0.038-0.037,0.082-0.07,0.132-0.096c0.012-0.006,0.017-0.01,0.013-0.01l0.022-0.008c0.015-0.006,0.023-0.01,0.026-0.01
		c-0.003,0-0.002,0,0.004-0.004c-0.002,0.004,0.004,0.002,0.018-0.004c0.012-0.004,0.021-0.006,0.027-0.01
		c0.006,0,0.014,0,0.025-0.004c0.01-0.002,0.017-0.004,0.022-0.004s0.017-0.002,0.03-0.004c0.01,0,0.017,0,0.022,0h0.048
		c0.01,0,0.02,0,0.031,0.004h0.021c0.006,0,0.017,0.002,0.031,0.004l0.018,0.004c0.009,0.004,0.021,0.006,0.035,0.01
		c0,0.002,0.002,0.004,0.004,0.004c0.004,0,0.006,0,0.01,0v0.004h0.004c0.006,0.004,0.015,0.008,0.026,0.014l0.022,0.004
		l0.018,0.014c0.047,0.023,0.089,0.055,0.127,0.092c0.035,0.035,0.064,0.076,0.088,0.119l0.009,0.021l0.009,0.018
		c0.006,0.016,0.01,0.025,0.014,0.031v0.004l1.357,3.867l1.357-3.867c0.047-0.135,0.135-0.234,0.264-0.299
		c0.129-0.061,0.193-0.092,0.193-0.092S241.805,92.679,241.943,92.726z"/>
	<path fill="#FFFFFF" d="M246.957,97.956c0.145,0,0.266,0.051,0.365,0.152c0.103,0.104,0.154,0.227,0.154,0.369
		c0,0.145-0.052,0.266-0.154,0.365c-0.1,0.104-0.221,0.154-0.365,0.154h-3.182c-0.143,0-0.265-0.051-0.364-0.154
		c-0.103-0.1-0.153-0.221-0.153-0.365V93.21c0-0.146,0.051-0.27,0.153-0.369c0.1-0.104,0.222-0.154,0.364-0.154h0.005l3.177,0.008
		c0.145,0,0.268,0.053,0.369,0.154c0.1,0.104,0.15,0.227,0.15,0.369c0,0.145-0.052,0.266-0.154,0.365
		c-0.1,0.102-0.221,0.154-0.365,0.154h-0.004l-2.654-0.01v1.596h1.916c0.144,0,0.267,0.049,0.369,0.148
		c0.103,0.104,0.154,0.227,0.154,0.369c0,0.145-0.052,0.268-0.154,0.369c-0.103,0.1-0.226,0.15-0.369,0.15h-1.916v1.596H246.957z"/>
	<path fill="#FFFFFF" d="M248.974,98.997c-0.144,0-0.266-0.051-0.365-0.154c-0.102-0.1-0.153-0.221-0.153-0.365v-5.25
		c0-0.141,0.05-0.264,0.149-0.365c0.103-0.1,0.225-0.15,0.365-0.154l1.846-0.008c0.551,0,1.016,0.176,1.396,0.527
		c0.379,0.352,0.567,0.781,0.567,1.291c0,0.492-0.181,0.918-0.54,1.279c0.434,0.357,0.65,0.811,0.65,1.357
		c0,0.508-0.193,0.941-0.58,1.301c-0.385,0.361-0.848,0.541-1.389,0.541H248.974z M249.493,95.341h1.327
		c0.249,0,0.466-0.08,0.65-0.242c0.182-0.164,0.272-0.357,0.272-0.58c0-0.219-0.089-0.404-0.269-0.553
		c-0.178-0.152-0.396-0.229-0.654-0.229l-1.327,0.008V95.341z M249.493,97.96h1.429c0.258,0,0.477-0.08,0.658-0.238
		c0.182-0.154,0.273-0.344,0.273-0.566c0-0.217-0.09-0.4-0.269-0.549c-0.179-0.152-0.397-0.229-0.655-0.229
		c-0.014,0-0.027,0-0.039,0c-0.023,0-0.047,0-0.07,0h-1.327V97.96z"/>
	<path fill="#FFFFFF" d="M257.074,95.319c0.143,0,0.265,0.051,0.364,0.152c0.103,0.1,0.153,0.223,0.153,0.365
		c0,0.145-0.051,0.266-0.153,0.365c-0.1,0.102-0.222,0.154-0.364,0.154h-2.202c-0.144,0-0.265-0.053-0.364-0.154
		c-0.104-0.1-0.154-0.221-0.154-0.365c0-0.143,0.051-0.266,0.154-0.365c0.1-0.102,0.221-0.152,0.364-0.152H257.074z"/>
	<path fill="#FFFFFF" d="M263.419,98.478c0,0.145-0.052,0.266-0.154,0.365c-0.1,0.104-0.221,0.154-0.365,0.154h-2.649
		c-0.208,0-0.36-0.092-0.457-0.277c-0.097-0.184-0.087-0.363,0.03-0.535l2.343-3.406c0.035-0.088,0.053-0.18,0.053-0.277
		c0-0.213-0.076-0.396-0.229-0.549c-0.152-0.15-0.335-0.225-0.55-0.225c-0.211,0-0.393,0.074-0.545,0.225
		c-0.152,0.152-0.229,0.336-0.229,0.549c0,0.018,0.002,0.035,0.005,0.053c0.009,0.145-0.035,0.268-0.132,0.373
		c-0.094,0.109-0.213,0.168-0.355,0.176c-0.145,0.01-0.269-0.033-0.374-0.127c-0.108-0.094-0.167-0.213-0.176-0.355
		c-0.003-0.041-0.005-0.08-0.005-0.119c0-0.5,0.178-0.928,0.532-1.283c0.354-0.354,0.78-0.531,1.278-0.531
		c0.502,0,0.93,0.178,1.283,0.531c0.355,0.355,0.532,0.783,0.532,1.283c0,0.258-0.053,0.504-0.158,0.738
		c-0.012,0.029-0.026,0.057-0.044,0.084l-1.814,2.637h1.66c0.145,0,0.266,0.049,0.365,0.148
		C263.368,98.212,263.419,98.335,263.419,98.478z"/>
</g>
<g>
	<g>
		<line fill="none" stroke="#535353" stroke-width="2" stroke-miterlimit="10" x1="165.593" y1="66.474" x2="166.945" y2="67.124"/>
		
			<line fill="none" stroke="#535353" stroke-width="2" stroke-miterlimit="10" stroke-dasharray="2.9602,2.9602" x1="169.614" y1="68.405" x2="221.649" y2="93.396"/>
		<line fill="none" stroke="#535353" stroke-width="2" stroke-miterlimit="10" x1="222.983" y1="94.036" x2="224.334" y2="94.687"/>
		<g>
			<path fill="#535353" d="M228.143,96.515c-2.111-0.195-4.88-0.129-6.835,0.41l2.527-2.479l0.355-3.521
				C224.992,92.788,226.67,94.989,228.143,96.515z"/>
		</g>
	</g>
</g>
<path fill="#A8509E" stroke="#7C287A" stroke-miterlimit="10" d="M163.316,76.031c0,4.151-3.366,7.52-7.518,7.52h-35.332
	c-4.152,0-7.518-3.368-7.518-7.52V40.701c0-4.151,3.366-7.518,7.518-7.518h35.332c4.151,0,7.518,3.366,7.518,7.518V76.031z"/>
<g>
	<rect x="96.322" y="52.045" fill="none" width="85.622" height="27.45"/>
	<path fill="#FFFFFF" d="M133.581,53.843c0.191,0,0.354,0.068,0.486,0.205c0.137,0.133,0.205,0.295,0.205,0.486v6.328h3.1
		c0.191,0,0.355,0.068,0.492,0.205c0.133,0.133,0.199,0.295,0.199,0.486c0,0.191-0.066,0.353-0.199,0.486
		c-0.137,0.137-0.301,0.205-0.492,0.205h-3.791c-0.191,0-0.354-0.068-0.486-0.205c-0.137-0.133-0.205-0.295-0.205-0.486v-7.02
		c0-0.191,0.068-0.354,0.205-0.486C133.227,53.912,133.389,53.843,133.581,53.843z"/>
	<path fill="#FFFFFF" d="M139.868,62.245c-0.191,0-0.354-0.068-0.486-0.205c-0.137-0.133-0.205-0.295-0.205-0.486v-7.002
		c0-0.188,0.066-0.35,0.199-0.486c0.137-0.133,0.299-0.201,0.486-0.205l2.461-0.012c0.734,0,1.355,0.234,1.863,0.703
		c0.504,0.469,0.756,1.043,0.756,1.723c0,0.656-0.24,1.225-0.721,1.705c0.578,0.477,0.867,1.08,0.867,1.811
		c0,0.676-0.258,1.254-0.773,1.734c-0.512,0.48-1.129,0.72-1.852,0.72H139.868z M140.559,57.371h1.77
		c0.332,0,0.621-0.107,0.867-0.322c0.242-0.219,0.363-0.477,0.363-0.773c0-0.293-0.119-0.539-0.357-0.738
		c-0.238-0.203-0.529-0.305-0.873-0.305l-1.77,0.012V57.371z M140.559,60.863h1.904c0.344,0,0.637-0.105,0.879-0.316
		c0.242-0.207,0.363-0.459,0.363-0.756c0-0.289-0.119-0.533-0.357-0.732c-0.238-0.203-0.529-0.305-0.873-0.305
		c-0.02,0-0.037,0-0.053,0c-0.031,0-0.063,0-0.094,0h-1.77V60.863z"/>
</g>
<g>
</g>
<g>
</g>
<g>
</g>
<g>
</g>
<g>
</g>
<g>
</g>
<g>
</g>
</svg>
