<?xml version="1.0" encoding="utf-8"?>
<!-- Generator: Adobe Illustrator 16.0.0, SVG Export Plug-In . SVG Version: 6.00 Build 0)  -->
<!DOCTYPE svg PUBLIC "-//W3C//DTD SVG 1.1//EN" "http://www.w3.org/Graphics/SVG/1.1/DTD/svg11.dtd">
<svg version="1.1" id="图层_1" xmlns="http://www.w3.org/2000/svg" xmlns:xlink="http://www.w3.org/1999/xlink" x="0px" y="0px"
	 width="378.47px" height="230.246px" viewBox="0 0 378.47 230.246" enable-background="new 0 0 378.47 230.246"
	 xml:space="preserve">
<line opacity="0.07" fill="none" stroke="#000000" stroke-miterlimit="10" x1="0.39" y1="229.93" x2="84.057" y2="126.021"/>
<line opacity="0.07" fill="none" stroke="#000000" stroke-miterlimit="10" x1="84.057" y1="126.021" x2="92.58" y2="229.928"/>
<line opacity="0.07" fill="none" stroke="#000000" stroke-miterlimit="10" x1="84.057" y1="126.021" x2="160.057" y2="229.928"/>
<line opacity="0.07" fill="none" stroke="#000000" stroke-miterlimit="10" x1="84.057" y1="126.021" x2="0.39" y2="59.581"/>
<line opacity="0.07" fill="none" stroke="#000000" stroke-miterlimit="10" x1="84.057" y1="126.021" x2="47.984" y2="0.452"/>
<line opacity="0.07" fill="none" stroke="#000000" stroke-miterlimit="10" x1="84.057" y1="126.021" x2="102.723" y2="0.452"/>
<line opacity="0.07" fill="none" stroke="#000000" stroke-miterlimit="10" x1="84.057" y1="126.021" x2="189.39" y2="41.354"/>
<line opacity="0.07" fill="none" stroke="#000000" stroke-miterlimit="10" x1="189.39" y1="41.354" x2="160.057" y2="229.928"/>
<line opacity="0.07" fill="none" stroke="#000000" stroke-miterlimit="10" x1="189.39" y1="41.354" x2="102.723" y2="0.452"/>
<line opacity="0.07" fill="none" stroke="#000000" stroke-miterlimit="10" x1="189.39" y1="41.354" x2="210.033" y2="3.354"/>
<line opacity="0.07" fill="none" stroke="#000000" stroke-miterlimit="10" x1="189.39" y1="41.354" x2="245.376" y2="126.021"/>
<line opacity="0.07" fill="none" stroke="#000000" stroke-miterlimit="10" x1="245.376" y1="126.021" x2="160.057" y2="229.928"/>
<line opacity="0.07" fill="none" stroke="#000000" stroke-miterlimit="10" x1="245.376" y1="126.021" x2="262.723" y2="229.928"/>
<line opacity="0.07" fill="none" stroke="#000000" stroke-miterlimit="10" x1="245.376" y1="126.021" x2="286.057" y2="3.354"/>
<line opacity="0.07" fill="none" stroke="#000000" stroke-miterlimit="10" x1="286.057" y1="3.354" x2="312.723" y2="182.687"/>
<line opacity="0.07" fill="none" stroke="#000000" stroke-miterlimit="10" x1="312.723" y1="182.687" x2="245.376" y2="126.021"/>
<line opacity="0.07" fill="none" stroke="#000000" stroke-miterlimit="10" x1="312.723" y1="182.687" x2="312.723" y2="229.928"/>
<line opacity="0.07" fill="none" stroke="#000000" stroke-miterlimit="10" x1="312.723" y1="182.687" x2="378.39" y2="172.021"/>
<line opacity="0.07" fill="none" stroke="#000000" stroke-miterlimit="10" x1="312.723" y1="182.687" x2="364.057" y2="0.451"/>
<g>
</g>
<g>
</g>
<g>
</g>
<g>
</g>
<g>
</g>
<g>
</g>
</svg>
