<?xml version="1.0" encoding="utf-8"?>
<!-- Generator: Adobe Illustrator 16.0.0, SVG Export Plug-In . SVG Version: 6.00 Build 0)  -->
<!DOCTYPE svg PUBLIC "-//W3C//DTD SVG 1.1//EN" "http://www.w3.org/Graphics/SVG/1.1/DTD/svg11.dtd">
<svg version="1.1" id="图层_1" xmlns="http://www.w3.org/2000/svg" xmlns:xlink="http://www.w3.org/1999/xlink" x="0px" y="0px"
	 width="262.001px" height="127.248px" viewBox="0 0 262.001 127.248" enable-background="new 0 0 262.001 127.248"
	 xml:space="preserve">
<g>
	<g>
		<line fill="none" stroke="#535353" stroke-width="2" stroke-miterlimit="10" x1="160.534" y1="56.5" x2="161.532" y2="56.541"/>
		
			<line fill="none" stroke="#535353" stroke-width="2" stroke-miterlimit="10" stroke-dasharray="1.8497,1.8497" x1="163.382" y1="56.613" x2="177.243" y2="57.164"/>
		<line fill="none" stroke="#535353" stroke-width="2" stroke-miterlimit="10" x1="178.167" y1="57.201" x2="179.167" y2="57.24"/>
		<g>
			<path fill="#535353" d="M183.388,57.408c-2.016,0.658-4.529,1.816-6.11,3.088l1.335-3.277l-1.07-3.375
				C179.017,55.236,181.431,56.591,183.388,57.408z"/>
		</g>
	</g>
</g>
<g>
	<path fill="#EEC7DE" d="M77.731,59.914c0,5.757-4.668,10.427-10.425,10.427H18.315c-5.757,0-10.425-4.67-10.425-10.427v-48.99
		C7.891,5.167,12.559,0.5,18.315,0.5h48.991c5.757,0,10.425,4.667,10.425,10.424V59.914z"/>
	<path fill="none" stroke="#7C287A" stroke-miterlimit="10" stroke-dasharray="2.971,2.971" d="M77.731,59.914
		c0,5.757-4.668,10.427-10.425,10.427H18.315c-5.757,0-10.425-4.67-10.425-10.427v-48.99C7.891,5.167,12.559,0.5,18.315,0.5h48.991
		c5.757,0,10.425,4.667,10.425,10.424V59.914z"/>
</g>
<path fill="#AB4E9E" stroke="#7C287A" stroke-miterlimit="10" stroke-dasharray="3" d="M73.777,55.954
	c0,5.823-4.455,10.543-9.951,10.543H22.044c-5.496,0-9.951-4.72-9.951-10.543l0,0c0-5.823,4.455-10.543,9.951-10.543h41.782
	C69.322,45.411,73.777,50.13,73.777,55.954L73.777,55.954z"/>
<g>
	<rect y="24.696" fill="none" width="85.622" height="13.725"/>
	<path fill="#942F8C" d="M19.747,31.497c-0.768,0-1.426-0.272-1.973-0.816c-0.544-0.547-0.816-1.204-0.816-1.973
		c0-0.771,0.272-1.429,0.816-1.973c0.547-0.547,1.205-0.82,1.973-0.82c0.633,0,1.201,0.192,1.703,0.578
		c0.099,0.078,0.158,0.18,0.176,0.305c0.016,0.128-0.016,0.242-0.094,0.344s-0.18,0.16-0.305,0.176
		c-0.127,0.016-0.242-0.015-0.344-0.09c-0.333-0.258-0.712-0.387-1.137-0.387c-0.513,0-0.952,0.183-1.316,0.547
		s-0.547,0.805-0.547,1.32c0,0.513,0.182,0.952,0.547,1.316s0.803,0.547,1.316,0.547c0.484,0,0.904-0.161,1.258-0.484
		c0.094-0.086,0.205-0.126,0.332-0.121s0.234,0.056,0.32,0.152c0.086,0.094,0.126,0.204,0.121,0.332s-0.055,0.234-0.148,0.32
		C21.096,31.254,20.468,31.497,19.747,31.497z"/>
	<path fill="#942F8C" d="M25.391,31.497c-0.773,0-1.434-0.274-1.98-0.824c-0.549-0.547-0.824-1.207-0.824-1.98
		s0.275-1.435,0.824-1.984c0.547-0.547,1.207-0.82,1.98-0.82s1.435,0.273,1.984,0.82c0.547,0.55,0.82,1.211,0.82,1.984
		s-0.273,1.434-0.82,1.98C26.826,31.222,26.165,31.497,25.391,31.497z M25.391,26.809c-0.518,0-0.961,0.184-1.328,0.551
		c-0.37,0.37-0.555,0.813-0.555,1.332s0.185,0.961,0.555,1.328c0.367,0.37,0.81,0.555,1.328,0.555s0.962-0.185,1.332-0.555
		c0.367-0.367,0.551-0.81,0.551-1.328s-0.184-0.962-0.551-1.332C26.354,26.993,25.909,26.809,25.391,26.809z"/>
	<path fill="#942F8C" d="M33.313,31.321h-0.004v-0.004L30.5,27.704v3.332c0,0.128-0.045,0.235-0.137,0.324
		c-0.088,0.091-0.197,0.137-0.324,0.137s-0.236-0.046-0.324-0.137c-0.091-0.089-0.137-0.196-0.137-0.324v-4.68
		c0-0.099,0.029-0.188,0.086-0.266c0.057-0.081,0.133-0.137,0.227-0.168c0.091-0.034,0.185-0.036,0.281-0.008
		c0.094,0.028,0.17,0.082,0.23,0.16l2.809,3.617v-3.336c0-0.128,0.044-0.235,0.133-0.324c0.091-0.091,0.201-0.137,0.328-0.137
		s0.236,0.046,0.324,0.137c0.091,0.089,0.137,0.196,0.137,0.324v4.688c0,0.005-0.001,0.013-0.004,0.023c0,0.011,0,0.017,0,0.02
		c0,0.005-0.001,0.013-0.004,0.023c0,0.011-0.001,0.019-0.004,0.023l-0.004,0.02c-0.002,0.013-0.005,0.021-0.008,0.023
		c0,0.003-0.002,0.009-0.008,0.02c-0.002,0.011-0.005,0.019-0.008,0.023l-0.008,0.02l-0.012,0.02
		c-0.002,0.005-0.006,0.013-0.012,0.023l-0.012,0.012c-0.002,0.005-0.008,0.013-0.016,0.023l-0.012,0.016
		c-0.002,0.003-0.008,0.008-0.016,0.016c-0.008,0.011-0.013,0.016-0.016,0.016c0,0.003-0.005,0.008-0.016,0.016
		c-0.008,0.008-0.014,0.013-0.02,0.016c0.008-0.005,0.006-0.004-0.004,0.004l-0.004,0.004c-0.021,0.016-0.041,0.028-0.059,0.039
		h-0.004c-0.021,0.011-0.042,0.02-0.063,0.027c-0.01,0.005-0.013,0.007-0.008,0.004c-0.021,0.008-0.043,0.013-0.066,0.016
		l-0.012,0.004c-0.023,0.003-0.045,0.004-0.066,0.004c-0.016,0-0.033-0.001-0.051-0.004c0.005,0.003,0.002,0.003-0.008,0
		c-0.016-0.003-0.029-0.005-0.039-0.008c0.002,0.003-0.002,0.001-0.016-0.004c-0.013-0.003-0.023-0.005-0.031-0.008
		c-0.002,0-0.008-0.003-0.016-0.008c-0.013-0.003-0.023-0.007-0.031-0.012c-0.005,0-0.01-0.003-0.016-0.008
		c-0.01-0.005-0.02-0.009-0.027-0.012c-0.008-0.005-0.013-0.009-0.016-0.012c-0.008-0.005-0.017-0.012-0.027-0.02
		c-0.008-0.005-0.013-0.009-0.016-0.012c-0.013-0.011-0.025-0.021-0.035-0.031l-0.004-0.004v-0.004
		c-0.01-0.011-0.016-0.016-0.016-0.016S33.321,31.332,33.313,31.321z"/>
	<path fill="#942F8C" d="M36.907,26.809h-1.16c-0.127,0-0.237-0.046-0.328-0.137c-0.088-0.089-0.133-0.196-0.133-0.324
		s0.044-0.235,0.133-0.324c0.091-0.091,0.201-0.137,0.328-0.137h3.246c0.125,0,0.233,0.046,0.324,0.137
		c0.088,0.089,0.133,0.196,0.133,0.324s-0.044,0.235-0.133,0.324c-0.091,0.091-0.199,0.137-0.324,0.137h-1.164v4.227
		c0,0.128-0.045,0.237-0.137,0.328c-0.088,0.089-0.197,0.133-0.324,0.133s-0.236-0.044-0.324-0.133
		c-0.091-0.091-0.137-0.2-0.137-0.328V26.809z"/>
	<path fill="#942F8C" d="M40.379,31.461c-0.117-0.05-0.201-0.133-0.25-0.25c-0.047-0.117-0.047-0.234,0-0.352l0.496-1.191v-0.004
		l1.438-3.469c0.005-0.013,0.012-0.026,0.02-0.039l0.008-0.02c0.008-0.011,0.013-0.017,0.016-0.02c0-0.003,0.004-0.009,0.012-0.02
		c0.008-0.008,0.013-0.013,0.016-0.016c0-0.003,0.004-0.008,0.012-0.016c0.01-0.011,0.016-0.017,0.016-0.02
		c0.002-0.003,0.008-0.007,0.016-0.012c0.01-0.011,0.017-0.016,0.02-0.016c-0.002,0,0.002-0.004,0.016-0.012
		c0.01-0.008,0.017-0.013,0.02-0.016l0.016-0.012c0.013-0.008,0.021-0.012,0.023-0.012c0.005-0.003,0.014-0.007,0.027-0.012
		c0.013-0.008,0.017-0.011,0.012-0.008s0,0,0.016-0.008c0.013-0.003,0.022-0.005,0.027-0.008c0.002,0,0.012-0.003,0.027-0.008
		l0.016-0.004c0.005,0,0.014-0.001,0.027-0.004l0.02-0.004c0.002,0,0.01,0,0.023,0c0.01,0,0.017,0,0.02,0c0.005,0,0.013,0,0.023,0
		h0.023l0.023,0.004l0.02,0.004c0.005,0,0.014,0.003,0.027,0.008c0.016,0.003,0.021,0.004,0.016,0.004
		c0.031,0.008,0.06,0.02,0.086,0.035c-0.002-0.003,0.002,0,0.016,0.008s0.021,0.013,0.023,0.016l0.016,0.012
		c0.01,0.008,0.017,0.013,0.02,0.016c0.002,0,0.008,0.004,0.016,0.012s0.014,0.013,0.02,0.016c0,0.003,0.004,0.008,0.012,0.016
		c0.01,0.011,0.016,0.017,0.016,0.02l0.012,0.016c0.01,0.011,0.016,0.017,0.016,0.02s0.004,0.009,0.012,0.02s0.012,0.017,0.012,0.02
		c0.008,0.013,0.014,0.026,0.02,0.039l1.438,3.469v0.004l0.496,1.191c0.047,0.117,0.047,0.234,0,0.352
		c-0.049,0.117-0.133,0.2-0.25,0.25c-0.057,0.023-0.116,0.035-0.176,0.035c-0.206,0-0.348-0.095-0.426-0.285l-0.375-0.906h-2.262
		l-0.375,0.906c-0.078,0.19-0.22,0.285-0.426,0.285c-0.06,0-0.09,0-0.09,0S40.437,31.485,40.379,31.461z M43.239,29.387
		l-0.754-1.813l-0.75,1.813H43.239z"/>
	<path fill="#942F8C" d="M46.434,31.497c-0.127,0-0.236-0.046-0.324-0.137c-0.091-0.089-0.137-0.196-0.137-0.324v-4.66
		c0-0.128,0.045-0.235,0.137-0.324c0.088-0.091,0.197-0.137,0.324-0.137s0.236,0.046,0.324,0.137
		c0.091,0.089,0.137,0.196,0.137,0.324v4.66c0,0.128-0.045,0.235-0.137,0.324C46.67,31.451,46.562,31.497,46.434,31.497z"/>
	<path fill="#942F8C" d="M52.317,31.321h-0.004v-0.004l-2.809-3.613v3.332c0,0.128-0.045,0.235-0.137,0.324
		c-0.088,0.091-0.197,0.137-0.324,0.137s-0.236-0.046-0.324-0.137c-0.091-0.089-0.137-0.196-0.137-0.324v-4.68
		c0-0.099,0.029-0.188,0.086-0.266c0.057-0.081,0.133-0.137,0.227-0.168c0.091-0.034,0.185-0.036,0.281-0.008
		c0.094,0.028,0.17,0.082,0.23,0.16l2.809,3.617v-3.336c0-0.128,0.044-0.235,0.133-0.324c0.091-0.091,0.201-0.137,0.328-0.137
		s0.236,0.046,0.324,0.137c0.091,0.089,0.137,0.196,0.137,0.324v4.688c0,0.005-0.001,0.013-0.004,0.023c0,0.011,0,0.017,0,0.02
		c0,0.005-0.001,0.013-0.004,0.023c0,0.011-0.001,0.019-0.004,0.023l-0.004,0.02c-0.002,0.013-0.005,0.021-0.008,0.023
		c0,0.003-0.002,0.009-0.008,0.02c-0.002,0.011-0.005,0.019-0.008,0.023l-0.008,0.02l-0.012,0.02
		c-0.002,0.005-0.006,0.013-0.012,0.023l-0.012,0.012c-0.002,0.005-0.008,0.013-0.016,0.023l-0.012,0.016
		c-0.002,0.003-0.008,0.008-0.016,0.016c-0.008,0.011-0.013,0.016-0.016,0.016c0,0.003-0.005,0.008-0.016,0.016
		c-0.008,0.008-0.014,0.013-0.02,0.016c0.008-0.005,0.006-0.004-0.004,0.004l-0.004,0.004c-0.021,0.016-0.041,0.028-0.059,0.039
		h-0.004c-0.021,0.011-0.042,0.02-0.063,0.027c-0.01,0.005-0.013,0.007-0.008,0.004c-0.021,0.008-0.043,0.013-0.066,0.016
		l-0.012,0.004c-0.023,0.003-0.045,0.004-0.066,0.004c-0.016,0-0.033-0.001-0.051-0.004c0.005,0.003,0.002,0.003-0.008,0
		c-0.016-0.003-0.029-0.005-0.039-0.008c0.002,0.003-0.002,0.001-0.016-0.004c-0.013-0.003-0.023-0.005-0.031-0.008
		c-0.002,0-0.008-0.003-0.016-0.008c-0.013-0.003-0.023-0.007-0.031-0.012c-0.005,0-0.01-0.003-0.016-0.008
		c-0.01-0.005-0.02-0.009-0.027-0.012c-0.008-0.005-0.013-0.009-0.016-0.012c-0.008-0.005-0.017-0.012-0.027-0.02
		c-0.008-0.005-0.013-0.009-0.016-0.012c-0.013-0.011-0.025-0.021-0.035-0.031l-0.004-0.004v-0.004
		c-0.01-0.011-0.016-0.016-0.016-0.016S52.325,31.332,52.317,31.321z"/>
	<path fill="#942F8C" d="M58.118,30.571c0.127,0,0.236,0.046,0.324,0.137c0.091,0.091,0.137,0.2,0.137,0.328
		s-0.045,0.235-0.137,0.324c-0.088,0.091-0.197,0.137-0.324,0.137H55.29c-0.127,0-0.236-0.046-0.324-0.137
		c-0.091-0.089-0.137-0.196-0.137-0.324v-4.684c0-0.13,0.045-0.239,0.137-0.328c0.088-0.091,0.197-0.137,0.324-0.137h0.004
		l2.824,0.008c0.127,0,0.237,0.046,0.328,0.137c0.088,0.091,0.133,0.2,0.133,0.328s-0.045,0.235-0.137,0.324
		c-0.088,0.091-0.197,0.137-0.324,0.137h-0.004l-2.359-0.008v1.418h1.703c0.127,0,0.237,0.044,0.328,0.133
		c0.091,0.091,0.137,0.2,0.137,0.328s-0.045,0.237-0.137,0.328c-0.091,0.089-0.201,0.133-0.328,0.133h-1.703v1.418H58.118z"/>
	<path fill="#942F8C" d="M63.602,27.516c0,0.344-0.107,0.655-0.32,0.934c-0.206,0.276-0.477,0.473-0.813,0.59l0.887,1.797
		c0.055,0.112,0.061,0.228,0.02,0.348c-0.039,0.12-0.116,0.208-0.23,0.266c-0.065,0.031-0.133,0.047-0.203,0.047
		c-0.19,0-0.327-0.086-0.41-0.258l-1.035-2.098h-0.793v1.863c0,0.125-0.045,0.233-0.137,0.324c-0.088,0.089-0.197,0.133-0.324,0.133
		c-0.125,0-0.233-0.044-0.324-0.133c-0.088-0.091-0.133-0.199-0.133-0.324v-4.656c0-0.128,0.044-0.235,0.133-0.324
		c0.091-0.091,0.199-0.137,0.324-0.137h1.617c0.482,0,0.892,0.159,1.23,0.477C63.432,26.681,63.602,27.066,63.602,27.516z
		 M61.891,28.223c0.219-0.008,0.406-0.079,0.563-0.215c0.154-0.138,0.23-0.302,0.23-0.492c0-0.198-0.081-0.366-0.242-0.504
		s-0.355-0.207-0.582-0.207h-1.156v1.418H61.891z"/>
	<path fill="#942F8C" d="M65.79,27.247c-0.12,0.042-0.237,0.036-0.352-0.016c-0.115-0.055-0.194-0.142-0.238-0.262
		c-0.042-0.12-0.037-0.237,0.016-0.352c0.055-0.114,0.142-0.194,0.262-0.238l1.203-0.438c0.151-0.052,0.292-0.032,0.422,0.059
		s0.195,0.216,0.195,0.375v4.66c0,0.128-0.044,0.235-0.133,0.324c-0.091,0.091-0.201,0.137-0.328,0.137s-0.236-0.046-0.324-0.137
		c-0.091-0.089-0.137-0.196-0.137-0.324v-4.004L65.79,27.247z"/>
</g>
<g>
	<rect x="1" y="52.111" fill="none" width="85.622" height="13.725"/>
	<path fill="#FFFFFF" d="M28.741,53.356c0.12,0.042,0.207,0.12,0.262,0.234s0.061,0.231,0.02,0.352l-1.637,4.66v0.004
		c-0.008,0.019-0.017,0.038-0.027,0.059c-0.002,0.005-0.005,0.009-0.008,0.012c-0.01,0.019-0.021,0.035-0.031,0.051
		c0.005-0.005,0.002-0.001-0.008,0.012c-0.013,0.013-0.026,0.026-0.039,0.039c-0.008,0.008-0.01,0.011-0.008,0.008
		c-0.013,0.013-0.029,0.026-0.047,0.039c0.005-0.003,0.002,0-0.008,0.008c-0.016,0.011-0.033,0.02-0.051,0.027l-0.008,0.004
		c-0.016,0.008-0.031,0.015-0.047,0.02c-0.01,0.005-0.013,0.007-0.008,0.004c-0.013,0.005-0.03,0.009-0.051,0.012
		c-0.021,0.005-0.027,0.007-0.02,0.004c-0.026,0.005-0.051,0.008-0.074,0.008s-0.048-0.003-0.074-0.008
		c0.008,0.003,0.001,0.001-0.02-0.004c-0.021-0.003-0.038-0.007-0.051-0.012c0.005,0.003,0.002,0.001-0.008-0.004
		c-0.016-0.005-0.031-0.012-0.047-0.02l-0.012-0.004c-0.016-0.008-0.031-0.017-0.047-0.027l-0.004-0.004l-0.004-0.004
		c-0.018-0.011-0.034-0.023-0.047-0.039c0,0.003-0.004,0-0.012-0.008c-0.013-0.013-0.025-0.026-0.035-0.039
		c-0.005-0.005-0.008-0.009-0.008-0.012c-0.01-0.016-0.021-0.032-0.031-0.051c-0.002-0.003-0.005-0.007-0.008-0.012
		c-0.01-0.021-0.02-0.04-0.027-0.059v-0.004l-1.637-4.66c-0.042-0.12-0.035-0.237,0.02-0.352s0.142-0.192,0.262-0.234
		s0.237-0.035,0.352,0.02s0.193,0.142,0.234,0.262l1.203,3.426l1.203-3.426c0.042-0.12,0.12-0.207,0.234-0.262
		s0.172-0.082,0.172-0.082S28.621,53.314,28.741,53.356z"/>
	<path fill="#FFFFFF" d="M32.659,58.911c-0.773,0-1.434-0.274-1.98-0.824c-0.549-0.547-0.824-1.207-0.824-1.98
		s0.275-1.435,0.824-1.984c0.547-0.547,1.207-0.82,1.98-0.82s1.435,0.273,1.984,0.82c0.547,0.55,0.82,1.211,0.82,1.984
		s-0.273,1.434-0.82,1.98C34.094,58.637,33.432,58.911,32.659,58.911z M32.659,54.224c-0.518,0-0.961,0.184-1.328,0.551
		c-0.37,0.37-0.555,0.813-0.555,1.332s0.185,0.961,0.555,1.328c0.367,0.37,0.81,0.555,1.328,0.555s0.962-0.185,1.332-0.555
		c0.367-0.367,0.551-0.81,0.551-1.328s-0.184-0.962-0.551-1.332C33.621,54.407,33.177,54.224,32.659,54.224z"/>
	<path fill="#FFFFFF" d="M37.315,53.31c0.127,0,0.236,0.046,0.324,0.137c0.091,0.089,0.137,0.196,0.137,0.324v4.219h2.066
		c0.127,0,0.237,0.046,0.328,0.137c0.088,0.089,0.133,0.196,0.133,0.324s-0.044,0.235-0.133,0.324
		c-0.091,0.091-0.201,0.137-0.328,0.137h-2.527c-0.127,0-0.236-0.046-0.324-0.137c-0.091-0.089-0.137-0.196-0.137-0.324v-4.68
		c0-0.128,0.045-0.235,0.137-0.324C37.079,53.355,37.188,53.31,37.315,53.31z"/>
	<path fill="#FFFFFF" d="M44.768,53.31c0.125,0,0.232,0.044,0.32,0.133s0.133,0.195,0.133,0.32v3.148
		c0,0.552-0.195,1.023-0.586,1.414s-0.861,0.586-1.41,0.586c-0.552,0-1.023-0.195-1.414-0.586s-0.586-0.862-0.586-1.414v-3.148
		c0-0.125,0.044-0.231,0.133-0.32s0.195-0.133,0.32-0.133s0.232,0.044,0.32,0.133s0.133,0.195,0.133,0.32v3.148
		c0,0.302,0.107,0.56,0.32,0.773s0.471,0.32,0.773,0.32c0.299,0,0.556-0.106,0.77-0.32s0.32-0.472,0.32-0.773v-3.148
		c0-0.125,0.044-0.231,0.133-0.32S44.643,53.31,44.768,53.31z"/>
	<path fill="#FFFFFF" d="M52.014,53.31c0.099,0.028,0.18,0.085,0.242,0.168c0.063,0.081,0.094,0.173,0.094,0.277v4.695
		c0,0.128-0.044,0.235-0.133,0.324c-0.091,0.091-0.201,0.137-0.328,0.137s-0.237-0.046-0.328-0.137
		c-0.088-0.089-0.133-0.196-0.133-0.324v-3.039l-1.457,2.406v0.004l-0.004,0.004l-0.004,0.004l-0.004,0.004
		c-0.008,0.013-0.013,0.022-0.016,0.027l-0.012,0.016c-0.01,0.011-0.017,0.017-0.02,0.02s-0.008,0.008-0.016,0.016
		s-0.013,0.013-0.016,0.016c-0.005,0.005-0.013,0.012-0.023,0.02l-0.012,0.012c-0.008,0.005-0.017,0.011-0.027,0.016
		c0,0.003-0.001,0.004-0.004,0.004l-0.004,0.004h-0.004c-0.005,0.005-0.014,0.011-0.027,0.016c-0.01,0.005-0.014,0.008-0.012,0.008
		c-0.002,0-0.01,0.003-0.023,0.008c-0.06,0.026-0.123,0.038-0.188,0.035h-0.008c0.005,0,0-0.001-0.016-0.004
		c-0.034-0.003-0.068-0.009-0.102-0.02c-0.013-0.003-0.018-0.004-0.016-0.004c0.005,0.003,0,0.001-0.016-0.004
		c-0.013-0.005-0.022-0.009-0.027-0.012c0.002,0,0-0.003-0.008-0.008c-0.013-0.005-0.023-0.011-0.031-0.016h-0.004l-0.004-0.004
		l-0.004-0.004c-0.01-0.005-0.02-0.012-0.027-0.02c0,0.003-0.004,0-0.012-0.008c-0.01-0.008-0.018-0.015-0.023-0.02
		c-0.002-0.003-0.008-0.008-0.016-0.016s-0.013-0.013-0.016-0.016c-0.002-0.005-0.009-0.012-0.02-0.02
		c-0.005-0.008-0.008-0.013-0.008-0.016c-0.005-0.005-0.012-0.015-0.02-0.027l-0.004-0.004c0-0.003-0.001-0.004-0.004-0.004v-0.004
		c0-0.003-0.001-0.004-0.004-0.004l-1.453-2.406v3.039c0,0.128-0.045,0.235-0.137,0.324c-0.091,0.091-0.201,0.137-0.328,0.137
		s-0.236-0.046-0.324-0.137c-0.091-0.089-0.137-0.196-0.137-0.324v-4.695c0-0.104,0.031-0.196,0.094-0.277
		c0.063-0.083,0.145-0.14,0.246-0.168c0.099-0.026,0.197-0.021,0.293,0.016c0.096,0.039,0.172,0.103,0.227,0.191l1.922,3.176
		l1.922-3.176c0.052-0.089,0.126-0.152,0.223-0.191c0.096-0.036,0.145-0.055,0.145-0.055S51.913,53.283,52.014,53.31z"/>
	<path fill="#FFFFFF" d="M57.331,57.985c0.127,0,0.236,0.046,0.324,0.137c0.091,0.091,0.137,0.2,0.137,0.328
		s-0.045,0.235-0.137,0.324c-0.088,0.091-0.197,0.137-0.324,0.137h-2.828c-0.127,0-0.236-0.046-0.324-0.137
		c-0.091-0.089-0.137-0.196-0.137-0.324v-4.684c0-0.13,0.045-0.239,0.137-0.328c0.088-0.091,0.197-0.137,0.324-0.137h0.004
		l2.824,0.008c0.127,0,0.237,0.046,0.328,0.137c0.088,0.091,0.133,0.2,0.133,0.328s-0.045,0.235-0.137,0.324
		c-0.088,0.091-0.197,0.137-0.324,0.137h-0.004l-2.359-0.008v1.418h1.703c0.127,0,0.237,0.044,0.328,0.133
		c0.091,0.091,0.137,0.2,0.137,0.328s-0.045,0.237-0.137,0.328c-0.091,0.089-0.201,0.133-0.328,0.133h-1.703v1.418H57.331z"/>
	<path fill="#FFFFFF" d="M59.858,54.661c-0.12,0.042-0.237,0.036-0.352-0.016c-0.115-0.055-0.194-0.142-0.238-0.262
		c-0.042-0.12-0.037-0.237,0.016-0.352c0.055-0.114,0.142-0.194,0.262-0.238l1.203-0.438c0.151-0.052,0.292-0.032,0.422,0.059
		s0.195,0.216,0.195,0.375v4.66c0,0.128-0.044,0.235-0.133,0.324c-0.091,0.091-0.201,0.137-0.328,0.137s-0.236-0.046-0.324-0.137
		c-0.091-0.089-0.137-0.196-0.137-0.324v-4.004L59.858,54.661z"/>
</g>
<g>
	<rect x="31.046" y="59.663" fill="none" width="26.436" height="49.02"/>
	<path fill="#BE1E2D" d="M42.929,85.983l-5.789,5.789l-2.32-2.32l5.789-5.789L34.82,77.85l2.32-2.297l5.789,5.789l5.813-5.789
		l2.297,2.32l-5.789,5.789l5.789,5.789l-2.32,2.32L42.929,85.983z"/>
</g>
<path fill="#EEC7DE" stroke="#7C287A" stroke-miterlimit="10" d="M253.11,60.604c0,5.757-4.668,10.427-10.426,10.427h-48.99
	c-5.758,0-10.426-4.67-10.426-10.427v-48.99c0-5.756,4.668-10.424,10.426-10.424h48.99c5.758,0,10.426,4.667,10.426,10.424V60.604z"
	/>
<path fill="#AB4E9E" stroke="#7C287A" stroke-miterlimit="10" d="M249.155,56.644c0,5.823-4.455,10.543-9.949,10.543h-41.783
	c-5.496,0-9.951-4.72-9.951-10.543l0,0c0-5.823,4.455-10.543,9.951-10.543h41.783C244.7,46.101,249.155,50.821,249.155,56.644
	L249.155,56.644z"/>
<g>
	<rect x="175.378" y="25.386" fill="none" width="85.623" height="13.725"/>
	<path fill="#942F8C" d="M195.125,32.187c-0.769,0-1.426-0.272-1.973-0.816c-0.544-0.547-0.816-1.204-0.816-1.973
		c0-0.771,0.272-1.429,0.816-1.973c0.547-0.547,1.204-0.82,1.973-0.82c0.633,0,1.2,0.192,1.703,0.578
		c0.099,0.078,0.157,0.18,0.176,0.305c0.016,0.128-0.016,0.242-0.094,0.344s-0.18,0.16-0.305,0.176
		c-0.128,0.016-0.242-0.015-0.344-0.09c-0.333-0.258-0.712-0.387-1.137-0.387c-0.513,0-0.952,0.183-1.316,0.547
		s-0.547,0.805-0.547,1.32c0,0.513,0.183,0.952,0.547,1.316s0.804,0.547,1.316,0.547c0.484,0,0.903-0.161,1.258-0.484
		c0.094-0.086,0.204-0.126,0.332-0.121s0.234,0.056,0.32,0.152c0.086,0.094,0.126,0.204,0.121,0.332s-0.055,0.234-0.148,0.32
		C196.474,31.945,195.847,32.187,195.125,32.187z"/>
	<path fill="#942F8C" d="M200.77,32.187c-0.773,0-1.434-0.274-1.98-0.824c-0.55-0.547-0.824-1.207-0.824-1.98
		s0.274-1.435,0.824-1.984c0.547-0.547,1.207-0.82,1.98-0.82s1.435,0.273,1.984,0.82c0.547,0.55,0.82,1.211,0.82,1.984
		s-0.273,1.434-0.82,1.98C202.204,31.913,201.543,32.187,200.77,32.187z M200.77,27.5c-0.519,0-0.961,0.184-1.328,0.551
		c-0.37,0.37-0.555,0.813-0.555,1.332s0.185,0.961,0.555,1.328c0.367,0.37,0.81,0.555,1.328,0.555s0.962-0.185,1.332-0.555
		c0.367-0.367,0.551-0.81,0.551-1.328s-0.184-0.962-0.551-1.332C201.731,27.683,201.288,27.5,200.77,27.5z"/>
	<path fill="#942F8C" d="M208.691,32.011h-0.004v-0.004l-2.809-3.613v3.332c0,0.128-0.046,0.235-0.137,0.324
		c-0.089,0.091-0.196,0.137-0.324,0.137s-0.235-0.046-0.324-0.137c-0.091-0.089-0.137-0.196-0.137-0.324v-4.68
		c0-0.099,0.028-0.188,0.086-0.266c0.058-0.081,0.133-0.137,0.227-0.168c0.091-0.034,0.185-0.036,0.281-0.008
		c0.094,0.028,0.171,0.082,0.23,0.16l2.809,3.617v-3.336c0-0.128,0.044-0.235,0.133-0.324c0.091-0.091,0.2-0.137,0.328-0.137
		s0.235,0.046,0.324,0.137c0.091,0.089,0.137,0.196,0.137,0.324v4.688c0,0.005-0.001,0.013-0.004,0.023c0,0.011,0,0.017,0,0.02
		c0,0.005-0.001,0.013-0.004,0.023c0,0.011-0.001,0.019-0.004,0.023l-0.004,0.02c-0.003,0.013-0.005,0.021-0.008,0.023
		c0,0.003-0.003,0.009-0.008,0.02c-0.003,0.011-0.005,0.019-0.008,0.023l-0.008,0.02l-0.012,0.02
		c-0.003,0.005-0.007,0.013-0.012,0.023l-0.012,0.012c-0.003,0.005-0.008,0.013-0.016,0.023l-0.012,0.016
		c-0.003,0.003-0.008,0.008-0.016,0.016c-0.008,0.011-0.013,0.016-0.016,0.016c0,0.003-0.005,0.008-0.016,0.016
		c-0.008,0.008-0.015,0.013-0.02,0.016c0.008-0.005,0.007-0.004-0.004,0.004l-0.004,0.004c-0.021,0.016-0.04,0.028-0.059,0.039
		h-0.004c-0.021,0.011-0.042,0.02-0.063,0.027c-0.011,0.005-0.013,0.007-0.008,0.004c-0.021,0.008-0.043,0.013-0.066,0.016
		l-0.012,0.004c-0.023,0.003-0.046,0.004-0.066,0.004c-0.016,0-0.032-0.001-0.051-0.004c0.005,0.003,0.003,0.003-0.008,0
		c-0.016-0.003-0.028-0.005-0.039-0.008c0.003,0.003-0.003,0.001-0.016-0.004c-0.013-0.003-0.023-0.005-0.031-0.008
		c-0.003,0-0.008-0.003-0.016-0.008c-0.013-0.003-0.023-0.007-0.031-0.012c-0.005,0-0.011-0.003-0.016-0.008
		c-0.011-0.005-0.02-0.009-0.027-0.012c-0.008-0.005-0.013-0.009-0.016-0.012c-0.008-0.005-0.017-0.012-0.027-0.02
		c-0.008-0.005-0.013-0.009-0.016-0.012c-0.013-0.011-0.024-0.021-0.035-0.031l-0.004-0.004v-0.004
		c-0.011-0.011-0.016-0.016-0.016-0.016S208.699,32.022,208.691,32.011z"/>
	<path fill="#942F8C" d="M212.285,27.5h-1.16c-0.128,0-0.237-0.046-0.328-0.137c-0.089-0.089-0.133-0.196-0.133-0.324
		s0.044-0.235,0.133-0.324c0.091-0.091,0.2-0.137,0.328-0.137h3.246c0.125,0,0.233,0.046,0.324,0.137
		c0.089,0.089,0.133,0.196,0.133,0.324s-0.044,0.235-0.133,0.324c-0.091,0.091-0.199,0.137-0.324,0.137h-1.164v4.227
		c0,0.128-0.046,0.237-0.137,0.328c-0.089,0.089-0.196,0.133-0.324,0.133s-0.235-0.044-0.324-0.133
		c-0.091-0.091-0.137-0.2-0.137-0.328V27.5z"/>
	<path fill="#942F8C" d="M215.758,32.152c-0.117-0.05-0.2-0.133-0.25-0.25c-0.047-0.117-0.047-0.234,0-0.352l0.496-1.191v-0.004
		l1.438-3.469c0.005-0.013,0.012-0.026,0.02-0.039l0.008-0.02c0.008-0.011,0.013-0.017,0.016-0.02c0-0.003,0.004-0.009,0.012-0.02
		c0.008-0.008,0.013-0.013,0.016-0.016c0-0.003,0.004-0.008,0.012-0.016c0.011-0.011,0.016-0.017,0.016-0.02
		c0.003-0.003,0.008-0.007,0.016-0.012c0.011-0.011,0.017-0.016,0.02-0.016c-0.003,0,0.003-0.004,0.016-0.012
		c0.011-0.008,0.017-0.013,0.02-0.016l0.016-0.012c0.013-0.008,0.021-0.012,0.023-0.012c0.005-0.003,0.015-0.007,0.027-0.012
		c0.013-0.008,0.017-0.011,0.012-0.008s0,0,0.016-0.008c0.013-0.003,0.022-0.005,0.027-0.008c0.003,0,0.012-0.003,0.027-0.008
		l0.016-0.004c0.005,0,0.015-0.001,0.027-0.004l0.02-0.004c0.003,0,0.011,0,0.023,0c0.011,0,0.017,0,0.02,0c0.005,0,0.013,0,0.023,0
		h0.023l0.023,0.004l0.02,0.004c0.005,0,0.015,0.003,0.027,0.008c0.016,0.003,0.021,0.004,0.016,0.004
		c0.031,0.008,0.06,0.02,0.086,0.035c-0.003-0.003,0.003,0,0.016,0.008s0.021,0.013,0.023,0.016l0.016,0.012
		c0.011,0.008,0.017,0.013,0.02,0.016c0.003,0,0.008,0.004,0.016,0.012s0.015,0.013,0.02,0.016c0,0.003,0.004,0.008,0.012,0.016
		c0.011,0.011,0.016,0.017,0.016,0.02l0.012,0.016c0.011,0.011,0.016,0.017,0.016,0.02s0.004,0.009,0.012,0.02
		s0.012,0.017,0.012,0.02c0.008,0.013,0.015,0.026,0.02,0.039l1.438,3.469v0.004l0.496,1.191c0.047,0.117,0.047,0.234,0,0.352
		c-0.05,0.117-0.133,0.2-0.25,0.25c-0.058,0.023-0.116,0.035-0.176,0.035c-0.206,0-0.348-0.095-0.426-0.285l-0.375-0.906h-2.262
		l-0.375,0.906c-0.078,0.19-0.22,0.285-0.426,0.285c-0.06,0-0.09,0-0.09,0S215.815,32.175,215.758,32.152z M218.617,30.078
		l-0.754-1.813l-0.75,1.813H218.617z"/>
	<path fill="#942F8C" d="M221.813,32.187c-0.128,0-0.235-0.046-0.324-0.137c-0.091-0.089-0.137-0.196-0.137-0.324v-4.66
		c0-0.128,0.046-0.235,0.137-0.324c0.089-0.091,0.196-0.137,0.324-0.137s0.235,0.046,0.324,0.137
		c0.091,0.089,0.137,0.196,0.137,0.324v4.66c0,0.128-0.046,0.235-0.137,0.324C222.048,32.141,221.94,32.187,221.813,32.187z"/>
	<path fill="#942F8C" d="M227.695,32.011h-0.004v-0.004l-2.809-3.613v3.332c0,0.128-0.046,0.235-0.137,0.324
		c-0.089,0.091-0.196,0.137-0.324,0.137s-0.235-0.046-0.324-0.137c-0.091-0.089-0.137-0.196-0.137-0.324v-4.68
		c0-0.099,0.028-0.188,0.086-0.266c0.058-0.081,0.133-0.137,0.227-0.168c0.091-0.034,0.185-0.036,0.281-0.008
		c0.094,0.028,0.171,0.082,0.23,0.16l2.809,3.617v-3.336c0-0.128,0.044-0.235,0.133-0.324c0.091-0.091,0.2-0.137,0.328-0.137
		s0.235,0.046,0.324,0.137c0.091,0.089,0.137,0.196,0.137,0.324v4.688c0,0.005-0.001,0.013-0.004,0.023c0,0.011,0,0.017,0,0.02
		c0,0.005-0.001,0.013-0.004,0.023c0,0.011-0.001,0.019-0.004,0.023l-0.004,0.02c-0.003,0.013-0.005,0.021-0.008,0.023
		c0,0.003-0.003,0.009-0.008,0.02c-0.003,0.011-0.005,0.019-0.008,0.023l-0.008,0.02l-0.012,0.02
		c-0.003,0.005-0.007,0.013-0.012,0.023l-0.012,0.012c-0.003,0.005-0.008,0.013-0.016,0.023l-0.012,0.016
		c-0.003,0.003-0.008,0.008-0.016,0.016c-0.008,0.011-0.013,0.016-0.016,0.016c0,0.003-0.005,0.008-0.016,0.016
		c-0.008,0.008-0.015,0.013-0.02,0.016c0.008-0.005,0.007-0.004-0.004,0.004l-0.004,0.004c-0.021,0.016-0.04,0.028-0.059,0.039
		h-0.004c-0.021,0.011-0.042,0.02-0.063,0.027c-0.011,0.005-0.013,0.007-0.008,0.004c-0.021,0.008-0.043,0.013-0.066,0.016
		l-0.012,0.004c-0.023,0.003-0.046,0.004-0.066,0.004c-0.016,0-0.032-0.001-0.051-0.004c0.005,0.003,0.003,0.003-0.008,0
		c-0.016-0.003-0.028-0.005-0.039-0.008c0.003,0.003-0.003,0.001-0.016-0.004c-0.013-0.003-0.023-0.005-0.031-0.008
		c-0.003,0-0.008-0.003-0.016-0.008c-0.013-0.003-0.023-0.007-0.031-0.012c-0.005,0-0.011-0.003-0.016-0.008
		c-0.011-0.005-0.02-0.009-0.027-0.012c-0.008-0.005-0.013-0.009-0.016-0.012c-0.008-0.005-0.017-0.012-0.027-0.02
		c-0.008-0.005-0.013-0.009-0.016-0.012c-0.013-0.011-0.024-0.021-0.035-0.031l-0.004-0.004v-0.004
		c-0.011-0.011-0.016-0.016-0.016-0.016S227.703,32.022,227.695,32.011z"/>
	<path fill="#942F8C" d="M233.496,31.261c0.128,0,0.235,0.046,0.324,0.137c0.091,0.091,0.137,0.2,0.137,0.328
		s-0.046,0.235-0.137,0.324c-0.089,0.091-0.196,0.137-0.324,0.137h-2.828c-0.128,0-0.235-0.046-0.324-0.137
		c-0.091-0.089-0.137-0.196-0.137-0.324v-4.684c0-0.13,0.046-0.239,0.137-0.328c0.089-0.091,0.196-0.137,0.324-0.137h0.004
		l2.824,0.008c0.128,0,0.237,0.046,0.328,0.137c0.089,0.091,0.133,0.2,0.133,0.328s-0.046,0.235-0.137,0.324
		c-0.089,0.091-0.196,0.137-0.324,0.137h-0.004l-2.359-0.008v1.418h1.703c0.128,0,0.237,0.044,0.328,0.133
		c0.091,0.091,0.137,0.2,0.137,0.328s-0.046,0.237-0.137,0.328c-0.091,0.089-0.2,0.133-0.328,0.133h-1.703v1.418H233.496z"/>
	<path fill="#942F8C" d="M238.98,28.207c0,0.344-0.106,0.655-0.32,0.934c-0.206,0.276-0.477,0.473-0.813,0.59l0.887,1.797
		c0.055,0.112,0.062,0.228,0.02,0.348c-0.039,0.12-0.116,0.208-0.23,0.266c-0.065,0.031-0.133,0.047-0.203,0.047
		c-0.19,0-0.327-0.086-0.41-0.258l-1.035-2.098h-0.793v1.863c0,0.125-0.046,0.233-0.137,0.324c-0.089,0.089-0.196,0.133-0.324,0.133
		c-0.125,0-0.233-0.044-0.324-0.133c-0.089-0.091-0.133-0.199-0.133-0.324v-4.656c0-0.128,0.044-0.235,0.133-0.324
		c0.091-0.091,0.199-0.137,0.324-0.137h1.617c0.481,0,0.892,0.159,1.23,0.477C238.81,27.372,238.98,27.756,238.98,28.207z
		 M237.27,28.914c0.219-0.008,0.406-0.079,0.563-0.215c0.153-0.138,0.23-0.302,0.23-0.492c0-0.198-0.081-0.366-0.242-0.504
		s-0.355-0.207-0.582-0.207h-1.156v1.418H237.27z"/>
	<path fill="#942F8C" d="M243.652,31.726c0,0.128-0.046,0.235-0.137,0.324c-0.089,0.091-0.196,0.137-0.324,0.137h-2.355
		c-0.185,0-0.32-0.082-0.406-0.246s-0.077-0.323,0.027-0.477l2.082-3.027c0.031-0.078,0.047-0.16,0.047-0.246
		c0-0.19-0.067-0.353-0.203-0.488c-0.136-0.133-0.298-0.199-0.488-0.199c-0.188,0-0.349,0.066-0.484,0.199
		c-0.136,0.136-0.203,0.298-0.203,0.488c0,0.016,0.001,0.031,0.004,0.047c0.008,0.128-0.031,0.238-0.117,0.332
		c-0.083,0.097-0.188,0.148-0.316,0.156s-0.238-0.03-0.332-0.113c-0.097-0.083-0.148-0.188-0.156-0.316
		c-0.003-0.036-0.004-0.071-0.004-0.105c0-0.445,0.157-0.825,0.473-1.141s0.694-0.473,1.137-0.473c0.445,0,0.825,0.157,1.141,0.473
		s0.473,0.695,0.473,1.141c0,0.229-0.047,0.448-0.141,0.656c-0.011,0.026-0.023,0.051-0.039,0.074l-1.613,2.344h1.477
		c0.128,0,0.235,0.044,0.324,0.133C243.606,31.489,243.652,31.598,243.652,31.726z"/>
</g>
<g>
	<rect x="176.378" y="52.801" fill="none" width="85.623" height="13.725"/>
	<path fill="#FFFFFF" d="M204.119,54.047c0.12,0.042,0.207,0.12,0.262,0.234s0.062,0.231,0.02,0.352l-1.637,4.66v0.004
		c-0.008,0.019-0.017,0.038-0.027,0.059c-0.003,0.005-0.005,0.009-0.008,0.012c-0.011,0.019-0.021,0.035-0.031,0.051
		c0.005-0.005,0.003-0.001-0.008,0.012c-0.013,0.013-0.026,0.026-0.039,0.039c-0.008,0.008-0.011,0.011-0.008,0.008
		c-0.013,0.013-0.028,0.026-0.047,0.039c0.005-0.003,0.003,0-0.008,0.008c-0.016,0.011-0.032,0.02-0.051,0.027l-0.008,0.004
		c-0.016,0.008-0.031,0.015-0.047,0.02c-0.011,0.005-0.013,0.007-0.008,0.004c-0.013,0.005-0.03,0.009-0.051,0.012
		c-0.021,0.005-0.027,0.007-0.02,0.004c-0.026,0.005-0.051,0.008-0.074,0.008s-0.048-0.003-0.074-0.008
		c0.008,0.003,0.001,0.001-0.02-0.004c-0.021-0.003-0.038-0.007-0.051-0.012c0.005,0.003,0.003,0.001-0.008-0.004
		c-0.016-0.005-0.031-0.012-0.047-0.02l-0.012-0.004c-0.016-0.008-0.031-0.017-0.047-0.027l-0.004-0.004l-0.004-0.004
		c-0.019-0.011-0.034-0.023-0.047-0.039c0,0.003-0.004,0-0.012-0.008c-0.013-0.013-0.024-0.026-0.035-0.039
		c-0.005-0.005-0.008-0.009-0.008-0.012c-0.011-0.016-0.021-0.032-0.031-0.051c-0.003-0.003-0.005-0.007-0.008-0.012
		c-0.011-0.021-0.02-0.04-0.027-0.059v-0.004l-1.637-4.66c-0.042-0.12-0.035-0.237,0.02-0.352s0.142-0.192,0.262-0.234
		s0.237-0.035,0.352,0.02s0.192,0.142,0.234,0.262l1.203,3.426l1.203-3.426c0.042-0.12,0.12-0.207,0.234-0.262
		s0.172-0.082,0.172-0.082S203.999,54.005,204.119,54.047z"/>
	<path fill="#FFFFFF" d="M208.037,59.602c-0.773,0-1.434-0.274-1.98-0.824c-0.55-0.547-0.824-1.207-0.824-1.98
		s0.274-1.435,0.824-1.984c0.547-0.547,1.207-0.82,1.98-0.82s1.435,0.273,1.984,0.82c0.547,0.55,0.82,1.211,0.82,1.984
		s-0.273,1.434-0.82,1.98C209.472,59.327,208.811,59.602,208.037,59.602z M208.037,54.914c-0.519,0-0.961,0.184-1.328,0.551
		c-0.37,0.37-0.555,0.813-0.555,1.332s0.185,0.961,0.555,1.328c0.367,0.37,0.81,0.555,1.328,0.555s0.962-0.185,1.332-0.555
		c0.367-0.367,0.551-0.81,0.551-1.328s-0.184-0.962-0.551-1.332C208.999,55.098,208.556,54.914,208.037,54.914z"/>
	<path fill="#FFFFFF" d="M212.693,54c0.128,0,0.235,0.046,0.324,0.137c0.091,0.089,0.137,0.196,0.137,0.324v4.219h2.066
		c0.128,0,0.237,0.046,0.328,0.137c0.089,0.089,0.133,0.196,0.133,0.324s-0.044,0.235-0.133,0.324
		c-0.091,0.091-0.2,0.137-0.328,0.137h-2.527c-0.128,0-0.235-0.046-0.324-0.137c-0.091-0.089-0.137-0.196-0.137-0.324v-4.68
		c0-0.128,0.046-0.235,0.137-0.324C212.458,54.046,212.565,54,212.693,54z"/>
	<path fill="#FFFFFF" d="M220.146,54c0.125,0,0.231,0.044,0.32,0.133s0.133,0.195,0.133,0.32v3.148c0,0.552-0.195,1.023-0.586,1.414
		s-0.86,0.586-1.41,0.586c-0.552,0-1.023-0.195-1.414-0.586s-0.586-0.862-0.586-1.414v-3.148c0-0.125,0.044-0.231,0.133-0.32
		S216.932,54,217.057,54s0.231,0.044,0.32,0.133s0.133,0.195,0.133,0.32v3.148c0,0.302,0.106,0.56,0.32,0.773s0.472,0.32,0.773,0.32
		c0.3,0,0.556-0.106,0.77-0.32s0.32-0.472,0.32-0.773v-3.148c0-0.125,0.044-0.231,0.133-0.32S220.021,54,220.146,54z"/>
	<path fill="#FFFFFF" d="M227.393,54c0.099,0.028,0.18,0.085,0.242,0.168c0.063,0.081,0.094,0.173,0.094,0.277v4.695
		c0,0.128-0.044,0.235-0.133,0.324c-0.091,0.091-0.2,0.137-0.328,0.137s-0.237-0.046-0.328-0.137
		c-0.089-0.089-0.133-0.196-0.133-0.324v-3.039l-1.457,2.406v0.004l-0.004,0.004l-0.004,0.004l-0.004,0.004
		c-0.008,0.013-0.013,0.022-0.016,0.027l-0.012,0.016c-0.011,0.011-0.017,0.017-0.02,0.02s-0.008,0.008-0.016,0.016
		s-0.013,0.013-0.016,0.016c-0.005,0.005-0.013,0.012-0.023,0.02l-0.012,0.012c-0.008,0.005-0.017,0.011-0.027,0.016
		c0,0.003-0.001,0.004-0.004,0.004l-0.004,0.004h-0.004c-0.005,0.005-0.015,0.011-0.027,0.016c-0.011,0.005-0.015,0.008-0.012,0.008
		c-0.003,0-0.011,0.003-0.023,0.008c-0.06,0.026-0.122,0.038-0.188,0.035h-0.008c0.005,0,0-0.001-0.016-0.004
		c-0.034-0.003-0.067-0.009-0.102-0.02c-0.013-0.003-0.019-0.004-0.016-0.004c0.005,0.003,0,0.001-0.016-0.004
		c-0.013-0.005-0.022-0.009-0.027-0.012c0.003,0,0-0.003-0.008-0.008c-0.013-0.005-0.023-0.011-0.031-0.016h-0.004l-0.004-0.004
		l-0.004-0.004c-0.011-0.005-0.02-0.012-0.027-0.02c0,0.003-0.004,0-0.012-0.008c-0.011-0.008-0.019-0.015-0.023-0.02
		c-0.003-0.003-0.008-0.008-0.016-0.016s-0.013-0.013-0.016-0.016c-0.003-0.005-0.009-0.012-0.02-0.02
		c-0.005-0.008-0.008-0.013-0.008-0.016c-0.005-0.005-0.012-0.015-0.02-0.027l-0.004-0.004c0-0.003-0.001-0.004-0.004-0.004v-0.004
		c0-0.003-0.001-0.004-0.004-0.004l-1.453-2.406v3.039c0,0.128-0.046,0.235-0.137,0.324c-0.091,0.091-0.2,0.137-0.328,0.137
		s-0.235-0.046-0.324-0.137c-0.091-0.089-0.137-0.196-0.137-0.324v-4.695c0-0.104,0.031-0.196,0.094-0.277
		c0.063-0.083,0.145-0.14,0.246-0.168c0.099-0.026,0.196-0.021,0.293,0.016c0.097,0.039,0.172,0.103,0.227,0.191l1.922,3.176
		l1.922-3.176c0.052-0.089,0.126-0.152,0.223-0.191c0.097-0.036,0.145-0.055,0.145-0.055S227.291,53.974,227.393,54z"/>
	<path fill="#FFFFFF" d="M232.709,58.676c0.128,0,0.235,0.046,0.324,0.137c0.091,0.091,0.137,0.2,0.137,0.328
		s-0.046,0.235-0.137,0.324c-0.089,0.091-0.196,0.137-0.324,0.137h-2.828c-0.128,0-0.235-0.046-0.324-0.137
		c-0.091-0.089-0.137-0.196-0.137-0.324v-4.684c0-0.13,0.046-0.239,0.137-0.328c0.089-0.091,0.196-0.137,0.324-0.137h0.004
		L232.709,54c0.128,0,0.237,0.046,0.328,0.137c0.089,0.091,0.133,0.2,0.133,0.328s-0.046,0.235-0.137,0.324
		c-0.089,0.091-0.196,0.137-0.324,0.137h-0.004l-2.359-0.008v1.418h1.703c0.128,0,0.237,0.044,0.328,0.133
		c0.091,0.091,0.137,0.2,0.137,0.328s-0.046,0.237-0.137,0.328c-0.091,0.089-0.2,0.133-0.328,0.133h-1.703v1.418H232.709z"/>
	<path fill="#FFFFFF" d="M237.721,59.141c0,0.128-0.046,0.235-0.137,0.324c-0.089,0.091-0.196,0.137-0.324,0.137h-2.355
		c-0.185,0-0.32-0.082-0.406-0.246s-0.077-0.323,0.027-0.477l2.082-3.027c0.031-0.078,0.047-0.16,0.047-0.246
		c0-0.19-0.067-0.353-0.203-0.488c-0.136-0.133-0.298-0.199-0.488-0.199c-0.188,0-0.349,0.066-0.484,0.199
		c-0.136,0.136-0.203,0.298-0.203,0.488c0,0.016,0.001,0.031,0.004,0.047c0.008,0.128-0.031,0.238-0.117,0.332
		c-0.083,0.097-0.188,0.148-0.316,0.156s-0.238-0.03-0.332-0.113c-0.097-0.083-0.148-0.188-0.156-0.316
		c-0.003-0.036-0.004-0.071-0.004-0.105c0-0.445,0.157-0.825,0.473-1.141s0.694-0.473,1.137-0.473c0.445,0,0.825,0.157,1.141,0.473
		s0.473,0.695,0.473,1.141c0,0.229-0.047,0.448-0.141,0.656c-0.011,0.026-0.023,0.051-0.039,0.074l-1.613,2.344h1.477
		c0.128,0,0.235,0.044,0.324,0.133C237.675,58.903,237.721,59.013,237.721,59.141z"/>
</g>
<path fill="#AB4E9E" stroke="#7C287A" stroke-miterlimit="10" d="M162.534,56.954c0,5.823-4.455,10.543-9.951,10.543h-41.782
	c-5.496,0-9.951-4.72-9.951-10.543l0,0c0-5.823,4.455-10.543,9.951-10.543h41.782C158.079,46.411,162.534,51.13,162.534,56.954
	L162.534,56.954z"/>
<g>
	<rect x="107.107" y="52.771" fill="none" width="49.17" height="13.725"/>
	<path fill="#FFFFFF" d="M116.56,59.571c-0.127,0-0.236-0.046-0.324-0.137c-0.091-0.089-0.137-0.196-0.137-0.324v-4.668
		c0-0.125,0.044-0.233,0.133-0.324c0.091-0.089,0.199-0.134,0.324-0.137l1.641-0.008c0.49,0,0.904,0.156,1.242,0.469
		c0.336,0.313,0.504,0.695,0.504,1.148c0,0.438-0.16,0.816-0.48,1.137c0.385,0.317,0.578,0.72,0.578,1.207
		c0,0.45-0.172,0.836-0.516,1.156c-0.341,0.32-0.752,0.48-1.234,0.48H116.56z M117.021,56.321h1.18c0.221,0,0.414-0.071,0.578-0.215
		c0.162-0.146,0.242-0.317,0.242-0.516c0-0.195-0.08-0.359-0.238-0.492c-0.159-0.136-0.353-0.203-0.582-0.203l-1.18,0.008V56.321z
		 M117.021,58.649h1.27c0.229,0,0.424-0.07,0.586-0.211c0.162-0.138,0.242-0.306,0.242-0.504c0-0.192-0.08-0.355-0.238-0.488
		c-0.159-0.136-0.353-0.203-0.582-0.203c-0.013,0-0.025,0-0.035,0c-0.021,0-0.042,0-0.063,0h-1.18V58.649z"/>
	<path fill="#FFFFFF" d="M121.321,59.536c-0.117-0.05-0.201-0.133-0.25-0.25c-0.047-0.117-0.047-0.234,0-0.352l0.496-1.191v-0.004
		l1.438-3.469c0.005-0.013,0.012-0.026,0.02-0.039l0.008-0.02c0.008-0.011,0.013-0.017,0.016-0.02c0-0.003,0.004-0.009,0.012-0.02
		c0.008-0.008,0.013-0.013,0.016-0.016c0-0.003,0.004-0.008,0.012-0.016c0.01-0.011,0.016-0.017,0.016-0.02
		c0.002-0.003,0.008-0.007,0.016-0.012c0.01-0.011,0.017-0.016,0.02-0.016c-0.002,0,0.002-0.004,0.016-0.012
		c0.01-0.008,0.017-0.013,0.02-0.016l0.016-0.012c0.013-0.008,0.021-0.012,0.023-0.012c0.005-0.003,0.014-0.007,0.027-0.012
		c0.013-0.008,0.017-0.011,0.012-0.008s0,0,0.016-0.008c0.013-0.003,0.022-0.005,0.027-0.008c0.002,0,0.012-0.003,0.027-0.008
		l0.016-0.004c0.005,0,0.014-0.001,0.027-0.004l0.02-0.004c0.002,0,0.01,0,0.023,0c0.01,0,0.017,0,0.02,0c0.005,0,0.013,0,0.023,0
		h0.023l0.023,0.004l0.02,0.004c0.005,0,0.014,0.003,0.027,0.008c0.016,0.003,0.021,0.004,0.016,0.004
		c0.031,0.008,0.06,0.02,0.086,0.035c-0.002-0.003,0.002,0,0.016,0.008s0.021,0.013,0.023,0.016l0.016,0.012
		c0.01,0.008,0.017,0.013,0.02,0.016c0.002,0,0.008,0.004,0.016,0.012s0.014,0.013,0.02,0.016c0,0.003,0.004,0.008,0.012,0.016
		c0.01,0.011,0.016,0.017,0.016,0.02l0.012,0.016c0.01,0.011,0.016,0.017,0.016,0.02s0.004,0.009,0.012,0.02s0.012,0.017,0.012,0.02
		c0.008,0.013,0.014,0.026,0.02,0.039l1.438,3.469v0.004l0.496,1.191c0.047,0.117,0.047,0.234,0,0.352
		c-0.049,0.117-0.133,0.2-0.25,0.25c-0.057,0.023-0.116,0.035-0.176,0.035c-0.206,0-0.348-0.095-0.426-0.285l-0.375-0.906h-2.262
		l-0.375,0.906c-0.078,0.19-0.22,0.285-0.426,0.285c-0.06,0-0.09,0-0.09,0S121.378,59.56,121.321,59.536z M124.181,57.462
		l-0.754-1.813l-0.75,1.813H124.181z"/>
	<path fill="#FFFFFF" d="M129.341,59.571c-0.768,0-1.426-0.272-1.973-0.816c-0.544-0.547-0.816-1.204-0.816-1.973
		c0-0.771,0.272-1.429,0.816-1.973c0.547-0.547,1.205-0.82,1.973-0.82c0.633,0,1.201,0.192,1.703,0.578
		c0.099,0.078,0.158,0.18,0.176,0.305c0.016,0.128-0.016,0.242-0.094,0.344s-0.18,0.16-0.305,0.176
		c-0.127,0.016-0.242-0.015-0.344-0.09c-0.333-0.258-0.712-0.387-1.137-0.387c-0.513,0-0.952,0.183-1.316,0.547
		s-0.547,0.805-0.547,1.32c0,0.513,0.182,0.952,0.547,1.316s0.803,0.547,1.316,0.547c0.484,0,0.904-0.161,1.258-0.484
		c0.094-0.086,0.205-0.126,0.332-0.121s0.234,0.056,0.32,0.152c0.086,0.094,0.127,0.204,0.121,0.332s-0.055,0.234-0.148,0.32
		C130.69,59.329,130.062,59.571,129.341,59.571z"/>
	<path fill="#FFFFFF" d="M133.138,59.536c-0.125,0-0.232-0.046-0.324-0.137c-0.088-0.089-0.133-0.195-0.133-0.32v-4.641
		c0-0.125,0.045-0.231,0.133-0.32c0.092-0.091,0.199-0.137,0.324-0.137s0.232,0.046,0.324,0.137c0.088,0.089,0.133,0.195,0.133,0.32
		v2.055l2.234-2.348c0.086-0.091,0.193-0.14,0.32-0.145c0.125-0.003,0.232,0.04,0.324,0.129c0.092,0.086,0.139,0.191,0.141,0.316
		c0.006,0.128-0.037,0.237-0.125,0.328l-1.875,1.973l1.949,2.051c0.086,0.094,0.127,0.203,0.125,0.328s-0.049,0.231-0.141,0.32
		c-0.088,0.083-0.193,0.125-0.316,0.125c-0.131,0-0.24-0.047-0.332-0.141l-1.918-2.02l-0.387,0.41v1.258
		c0,0.125-0.045,0.231-0.133,0.32C133.37,59.49,133.263,59.536,133.138,59.536z"/>
	<path fill="#FFFFFF" d="M141.36,53.97c0.125,0,0.232,0.044,0.32,0.133s0.133,0.195,0.133,0.32v3.148
		c0,0.552-0.195,1.023-0.586,1.414s-0.861,0.586-1.41,0.586c-0.553,0-1.023-0.195-1.414-0.586s-0.586-0.862-0.586-1.414v-3.148
		c0-0.125,0.045-0.231,0.133-0.32s0.195-0.133,0.32-0.133s0.232,0.044,0.32,0.133s0.133,0.195,0.133,0.32v3.148
		c0,0.302,0.107,0.56,0.32,0.773s0.471,0.32,0.773,0.32c0.299,0,0.557-0.106,0.77-0.32s0.32-0.472,0.32-0.773v-3.148
		c0-0.125,0.045-0.231,0.133-0.32S141.235,53.97,141.36,53.97z"/>
	<path fill="#FFFFFF" d="M145.474,53.958c0.484,0,0.896,0.16,1.238,0.48c0.344,0.32,0.516,0.706,0.516,1.156
		c0,0.442-0.166,0.823-0.496,1.141c-0.328,0.315-0.727,0.48-1.195,0.496h-0.004h-0.004h-0.008c-0.029,0.003-0.045,0.004-0.047,0.004
		l-0.023-0.004h-1.145v1.879c0,0.128-0.045,0.235-0.133,0.324c-0.092,0.091-0.201,0.137-0.328,0.137s-0.236-0.046-0.324-0.137
		c-0.092-0.089-0.137-0.196-0.137-0.324v-4.691c0-0.128,0.045-0.235,0.137-0.324c0.088-0.091,0.197-0.137,0.324-0.137H145.474z
		 M145.501,56.31c0.221-0.005,0.41-0.077,0.566-0.215c0.156-0.141,0.234-0.308,0.234-0.5c0-0.195-0.08-0.363-0.242-0.504
		s-0.357-0.211-0.586-0.211h-1.168v1.43H145.501z"/>
</g>
<g>
	<rect x="42.811" y="99.797" fill="none" width="85.622" height="27.45"/>
	<path fill="#942F8C" d="M70.146,108.298c-0.96,0-1.782-0.34-2.466-1.021c-0.68-0.684-1.021-1.506-1.021-2.465
		c0-0.965,0.34-1.785,1.021-2.467c0.684-0.684,1.505-1.025,2.466-1.025c0.791,0,1.5,0.242,2.129,0.723
		c0.124,0.098,0.197,0.225,0.22,0.381c0.02,0.16-0.02,0.303-0.117,0.43s-0.225,0.201-0.381,0.221c-0.16,0.02-0.303-0.018-0.43-0.113
		c-0.417-0.322-0.89-0.482-1.421-0.482c-0.641,0-1.19,0.227-1.646,0.684c-0.456,0.455-0.684,1.006-0.684,1.65
		c0,0.641,0.228,1.189,0.684,1.645c0.456,0.457,1.004,0.684,1.646,0.684c0.605,0,1.129-0.201,1.572-0.605
		c0.117-0.107,0.255-0.158,0.415-0.15c0.16,0.006,0.293,0.07,0.4,0.189c0.107,0.117,0.158,0.256,0.151,0.416
		c-0.006,0.158-0.068,0.293-0.186,0.4C71.832,107.996,71.047,108.298,70.146,108.298z"/>
	<path fill="#942F8C" d="M78.9,103.322c0,0.43-0.133,0.818-0.4,1.168c-0.257,0.344-0.596,0.59-1.016,0.736l1.108,2.246
		c0.068,0.141,0.077,0.285,0.024,0.436c-0.049,0.148-0.145,0.26-0.288,0.332c-0.082,0.039-0.166,0.059-0.254,0.059
		c-0.238,0-0.409-0.107-0.513-0.322l-1.294-2.623h-0.991v2.33c0,0.156-0.057,0.291-0.171,0.404
		c-0.111,0.111-0.246,0.166-0.405,0.166c-0.156,0-0.292-0.055-0.405-0.166c-0.111-0.113-0.166-0.248-0.166-0.404v-5.82
		c0-0.16,0.055-0.295,0.166-0.406c0.114-0.113,0.249-0.17,0.405-0.17h2.021c0.602,0,1.115,0.197,1.538,0.596
		C78.687,102.279,78.9,102.759,78.9,103.322z M76.762,104.207c0.273-0.01,0.508-0.1,0.703-0.27c0.192-0.172,0.288-0.377,0.288-0.615
		c0-0.246-0.101-0.457-0.303-0.629c-0.202-0.174-0.444-0.26-0.728-0.26h-1.445v1.773H76.762z"/>
	<path fill="#942F8C" d="M84.682,107.14c0.16,0,0.294,0.057,0.405,0.172c0.114,0.113,0.171,0.25,0.171,0.41
		c0,0.158-0.057,0.295-0.171,0.404c-0.111,0.115-0.246,0.172-0.405,0.172h-3.535c-0.16,0-0.294-0.057-0.405-0.172
		c-0.114-0.109-0.171-0.246-0.171-0.404v-5.855c0-0.162,0.057-0.299,0.171-0.41c0.111-0.113,0.246-0.17,0.405-0.17h0.005l3.53,0.01
		c0.16,0,0.296,0.057,0.41,0.17c0.111,0.115,0.166,0.252,0.166,0.41c0,0.16-0.057,0.295-0.171,0.406
		c-0.111,0.113-0.246,0.17-0.405,0.17h-0.005l-2.949-0.01v1.773h2.129c0.16,0,0.296,0.055,0.41,0.166
		c0.114,0.113,0.171,0.25,0.171,0.41c0,0.158-0.057,0.295-0.171,0.41c-0.114,0.109-0.25,0.166-0.41,0.166h-2.129v1.771H84.682z"/>
	<path fill="#942F8C" d="M86.664,108.253c-0.146-0.061-0.25-0.166-0.313-0.313c-0.059-0.146-0.059-0.293,0-0.439l0.62-1.488v-0.006
		l1.797-4.336c0.006-0.016,0.015-0.031,0.024-0.049l0.01-0.023c0.01-0.014,0.016-0.021,0.02-0.025c0-0.002,0.005-0.012,0.015-0.023
		c0.01-0.01,0.016-0.018,0.02-0.02c0-0.004,0.005-0.01,0.015-0.02c0.013-0.014,0.02-0.021,0.02-0.025
		c0.003-0.002,0.01-0.008,0.02-0.014c0.013-0.014,0.021-0.02,0.024-0.02c-0.003,0,0.003-0.006,0.02-0.016
		c0.013-0.01,0.021-0.016,0.024-0.02l0.02-0.014c0.016-0.01,0.026-0.016,0.029-0.016c0.006-0.002,0.018-0.008,0.034-0.014
		c0.016-0.01,0.021-0.014,0.015-0.01c-0.006,0.002,0,0,0.02-0.01c0.016-0.004,0.028-0.008,0.034-0.01
		c0.003,0,0.015-0.004,0.034-0.01l0.02-0.006c0.006,0,0.018-0.002,0.034-0.004l0.024-0.006c0.003,0,0.013,0,0.029,0
		c0.013,0,0.021,0,0.024,0c0.006,0,0.016,0,0.029,0h0.029l0.029,0.006l0.024,0.004c0.006,0,0.018,0.004,0.034,0.01
		c0.02,0.004,0.026,0.006,0.02,0.006c0.039,0.01,0.075,0.023,0.107,0.043c-0.003-0.002,0.003,0,0.02,0.01s0.026,0.018,0.029,0.02
		l0.02,0.016c0.013,0.01,0.021,0.016,0.024,0.02c0.003,0,0.01,0.004,0.02,0.014s0.018,0.018,0.024,0.02
		c0,0.004,0.005,0.01,0.015,0.02c0.013,0.014,0.02,0.021,0.02,0.025l0.015,0.02c0.013,0.012,0.02,0.021,0.02,0.023
		c0,0.004,0.005,0.012,0.015,0.025c0.01,0.012,0.015,0.021,0.015,0.023c0.01,0.018,0.018,0.033,0.024,0.049l1.797,4.336v0.006
		l0.62,1.488c0.059,0.146,0.059,0.293,0,0.439c-0.062,0.146-0.166,0.252-0.313,0.313c-0.072,0.029-0.145,0.045-0.22,0.045
		c-0.257,0-0.435-0.119-0.532-0.357l-0.469-1.133h-2.827l-0.469,1.133c-0.098,0.238-0.275,0.357-0.532,0.357
		c-0.075,0-0.112,0-0.112,0S86.736,108.283,86.664,108.253z M90.238,105.662l-0.942-2.266l-0.938,2.266H90.238z"/>
	<path fill="#942F8C" d="M95.004,102.439h-1.45c-0.16,0-0.296-0.057-0.41-0.172c-0.111-0.109-0.166-0.246-0.166-0.404
		c0-0.16,0.055-0.295,0.166-0.406c0.114-0.113,0.25-0.17,0.41-0.17h4.058c0.156,0,0.292,0.057,0.405,0.17
		c0.111,0.111,0.166,0.246,0.166,0.406c0,0.158-0.055,0.295-0.166,0.404c-0.114,0.115-0.249,0.172-0.405,0.172h-1.455v5.283
		c0,0.158-0.057,0.295-0.171,0.41c-0.111,0.109-0.246,0.166-0.405,0.166s-0.294-0.057-0.405-0.166
		c-0.114-0.115-0.171-0.252-0.171-0.41V102.439z"/>
	<path fill="#942F8C" d="M103.568,107.14c0.16,0,0.294,0.057,0.405,0.172c0.114,0.113,0.171,0.25,0.171,0.41
		c0,0.158-0.057,0.295-0.171,0.404c-0.111,0.115-0.246,0.172-0.405,0.172h-3.535c-0.16,0-0.294-0.057-0.405-0.172
		c-0.114-0.109-0.171-0.246-0.171-0.404v-5.855c0-0.162,0.057-0.299,0.171-0.41c0.111-0.113,0.246-0.17,0.405-0.17h0.005l3.53,0.01
		c0.16,0,0.296,0.057,0.41,0.17c0.111,0.115,0.166,0.252,0.166,0.41c0,0.16-0.057,0.295-0.171,0.406
		c-0.111,0.113-0.246,0.17-0.405,0.17h-0.005l-2.949-0.01v1.773h2.129c0.16,0,0.296,0.055,0.41,0.166
		c0.114,0.113,0.171,0.25,0.171,0.41c0,0.158-0.057,0.295-0.171,0.41c-0.114,0.109-0.25,0.166-0.41,0.166h-2.129v1.771H103.568z"/>
	<path fill="#942F8C" d="M63.358,118.212c-0.026,0.584-0.259,1.076-0.698,1.48c-0.443,0.402-0.97,0.605-1.582,0.605
		c-0.531,0-1.006-0.115-1.426-0.342c-0.504-0.273-0.825-0.672-0.962-1.191c-0.039-0.154-0.02-0.299,0.059-0.436
		c0.082-0.137,0.199-0.225,0.352-0.264s0.298-0.02,0.435,0.059c0.137,0.082,0.225,0.199,0.264,0.352
		c0.059,0.219,0.218,0.389,0.479,0.514c0.234,0.107,0.501,0.16,0.801,0.16c0.306,0,0.568-0.096,0.786-0.287
		c0.221-0.189,0.338-0.424,0.352-0.703c0.006-0.17-0.054-0.32-0.181-0.455c-0.202-0.215-0.541-0.324-1.016-0.332h-0.005
		c-0.013,0-0.016,0-0.01,0c-0.003,0-0.006,0-0.01,0c-0.797-0.012-1.408-0.242-1.831-0.688c-0.348-0.371-0.511-0.803-0.488-1.295
		c0.026-0.586,0.259-1.08,0.698-1.484c0.439-0.402,0.967-0.605,1.582-0.605c0.531,0,1.006,0.115,1.426,0.342
		c0.504,0.273,0.825,0.672,0.962,1.191c0.039,0.154,0.018,0.299-0.063,0.436c-0.078,0.137-0.194,0.225-0.347,0.264
		s-0.298,0.02-0.435-0.059c-0.137-0.082-0.225-0.199-0.264-0.352c-0.059-0.219-0.22-0.389-0.483-0.514
		c-0.231-0.107-0.497-0.16-0.796-0.16c-0.306,0-0.57,0.096-0.791,0.287c-0.218,0.193-0.333,0.428-0.347,0.703
		c-0.006,0.17,0.054,0.322,0.181,0.459c0.202,0.213,0.541,0.32,1.016,0.328h0.024c0.797,0.012,1.408,0.244,1.831,0.693
		C63.218,117.287,63.381,117.718,63.358,118.212z"/>
	<path fill="#942F8C" d="M69.677,120.078h-0.005v-0.004l-3.511-4.518v4.166c0,0.158-0.057,0.295-0.171,0.404
		c-0.111,0.115-0.246,0.172-0.405,0.172s-0.294-0.057-0.405-0.172c-0.114-0.109-0.171-0.246-0.171-0.404v-5.85
		c0-0.125,0.036-0.234,0.107-0.332c0.072-0.102,0.166-0.172,0.283-0.211c0.114-0.041,0.231-0.045,0.352-0.01
		c0.117,0.037,0.213,0.104,0.288,0.201l3.511,4.521v-4.17c0-0.16,0.055-0.295,0.166-0.406c0.114-0.113,0.25-0.17,0.41-0.17
		s0.294,0.057,0.405,0.17c0.114,0.111,0.171,0.246,0.171,0.406v5.859c0,0.006-0.001,0.016-0.005,0.029c0,0.012,0,0.021,0,0.023
		c0,0.008-0.001,0.018-0.005,0.029c0,0.014-0.001,0.023-0.005,0.029l-0.005,0.025c-0.003,0.016-0.006,0.025-0.01,0.029
		c0,0.002-0.003,0.012-0.01,0.023c-0.003,0.014-0.006,0.023-0.01,0.029l-0.01,0.025L70.629,120
		c-0.003,0.008-0.008,0.018-0.015,0.029l-0.015,0.016c-0.003,0.006-0.01,0.016-0.02,0.029l-0.015,0.02
		c-0.003,0.002-0.01,0.01-0.02,0.02c-0.01,0.012-0.016,0.02-0.02,0.02c0,0.002-0.006,0.01-0.02,0.02
		c-0.01,0.01-0.018,0.016-0.024,0.02c0.01-0.008,0.008-0.006-0.005,0.004l-0.005,0.006c-0.026,0.02-0.05,0.035-0.073,0.049h-0.005
		c-0.026,0.012-0.052,0.023-0.078,0.033c-0.013,0.008-0.016,0.008-0.01,0.006c-0.026,0.01-0.054,0.016-0.083,0.02l-0.015,0.004
		c-0.029,0.004-0.057,0.006-0.083,0.006c-0.02,0-0.041-0.002-0.063-0.006c0.006,0.004,0.003,0.004-0.01,0
		c-0.02-0.002-0.036-0.006-0.049-0.01c0.003,0.004-0.003,0.002-0.02-0.004c-0.016-0.004-0.029-0.008-0.039-0.01
		c-0.003,0-0.01-0.004-0.02-0.01c-0.016-0.004-0.029-0.008-0.039-0.016c-0.006,0-0.013-0.002-0.02-0.01
		c-0.013-0.006-0.024-0.012-0.034-0.014c-0.01-0.008-0.016-0.012-0.02-0.016c-0.01-0.006-0.021-0.014-0.034-0.023
		c-0.01-0.008-0.016-0.012-0.02-0.016c-0.016-0.012-0.031-0.025-0.044-0.039l-0.005-0.004v-0.006c-0.013-0.012-0.02-0.02-0.02-0.02
		S69.687,120.091,69.677,120.078z"/>
	<path fill="#942F8C" d="M72.704,120.253c-0.146-0.061-0.25-0.166-0.313-0.313c-0.059-0.146-0.059-0.293,0-0.439l0.62-1.488v-0.006
		l1.797-4.336c0.006-0.016,0.015-0.031,0.024-0.049l0.01-0.023c0.01-0.014,0.016-0.021,0.02-0.025c0-0.002,0.005-0.012,0.015-0.023
		c0.01-0.01,0.016-0.018,0.02-0.02c0-0.004,0.005-0.01,0.015-0.02c0.013-0.014,0.02-0.021,0.02-0.025
		c0.003-0.002,0.01-0.008,0.02-0.014c0.013-0.014,0.021-0.02,0.024-0.02c-0.003,0,0.003-0.006,0.02-0.016
		c0.013-0.01,0.021-0.016,0.024-0.02l0.02-0.014c0.016-0.01,0.026-0.016,0.029-0.016c0.006-0.002,0.018-0.008,0.034-0.014
		c0.016-0.01,0.021-0.014,0.015-0.01c-0.006,0.002,0,0,0.02-0.01c0.016-0.004,0.028-0.008,0.034-0.01
		c0.003,0,0.015-0.004,0.034-0.01l0.02-0.006c0.006,0,0.018-0.002,0.034-0.004l0.024-0.006c0.003,0,0.013,0,0.029,0
		c0.013,0,0.021,0,0.024,0c0.006,0,0.016,0,0.029,0h0.029l0.029,0.006l0.024,0.004c0.006,0,0.018,0.004,0.034,0.01
		c0.02,0.004,0.026,0.006,0.02,0.006c0.039,0.01,0.075,0.023,0.107,0.043c-0.003-0.002,0.003,0,0.02,0.01s0.026,0.018,0.029,0.02
		l0.02,0.016c0.013,0.01,0.021,0.016,0.024,0.02c0.003,0,0.01,0.004,0.02,0.014s0.018,0.018,0.024,0.02
		c0,0.004,0.005,0.01,0.015,0.02c0.013,0.014,0.02,0.021,0.02,0.025l0.015,0.02c0.013,0.012,0.02,0.021,0.02,0.023
		c0,0.004,0.005,0.012,0.015,0.025c0.01,0.012,0.015,0.021,0.015,0.023c0.01,0.018,0.018,0.033,0.024,0.049l1.797,4.336v0.006
		l0.62,1.488c0.059,0.146,0.059,0.293,0,0.439c-0.062,0.146-0.166,0.252-0.313,0.313c-0.072,0.029-0.145,0.045-0.22,0.045
		c-0.257,0-0.435-0.119-0.532-0.357l-0.469-1.133h-2.827l-0.469,1.133c-0.098,0.238-0.275,0.357-0.532,0.357
		c-0.075,0-0.112,0-0.112,0S72.776,120.283,72.704,120.253z M76.278,117.662l-0.942-2.266l-0.938,2.266H76.278z"/>
	<path fill="#942F8C" d="M82.309,113.281c0.605,0,1.122,0.201,1.548,0.602c0.43,0.4,0.645,0.881,0.645,1.445
		c0,0.553-0.207,1.027-0.62,1.426c-0.41,0.393-0.908,0.6-1.494,0.619h-0.005h-0.005h-0.01c-0.036,0.004-0.055,0.006-0.059,0.006
		l-0.029-0.006h-1.431v2.35c0,0.158-0.055,0.295-0.166,0.404c-0.114,0.115-0.25,0.172-0.41,0.172s-0.294-0.057-0.405-0.172
		c-0.114-0.109-0.171-0.246-0.171-0.404v-5.865c0-0.158,0.057-0.295,0.171-0.404c0.111-0.115,0.246-0.172,0.405-0.172H82.309z
		 M82.343,116.22c0.277-0.006,0.513-0.096,0.708-0.268c0.195-0.176,0.293-0.385,0.293-0.625c0-0.244-0.101-0.455-0.303-0.631
		s-0.446-0.264-0.732-0.264h-1.46v1.787H82.343z"/>
	<path fill="#942F8C" d="M90.399,118.212c-0.026,0.584-0.259,1.076-0.698,1.48c-0.443,0.402-0.97,0.605-1.582,0.605
		c-0.531,0-1.006-0.115-1.426-0.342c-0.504-0.273-0.825-0.672-0.962-1.191c-0.039-0.154-0.02-0.299,0.059-0.436
		c0.082-0.137,0.199-0.225,0.352-0.264s0.298-0.02,0.435,0.059c0.137,0.082,0.225,0.199,0.264,0.352
		c0.059,0.219,0.218,0.389,0.479,0.514c0.234,0.107,0.501,0.16,0.801,0.16c0.306,0,0.568-0.096,0.786-0.287
		c0.221-0.189,0.338-0.424,0.352-0.703c0.006-0.17-0.054-0.32-0.181-0.455c-0.202-0.215-0.541-0.324-1.016-0.332h-0.005
		c-0.013,0-0.016,0-0.01,0c-0.003,0-0.006,0-0.01,0c-0.797-0.012-1.408-0.242-1.831-0.688c-0.348-0.371-0.511-0.803-0.488-1.295
		c0.026-0.586,0.259-1.08,0.698-1.484c0.439-0.402,0.967-0.605,1.582-0.605c0.531,0,1.006,0.115,1.426,0.342
		c0.504,0.273,0.825,0.672,0.962,1.191c0.039,0.154,0.018,0.299-0.063,0.436c-0.078,0.137-0.194,0.225-0.347,0.264
		s-0.298,0.02-0.435-0.059c-0.137-0.082-0.225-0.199-0.264-0.352c-0.059-0.219-0.22-0.389-0.483-0.514
		c-0.231-0.107-0.497-0.16-0.796-0.16c-0.306,0-0.57,0.096-0.791,0.287c-0.218,0.193-0.333,0.428-0.347,0.703
		c-0.006,0.17,0.054,0.322,0.181,0.459c0.202,0.213,0.541,0.32,1.016,0.328h0.024c0.797,0.012,1.408,0.244,1.831,0.693
		C90.259,117.287,90.422,117.718,90.399,118.212z"/>
	<path fill="#942F8C" d="M96.981,120.298c-0.16,0-0.296-0.057-0.41-0.172c-0.114-0.113-0.171-0.25-0.171-0.41v-2.338h-3.008v2.338
		c0,0.16-0.055,0.297-0.166,0.41c-0.114,0.115-0.25,0.172-0.41,0.172s-0.296-0.057-0.41-0.172c-0.114-0.113-0.171-0.25-0.171-0.41
		v-5.834c0-0.16,0.057-0.297,0.171-0.41c0.114-0.115,0.25-0.172,0.41-0.172s0.296,0.057,0.41,0.172
		c0.111,0.113,0.166,0.25,0.166,0.41v2.338H96.4v-2.338c0-0.16,0.057-0.297,0.171-0.41c0.114-0.115,0.25-0.172,0.41-0.172
		s0.296,0.057,0.41,0.172c0.114,0.113,0.171,0.25,0.171,0.41v5.834c0,0.16-0.057,0.297-0.171,0.41
		C97.278,120.242,97.141,120.298,96.981,120.298z"/>
	<path fill="#942F8C" d="M102.733,120.298c-0.967,0-1.792-0.344-2.476-1.031c-0.687-0.684-1.03-1.508-1.03-2.475
		s0.343-1.795,1.03-2.48c0.684-0.684,1.509-1.025,2.476-1.025s1.793,0.342,2.48,1.025c0.684,0.686,1.025,1.514,1.025,2.48
		s-0.342,1.791-1.025,2.475C104.527,119.955,103.7,120.298,102.733,120.298z M102.733,114.439c-0.648,0-1.201,0.229-1.66,0.688
		c-0.462,0.463-0.693,1.018-0.693,1.666c0,0.646,0.231,1.201,0.693,1.66c0.459,0.461,1.012,0.693,1.66,0.693
		s1.203-0.232,1.665-0.693c0.459-0.459,0.688-1.014,0.688-1.66c0-0.648-0.229-1.203-0.688-1.666
		C103.936,114.667,103.381,114.439,102.733,114.439z"/>
	<path fill="#942F8C" d="M109.315,114.439h-1.45c-0.16,0-0.296-0.057-0.41-0.172c-0.111-0.109-0.166-0.246-0.166-0.404
		c0-0.16,0.055-0.295,0.166-0.406c0.114-0.113,0.25-0.17,0.41-0.17h4.058c0.156,0,0.292,0.057,0.405,0.17
		c0.111,0.111,0.166,0.246,0.166,0.406c0,0.158-0.055,0.295-0.166,0.404c-0.114,0.115-0.249,0.172-0.405,0.172h-1.455v5.283
		c0,0.158-0.057,0.295-0.171,0.41c-0.111,0.109-0.246,0.166-0.405,0.166s-0.294-0.057-0.405-0.166
		c-0.114-0.115-0.171-0.252-0.171-0.41V114.439z"/>
</g>
<g>
	<g>
		<line fill="none" stroke="#535353" stroke-width="2" stroke-miterlimit="10" x1="77.864" y1="55.771" x2="78.863" y2="55.811"/>
		
			<line fill="none" stroke="#535353" stroke-width="2" stroke-miterlimit="10" stroke-dasharray="1.8497,1.8497" x1="80.711" y1="55.884" x2="94.573" y2="56.434"/>
		<line fill="none" stroke="#535353" stroke-width="2" stroke-miterlimit="10" x1="95.497" y1="56.471" x2="96.497" y2="56.51"/>
		<g>
			<path fill="#535353" d="M100.718,56.678c-2.016,0.658-4.53,1.817-6.11,3.089l1.335-3.278l-1.071-3.374
				C96.346,54.507,98.761,55.863,100.718,56.678z"/>
		</g>
	</g>
</g>
<g>
	<rect x="129.15" y="99.797" fill="none" width="85.622" height="27.45"/>
	<path fill="#942F8C" d="M156.484,108.298c-0.96,0-1.782-0.34-2.466-1.021c-0.68-0.684-1.021-1.506-1.021-2.465
		c0-0.965,0.341-1.785,1.021-2.467c0.684-0.684,1.506-1.025,2.466-1.025c0.791,0,1.501,0.242,2.129,0.723
		c0.124,0.098,0.196,0.225,0.22,0.381c0.02,0.16-0.02,0.303-0.117,0.43s-0.225,0.201-0.381,0.221c-0.16,0.02-0.303-0.018-0.43-0.113
		c-0.416-0.322-0.891-0.482-1.421-0.482c-0.642,0-1.19,0.227-1.646,0.684c-0.455,0.455-0.684,1.006-0.684,1.65
		c0,0.641,0.229,1.189,0.684,1.645c0.455,0.457,1.004,0.684,1.646,0.684c0.605,0,1.13-0.201,1.572-0.605
		c0.117-0.107,0.255-0.158,0.415-0.15c0.16,0.006,0.293,0.07,0.4,0.189c0.107,0.117,0.158,0.256,0.151,0.416
		c-0.007,0.158-0.068,0.293-0.186,0.4C158.171,107.996,157.386,108.298,156.484,108.298z"/>
	<path fill="#942F8C" d="M165.239,103.322c0,0.43-0.133,0.818-0.4,1.168c-0.258,0.344-0.596,0.59-1.016,0.736l1.108,2.246
		c0.068,0.141,0.077,0.285,0.024,0.436c-0.049,0.148-0.145,0.26-0.288,0.332c-0.081,0.039-0.166,0.059-0.254,0.059
		c-0.237,0-0.409-0.107-0.513-0.322l-1.294-2.623h-0.991v2.33c0,0.156-0.057,0.291-0.171,0.404c-0.11,0.111-0.245,0.166-0.405,0.166
		c-0.156,0-0.291-0.055-0.405-0.166c-0.11-0.113-0.166-0.248-0.166-0.404v-5.82c0-0.16,0.056-0.295,0.166-0.406
		c0.114-0.113,0.249-0.17,0.405-0.17h2.021c0.602,0,1.115,0.197,1.538,0.596C165.026,102.279,165.239,102.759,165.239,103.322z
		 M163.101,104.207c0.273-0.01,0.508-0.1,0.703-0.27c0.191-0.172,0.288-0.377,0.288-0.615c0-0.246-0.101-0.457-0.303-0.629
		c-0.202-0.174-0.444-0.26-0.728-0.26h-1.445v1.773H163.101z"/>
	<path fill="#942F8C" d="M171.021,107.14c0.16,0,0.295,0.057,0.405,0.172c0.114,0.113,0.171,0.25,0.171,0.41
		c0,0.158-0.057,0.295-0.171,0.404c-0.11,0.115-0.245,0.172-0.405,0.172h-3.535c-0.16,0-0.295-0.057-0.405-0.172
		c-0.114-0.109-0.171-0.246-0.171-0.404v-5.855c0-0.162,0.057-0.299,0.171-0.41c0.11-0.113,0.245-0.17,0.405-0.17h0.005l3.53,0.01
		c0.16,0,0.297,0.057,0.41,0.17c0.111,0.115,0.166,0.252,0.166,0.41c0,0.16-0.057,0.295-0.171,0.406
		c-0.11,0.113-0.245,0.17-0.405,0.17h-0.005l-2.949-0.01v1.773h2.129c0.159,0,0.296,0.055,0.41,0.166
		c0.114,0.113,0.171,0.25,0.171,0.41c0,0.158-0.057,0.295-0.171,0.41c-0.114,0.109-0.251,0.166-0.41,0.166h-2.129v1.771H171.021z"/>
	<path fill="#942F8C" d="M173.003,108.253c-0.146-0.061-0.25-0.166-0.313-0.313c-0.059-0.146-0.059-0.293,0-0.439l0.62-1.488v-0.006
		l1.797-4.336c0.007-0.016,0.015-0.031,0.024-0.049l0.01-0.023c0.01-0.014,0.016-0.021,0.02-0.025c0-0.002,0.005-0.012,0.015-0.023
		c0.01-0.01,0.017-0.018,0.02-0.02c0-0.004,0.005-0.01,0.015-0.02c0.014-0.014,0.02-0.021,0.02-0.025
		c0.004-0.002,0.01-0.008,0.02-0.014c0.014-0.014,0.021-0.02,0.024-0.02c-0.003,0,0.003-0.006,0.02-0.016
		c0.013-0.01,0.021-0.016,0.024-0.02l0.02-0.014c0.016-0.01,0.025-0.016,0.029-0.016c0.006-0.002,0.018-0.008,0.034-0.014
		c0.017-0.01,0.021-0.014,0.015-0.01c-0.006,0.002,0,0,0.02-0.01c0.016-0.004,0.027-0.008,0.034-0.01
		c0.003,0,0.015-0.004,0.034-0.01l0.02-0.006c0.006,0,0.018-0.002,0.034-0.004l0.024-0.006c0.004,0,0.014,0,0.029,0
		c0.014,0,0.021,0,0.024,0c0.007,0,0.017,0,0.029,0h0.029l0.029,0.006l0.024,0.004c0.006,0,0.018,0.004,0.034,0.01
		c0.02,0.004,0.026,0.006,0.02,0.006c0.039,0.01,0.075,0.023,0.107,0.043c-0.003-0.002,0.003,0,0.02,0.01s0.026,0.018,0.029,0.02
		l0.02,0.016c0.013,0.01,0.021,0.016,0.024,0.02c0.004,0,0.01,0.004,0.02,0.014s0.018,0.018,0.024,0.02
		c0,0.004,0.005,0.01,0.015,0.02c0.014,0.014,0.02,0.021,0.02,0.025l0.015,0.02c0.013,0.012,0.02,0.021,0.02,0.023
		c0,0.004,0.005,0.012,0.015,0.025c0.01,0.012,0.015,0.021,0.015,0.023c0.01,0.018,0.019,0.033,0.024,0.049l1.797,4.336v0.006
		l0.62,1.488c0.059,0.146,0.059,0.293,0,0.439c-0.062,0.146-0.166,0.252-0.313,0.313c-0.071,0.029-0.146,0.045-0.22,0.045
		c-0.258,0-0.435-0.119-0.532-0.357l-0.469-1.133h-2.827l-0.469,1.133c-0.098,0.238-0.275,0.357-0.532,0.357
		c-0.075,0-0.112,0-0.112,0S173.075,108.283,173.003,108.253z M176.577,105.662l-0.942-2.266l-0.938,2.266H176.577z"/>
	<path fill="#942F8C" d="M181.343,102.439h-1.45c-0.159,0-0.296-0.057-0.41-0.172c-0.11-0.109-0.166-0.246-0.166-0.404
		c0-0.16,0.056-0.295,0.166-0.406c0.114-0.113,0.251-0.17,0.41-0.17h4.058c0.156,0,0.291,0.057,0.405,0.17
		c0.11,0.111,0.166,0.246,0.166,0.406c0,0.158-0.056,0.295-0.166,0.404c-0.114,0.115-0.249,0.172-0.405,0.172h-1.455v5.283
		c0,0.158-0.057,0.295-0.171,0.41c-0.11,0.109-0.245,0.166-0.405,0.166s-0.295-0.057-0.405-0.166
		c-0.114-0.115-0.171-0.252-0.171-0.41V102.439z"/>
	<path fill="#942F8C" d="M189.907,107.14c0.16,0,0.295,0.057,0.405,0.172c0.114,0.113,0.171,0.25,0.171,0.41
		c0,0.158-0.057,0.295-0.171,0.404c-0.11,0.115-0.245,0.172-0.405,0.172h-3.535c-0.16,0-0.295-0.057-0.405-0.172
		c-0.114-0.109-0.171-0.246-0.171-0.404v-5.855c0-0.162,0.057-0.299,0.171-0.41c0.11-0.113,0.245-0.17,0.405-0.17h0.005l3.53,0.01
		c0.16,0,0.297,0.057,0.41,0.17c0.111,0.115,0.166,0.252,0.166,0.41c0,0.16-0.057,0.295-0.171,0.406
		c-0.11,0.113-0.245,0.17-0.405,0.17h-0.005l-2.949-0.01v1.773h2.129c0.159,0,0.296,0.055,0.41,0.166
		c0.114,0.113,0.171,0.25,0.171,0.41c0,0.158-0.057,0.295-0.171,0.41c-0.114,0.109-0.251,0.166-0.41,0.166h-2.129v1.771H189.907z"/>
	<path fill="#942F8C" d="M155.991,113.355c0.15,0.051,0.259,0.148,0.327,0.293c0.068,0.143,0.077,0.289,0.024,0.439l-2.046,5.824
		v0.006c-0.01,0.021-0.021,0.047-0.034,0.072c-0.004,0.008-0.006,0.012-0.01,0.016c-0.014,0.021-0.025,0.043-0.039,0.063
		c0.006-0.006,0.004-0.002-0.01,0.016c-0.016,0.016-0.033,0.031-0.049,0.049c-0.01,0.01-0.014,0.012-0.01,0.01
		c-0.016,0.016-0.035,0.031-0.059,0.049c0.006-0.004,0.004,0-0.01,0.01c-0.02,0.012-0.041,0.023-0.063,0.033l-0.01,0.006
		c-0.02,0.01-0.039,0.018-0.059,0.023c-0.013,0.008-0.017,0.008-0.01,0.006c-0.017,0.006-0.038,0.012-0.063,0.014
		c-0.025,0.008-0.034,0.008-0.024,0.006c-0.032,0.006-0.063,0.01-0.093,0.01s-0.061-0.004-0.093-0.01
		c0.01,0.002,0.001,0.002-0.024-0.006c-0.025-0.002-0.047-0.008-0.063-0.014c0.007,0.002,0.003,0.002-0.01-0.006
		c-0.02-0.006-0.039-0.014-0.059-0.023l-0.015-0.006c-0.02-0.01-0.039-0.021-0.059-0.033l-0.005-0.006l-0.005-0.004
		c-0.023-0.014-0.043-0.029-0.059-0.049c0,0.002-0.005,0-0.015-0.01c-0.017-0.018-0.03-0.033-0.044-0.049
		c-0.006-0.008-0.01-0.012-0.01-0.016c-0.014-0.02-0.025-0.041-0.039-0.063c-0.004-0.004-0.006-0.008-0.01-0.016
		c-0.014-0.025-0.024-0.051-0.034-0.072v-0.006l-2.046-5.824c-0.053-0.15-0.044-0.297,0.024-0.439
		c0.068-0.145,0.177-0.242,0.327-0.293c0.15-0.053,0.297-0.045,0.439,0.023s0.24,0.178,0.293,0.328l1.504,4.281l1.504-4.281
		c0.053-0.15,0.15-0.26,0.293-0.328s0.215-0.102,0.215-0.102S155.841,113.302,155.991,113.355z"/>
	<path fill="#942F8C" d="M160.889,120.298c-0.967,0-1.792-0.344-2.476-1.031c-0.688-0.684-1.03-1.508-1.03-2.475
		s0.343-1.795,1.03-2.48c0.684-0.684,1.509-1.025,2.476-1.025s1.794,0.342,2.48,1.025c0.684,0.686,1.025,1.514,1.025,2.48
		s-0.342,1.791-1.025,2.475C162.683,119.955,161.855,120.298,160.889,120.298z M160.889,114.439c-0.647,0-1.201,0.229-1.66,0.688
		c-0.462,0.463-0.693,1.018-0.693,1.666c0,0.646,0.231,1.201,0.693,1.66c0.459,0.461,1.013,0.693,1.66,0.693
		s1.202-0.232,1.665-0.693c0.459-0.459,0.688-1.014,0.688-1.66c0-0.648-0.229-1.203-0.688-1.666
		C162.091,114.667,161.536,114.439,160.889,114.439z"/>
	<path fill="#942F8C" d="M166.709,113.296c0.159,0,0.294,0.057,0.405,0.17c0.113,0.111,0.171,0.246,0.171,0.406v5.273h2.583
		c0.16,0,0.297,0.057,0.41,0.17c0.111,0.111,0.166,0.246,0.166,0.406c0,0.158-0.055,0.295-0.166,0.404
		c-0.113,0.115-0.25,0.172-0.41,0.172h-3.159c-0.159,0-0.294-0.057-0.405-0.172c-0.113-0.109-0.171-0.246-0.171-0.404v-5.85
		c0-0.16,0.058-0.295,0.171-0.406C166.415,113.353,166.55,113.296,166.709,113.296z"/>
	<path fill="#942F8C" d="M176.025,113.296c0.156,0,0.29,0.055,0.4,0.166c0.11,0.109,0.166,0.244,0.166,0.4v3.936
		c0,0.689-0.244,1.279-0.732,1.768s-1.075,0.732-1.763,0.732c-0.689,0-1.279-0.244-1.768-0.732s-0.732-1.078-0.732-1.768v-3.936
		c0-0.156,0.055-0.291,0.166-0.4c0.111-0.111,0.244-0.166,0.4-0.166s0.289,0.055,0.4,0.166c0.111,0.109,0.166,0.244,0.166,0.4v3.936
		c0,0.377,0.133,0.699,0.4,0.967c0.268,0.266,0.59,0.4,0.967,0.4c0.375,0,0.695-0.135,0.962-0.4c0.267-0.268,0.4-0.59,0.4-0.967
		v-3.936c0-0.156,0.056-0.291,0.166-0.4C175.735,113.351,175.869,113.296,176.025,113.296z"/>
	<path fill="#942F8C" d="M185.083,113.296c0.123,0.035,0.225,0.105,0.303,0.209c0.078,0.102,0.117,0.217,0.117,0.348v5.869
		c0,0.158-0.055,0.295-0.166,0.404c-0.113,0.115-0.25,0.172-0.41,0.172s-0.297-0.057-0.41-0.172
		c-0.111-0.109-0.166-0.246-0.166-0.404v-3.799l-1.821,3.008v0.004l-0.005,0.006l-0.005,0.004l-0.005,0.006
		c-0.01,0.016-0.016,0.027-0.02,0.033l-0.015,0.02c-0.013,0.014-0.021,0.021-0.024,0.025c-0.004,0.002-0.01,0.01-0.02,0.02
		s-0.016,0.016-0.02,0.02c-0.006,0.006-0.016,0.014-0.029,0.023l-0.015,0.016c-0.01,0.006-0.021,0.012-0.034,0.02
		c0,0.002-0.002,0.004-0.005,0.004l-0.005,0.006h-0.005c-0.007,0.006-0.019,0.012-0.034,0.02c-0.014,0.006-0.018,0.01-0.015,0.01
		c-0.003,0-0.013,0.002-0.029,0.01c-0.075,0.031-0.153,0.047-0.234,0.043h-0.01c0.007,0,0-0.002-0.02-0.004
		c-0.042-0.004-0.085-0.012-0.127-0.025c-0.017-0.002-0.022-0.004-0.02-0.004c0.007,0.002,0,0.002-0.02-0.006
		c-0.017-0.006-0.028-0.012-0.034-0.014c0.004,0,0-0.004-0.01-0.01c-0.016-0.008-0.029-0.014-0.039-0.02h-0.005l-0.005-0.006
		l-0.005-0.004c-0.013-0.008-0.024-0.016-0.034-0.025c0,0.004-0.005,0-0.015-0.01c-0.013-0.01-0.022-0.018-0.029-0.023
		c-0.003-0.004-0.01-0.01-0.02-0.02s-0.017-0.018-0.02-0.02c-0.003-0.008-0.011-0.016-0.024-0.025c-0.006-0.01-0.01-0.016-0.01-0.02
		c-0.006-0.006-0.015-0.018-0.024-0.033l-0.005-0.006c0-0.002-0.002-0.004-0.005-0.004v-0.006c0-0.002-0.001-0.004-0.005-0.004
		l-1.816-3.008v3.799c0,0.158-0.057,0.295-0.171,0.404c-0.114,0.115-0.251,0.172-0.41,0.172s-0.294-0.057-0.405-0.172
		c-0.113-0.109-0.171-0.246-0.171-0.404v-5.869c0-0.131,0.039-0.246,0.117-0.348c0.078-0.104,0.181-0.174,0.308-0.209
		c0.123-0.033,0.246-0.027,0.366,0.02c0.12,0.049,0.215,0.129,0.283,0.238l2.402,3.971l2.402-3.971
		c0.065-0.109,0.157-0.189,0.278-0.238c0.121-0.047,0.181-0.068,0.181-0.068S184.956,113.263,185.083,113.296z"/>
	<path fill="#942F8C" d="M191.729,119.14c0.159,0,0.294,0.057,0.405,0.172c0.113,0.113,0.171,0.25,0.171,0.41
		c0,0.158-0.058,0.295-0.171,0.404c-0.111,0.115-0.246,0.172-0.405,0.172h-3.535c-0.159,0-0.294-0.057-0.405-0.172
		c-0.113-0.109-0.171-0.246-0.171-0.404v-5.855c0-0.162,0.058-0.299,0.171-0.41c0.111-0.113,0.246-0.17,0.405-0.17h0.005l3.53,0.01
		c0.159,0,0.296,0.057,0.41,0.17c0.11,0.115,0.166,0.252,0.166,0.41c0,0.16-0.058,0.295-0.171,0.406
		c-0.111,0.113-0.246,0.17-0.405,0.17h-0.005l-2.949-0.01v1.773h2.129c0.16,0,0.297,0.055,0.41,0.166
		c0.113,0.113,0.171,0.25,0.171,0.41c0,0.158-0.058,0.295-0.171,0.41c-0.113,0.109-0.25,0.166-0.41,0.166h-2.129v1.771H191.729z"/>
</g>
<g>
	<g>
		<line fill="none" stroke="#535353" stroke-miterlimit="10" x1="86.58" y1="59.001" x2="86.58" y2="60.001"/>
		
			<line fill="none" stroke="#535353" stroke-miterlimit="10" stroke-dasharray="2.0387,2.0387" x1="86.58" y1="62.041" x2="86.58" y2="93.64"/>
		<line fill="none" stroke="#535353" stroke-miterlimit="10" x1="86.58" y1="94.66" x2="86.58" y2="95.66"/>
	</g>
</g>
<g>
	<g>
		<line fill="none" stroke="#535353" stroke-miterlimit="10" x1="171.961" y1="59.001" x2="171.961" y2="60.001"/>
		
			<line fill="none" stroke="#535353" stroke-miterlimit="10" stroke-dasharray="2.0387,2.0387" x1="171.961" y1="62.041" x2="171.961" y2="93.64"/>
		<line fill="none" stroke="#535353" stroke-miterlimit="10" x1="171.961" y1="94.66" x2="171.961" y2="95.66"/>
	</g>
</g>
<g>
</g>
<g>
</g>
<g>
</g>
<g>
</g>
<g>
</g>
<g>
</g>
<g>
</g>
</svg>
