<?xml version="1.0" encoding="utf-8"?>
<!-- Generator: Adobe Illustrator 16.0.0, SVG Export Plug-In . SVG Version: 6.00 Build 0)  -->
<!DOCTYPE svg PUBLIC "-//W3C//DTD SVG 1.1//EN" "http://www.w3.org/Graphics/SVG/1.1/DTD/svg11.dtd">
<svg version="1.1" id="Layer_1" xmlns="http://www.w3.org/2000/svg" xmlns:xlink="http://www.w3.org/1999/xlink" x="0px" y="0px"
	 width="24px" height="24px" viewBox="0 0 24 24" enable-background="new 0 0 24 24" xml:space="preserve">
<g id="Arrow_Down">
	<path fill="#4DC2C0" d="M16.943,10.02c-0.385-0.386-1.055-0.386-1.439,0l-3.562,3.56l-3.56-3.56c-0.386-0.386-1.057-0.386-1.441,0
		c-0.193,0.192-0.299,0.447-0.299,0.721c0,0.271,0.106,0.527,0.299,0.72l4.28,4.279c0.192,0.193,0.449,0.299,0.721,0.299
		c0.273,0,0.528-0.105,0.721-0.299l4.28-4.279c0.193-0.193,0.299-0.449,0.299-0.72C17.242,10.467,17.137,10.212,16.943,10.02z"/>
	<path fill="#4DC2C0" d="M12,0C5.383,0,0,5.383,0,12c0,6.617,5.383,12,12,12c6.617,0,12-5.383,12-12C24,5.383,18.617,0,12,0z
		 M12,22.154C6.402,22.154,1.846,17.6,1.846,12C1.846,6.401,6.402,1.847,12,1.847c5.598,0,10.154,4.554,10.154,10.153
		C22.154,17.6,17.598,22.154,12,22.154z"/>
</g>
</svg>
