<?xml version="1.0" encoding="utf-8"?>
<!-- Generator: Adobe Illustrator 16.0.0, SVG Export Plug-In . SVG Version: 6.00 Build 0)  -->
<!DOCTYPE svg PUBLIC "-//W3C//DTD SVG 1.1//EN" "http://www.w3.org/Graphics/SVG/1.1/DTD/svg11.dtd">
<svg version="1.1" id="Layer_1" xmlns="http://www.w3.org/2000/svg" xmlns:xlink="http://www.w3.org/1999/xlink" x="0px" y="0px"
	 width="135px" height="135px" viewBox="0 0 135 135" enable-background="new 0 0 135 135" xml:space="preserve">
<g>
	<g>
		<defs>
			<path id="SVGID_1_" d="M41.846,86.164c-5.96,0-10.811,4.852-10.811,10.812c0,5.962,4.851,10.813,10.811,10.813
				c5.963,0,10.812-4.852,10.812-10.813C52.659,91.016,47.809,86.164,41.846,86.164z M41.846,102.98c-3.307,0-6-2.695-6-6.005
				c0-3.308,2.693-6,6-6c3.31,0,6.002,2.692,6.002,6C47.848,100.285,45.156,102.98,41.846,102.98z"/>
		</defs>
		<clipPath id="SVGID_2_">
			<use xlink:href="#SVGID_1_"  overflow="visible"/>
		</clipPath>
		<linearGradient id="SVGID_3_" gradientUnits="userSpaceOnUse" x1="4.4194" y1="53.7119" x2="130.5801" y2="53.7119">
			<stop  offset="0" style="stop-color:#CBDC41"/>
			<stop  offset="0.3541" style="stop-color:#A0CF75"/>
			<stop  offset="1" style="stop-color:#05BAB9"/>
		</linearGradient>
		<rect x="4.419" y="-3.035" clip-path="url(#SVGID_2_)" fill="url(#SVGID_3_)" width="126.161" height="113.494"/>
	</g>
	<g>
		<defs>
			<path id="SVGID_4_" d="M67.056,86.164c-5.963,0-10.813,4.852-10.813,10.812c0,5.962,4.851,10.813,10.813,10.813
				c5.959,0,10.811-4.852,10.811-10.813C77.867,91.016,73.016,86.164,67.056,86.164z M67.056,102.98
				c-3.31,0-6.003-2.695-6.003-6.005c0-3.308,2.693-6,6.003-6c3.307,0,5.999,2.692,5.999,6
				C73.055,100.285,70.363,102.98,67.056,102.98z"/>
		</defs>
		<clipPath id="SVGID_5_">
			<use xlink:href="#SVGID_4_"  overflow="visible"/>
		</clipPath>
		<linearGradient id="SVGID_6_" gradientUnits="userSpaceOnUse" x1="4.4194" y1="53.7119" x2="130.5801" y2="53.7119">
			<stop  offset="0" style="stop-color:#CBDC41"/>
			<stop  offset="0.3541" style="stop-color:#A0CF75"/>
			<stop  offset="1" style="stop-color:#05BAB9"/>
		</linearGradient>
		<rect x="4.419" y="-3.035" clip-path="url(#SVGID_5_)" fill="url(#SVGID_6_)" width="126.161" height="113.494"/>
	</g>
	<g>
		<defs>
			<path id="SVGID_7_" d="M92.469,86.164c-5.963,0-10.814,4.852-10.814,10.812c0,5.962,4.852,10.813,10.814,10.813
				c5.959,0,10.811-4.852,10.811-10.813C103.279,91.016,98.428,86.164,92.469,86.164z M92.469,102.98
				c-3.311,0-6.002-2.695-6.002-6.005c0-3.308,2.691-6,6.002-6c3.305,0,5.998,2.692,5.998,6
				C98.467,100.285,95.773,102.98,92.469,102.98z"/>
		</defs>
		<clipPath id="SVGID_8_">
			<use xlink:href="#SVGID_7_"  overflow="visible"/>
		</clipPath>
		<linearGradient id="SVGID_9_" gradientUnits="userSpaceOnUse" x1="4.4194" y1="53.7119" x2="130.5801" y2="53.7119">
			<stop  offset="0" style="stop-color:#CBDC41"/>
			<stop  offset="0.3541" style="stop-color:#A0CF75"/>
			<stop  offset="1" style="stop-color:#05BAB9"/>
		</linearGradient>
		<rect x="4.419" y="-3.035" clip-path="url(#SVGID_8_)" fill="url(#SVGID_9_)" width="126.161" height="113.494"/>
	</g>
	<g>
		<defs>
			<path id="SVGID_10_" d="M98.113,0H36.885c-5.258,0-9.537,4.277-9.537,9.537v61.23c0,5.26,4.279,9.537,9.537,9.537h61.228
				c5.26,0,9.539-4.277,9.539-9.537V9.537C107.652,4.277,103.373,0,98.113,0z M101.846,70.768c0,2.057-1.676,3.731-3.732,3.731
				H36.885c-2.059,0-3.732-1.675-3.732-3.731V9.537c0-2.056,1.674-3.731,3.732-3.731h61.228c2.057,0,3.732,1.676,3.732,3.731V70.768
				z"/>
		</defs>
		<clipPath id="SVGID_11_">
			<use xlink:href="#SVGID_10_"  overflow="visible"/>
		</clipPath>
		<linearGradient id="SVGID_12_" gradientUnits="userSpaceOnUse" x1="4.4194" y1="53.7119" x2="130.5801" y2="53.7119">
			<stop  offset="0" style="stop-color:#CBDC41"/>
			<stop  offset="0.3541" style="stop-color:#A0CF75"/>
			<stop  offset="1" style="stop-color:#05BAB9"/>
		</linearGradient>
		<rect x="4.419" y="-3.035" clip-path="url(#SVGID_11_)" fill="url(#SVGID_12_)" width="126.161" height="113.494"/>
	</g>
</g>
</svg>
