<?xml version="1.0" encoding="utf-8"?>
<!-- Generator: Adobe Illustrator 16.0.0, SVG Export Plug-In . SVG Version: 6.00 Build 0)  -->
<!DOCTYPE svg PUBLIC "-//W3C//DTD SVG 1.1//EN" "http://www.w3.org/Graphics/SVG/1.1/DTD/svg11.dtd">
<svg version="1.1" id="Layer_1" xmlns="http://www.w3.org/2000/svg" xmlns:xlink="http://www.w3.org/1999/xlink" x="0px" y="0px"
	 width="135px" height="135px" viewBox="0 0 135 135" enable-background="new 0 0 135 135" xml:space="preserve">
<g>
	<g>
		<defs>
			<path id="SVGID_1_" d="M116.507,56.123L87.928,27.542c-4.562-4.561-11.984-4.562-16.547,0l-3.476,3.479L40.825,3.943
				c-1.243-1.247-3.265-1.247-4.511,0c-1.248,1.248-1.248,3.268,0,4.516l27.074,27.075L50.792,48.131L36.124,33.466
				c-1.245-1.248-3.264-1.248-4.512,0c-1.243,1.244-1.246,3.266,0,4.512l14.667,14.665L42.8,56.121
				c-4.562,4.561-4.562,11.982,0.001,16.546l28.58,28.58c4.562,4.562,11.984,4.562,16.547,0l28.579-28.578
				C121.07,68.104,121.07,60.687,116.507,56.123z M83.416,96.735c-2.075,2.074-5.45,2.074-7.521,0L47.314,68.157
				c-2.076-2.074-2.076-5.45,0-7.523l28.579-28.58c2.073-2.072,5.448-2.072,7.523,0l28.578,28.58c2.074,2.073,2.074,5.449,0,7.523
				L83.416,96.735z"/>
		</defs>
		<clipPath id="SVGID_2_">
			<use xlink:href="#SVGID_1_"  overflow="visible"/>
		</clipPath>
		<linearGradient id="SVGID_3_" gradientUnits="userSpaceOnUse" x1="7.3159" y1="51.1992" x2="130.9131" y2="51.1992">
			<stop  offset="0" style="stop-color:#CBDC41"/>
			<stop  offset="0.3541" style="stop-color:#A0CF75"/>
			<stop  offset="1" style="stop-color:#05BAB9"/>
		</linearGradient>
		<rect x="7.316" y="-4.396" clip-path="url(#SVGID_2_)" fill="url(#SVGID_3_)" width="123.597" height="111.189"/>
	</g>
	<g>
		<defs>
			<path id="SVGID_4_" d="M53.611,38.542c1.248-1.247,1.248-3.27,0-4.514L20.523,0.935c-1.246-1.246-3.271-1.246-4.518,0
				c-1.246,1.246-1.246,3.269,0,4.517l33.096,33.091C50.345,39.788,52.367,39.788,53.611,38.542z"/>
		</defs>
		<clipPath id="SVGID_5_">
			<use xlink:href="#SVGID_4_"  overflow="visible"/>
		</clipPath>
		<linearGradient id="SVGID_6_" gradientUnits="userSpaceOnUse" x1="7.3159" y1="51.1992" x2="130.9131" y2="51.1992">
			<stop  offset="0" style="stop-color:#CBDC41"/>
			<stop  offset="0.3541" style="stop-color:#A0CF75"/>
			<stop  offset="1" style="stop-color:#05BAB9"/>
		</linearGradient>
		<rect x="7.316" y="-4.396" clip-path="url(#SVGID_5_)" fill="url(#SVGID_6_)" width="123.597" height="111.189"/>
	</g>
</g>
</svg>
