<?xml version="1.0" encoding="utf-8"?>
<!-- Generator: Adobe Illustrator 16.0.0, SVG Export Plug-In . SVG Version: 6.00 Build 0)  -->
<!DOCTYPE svg PUBLIC "-//W3C//DTD SVG 1.1//EN" "http://www.w3.org/Graphics/SVG/1.1/DTD/svg11.dtd">
<svg version="1.1" id="Layer_1" xmlns="http://www.w3.org/2000/svg" xmlns:xlink="http://www.w3.org/1999/xlink" x="0px" y="0px"
	 width="135px" height="135px" viewBox="0 0 135 135" enable-background="new 0 0 135 135" xml:space="preserve">
<g>
	<g>
		<defs>
			<path id="SVGID_1_" d="M86.893,92.459H48.105c-6.278,0-11.385-5.106-11.385-11.385V42.283c0-6.275,5.106-11.384,11.385-11.384
				h38.788c6.277,0,11.385,5.108,11.385,11.384v38.791C98.277,87.353,93.17,92.459,86.893,92.459z M48.105,37.829
				c-2.457,0-4.455,1.999-4.455,4.454v38.791c0,2.457,1.998,4.455,4.455,4.455h38.788c2.455,0,4.455-1.998,4.455-4.455V42.283
				c0-2.455-2-4.454-4.455-4.454H48.105z"/>
		</defs>
		<clipPath id="SVGID_2_">
			<use xlink:href="#SVGID_1_"  overflow="visible"/>
		</clipPath>
		<linearGradient id="SVGID_3_" gradientUnits="userSpaceOnUse" x1="4.4185" y1="62.3511" x2="130.5801" y2="62.3511">
			<stop  offset="0" style="stop-color:#CBDC41"/>
			<stop  offset="0.3541" style="stop-color:#A0CF75"/>
			<stop  offset="1" style="stop-color:#05BAB9"/>
		</linearGradient>
		<rect x="4.418" y="-2.347" clip-path="url(#SVGID_2_)" fill="url(#SVGID_3_)" width="126.162" height="129.396"/>
	</g>
	<g>
		<defs>
			<path id="SVGID_4_" d="M67.499,123.391c-0.697,0-1.393-0.012-2.084-0.035l0.236-7.076c1.265,0.04,2.544,0.038,3.812-0.006
				l0.252,7.077C68.98,123.375,68.242,123.391,67.499,123.391z M61.122,123.064c-1.419-0.146-2.85-0.344-4.261-0.588l1.206-6.979
				c1.253,0.216,2.521,0.391,3.778,0.522L61.122,123.064z M74.004,123.05l-0.734-7.042c1.252-0.132,2.521-0.309,3.771-0.529
				l1.229,6.975C76.855,122.702,75.42,122.903,74.004,123.05z M52.645,121.589c-1.382-0.341-2.774-0.737-4.142-1.178l2.177-6.739
				c1.21,0.391,2.442,0.74,3.662,1.044L52.645,121.589z M82.484,121.558l-1.721-6.869c1.238-0.309,2.471-0.664,3.666-1.052
				l2.189,6.734C85.273,120.807,83.881,121.21,82.484,121.558z M44.447,118.939c-1.328-0.537-2.653-1.125-3.941-1.752l3.103-6.365
				c1.137,0.553,2.311,1.075,3.487,1.548L44.447,118.939z M90.666,118.893l-2.66-6.563c1.172-0.475,2.34-0.997,3.473-1.553
				l3.113,6.361C93.312,117.767,91.99,118.355,90.666,118.893z M36.701,115.167c-1.242-0.718-2.474-1.484-3.654-2.281l3.959-5.87
				c1.045,0.704,2.133,1.382,3.233,2.019L36.701,115.167z M98.391,115.113l-3.551-6.128c1.098-0.634,2.182-1.315,3.225-2.023
				l3.973,5.864C100.855,113.626,99.627,114.396,98.391,115.113z M29.564,110.357c-1.127-0.882-2.237-1.812-3.301-2.768l4.735-5.264
				c0.941,0.845,1.924,1.668,2.922,2.448L29.564,110.357z M105.514,110.295l-4.367-5.575c0.994-0.78,1.977-1.605,2.916-2.453
				l4.744,5.261C107.746,108.482,106.635,109.415,105.514,110.295z M23.165,104.604c-0.987-1.017-1.957-2.09-2.885-3.188
				l5.414-4.566c0.822,0.976,1.683,1.926,2.557,2.828L23.165,104.604z M111.902,104.534l-5.094-4.92
				c0.879-0.912,1.736-1.864,2.549-2.831l5.426,4.553C113.865,102.427,112.898,103.504,111.902,104.534z M17.624,98.028
				c-0.848-1.163-1.663-2.364-2.416-3.564l6.001-3.763c0.666,1.062,1.385,2.122,2.136,3.151L17.624,98.028z M117.434,97.944
				l-5.725-4.165c0.742-1.021,1.457-2.083,2.135-3.159l6.002,3.758C119.084,95.593,118.271,96.794,117.434,97.944z M13.048,90.744
				c-0.672-1.257-1.311-2.56-1.895-3.863l6.465-2.893c0.516,1.152,1.08,2.302,1.676,3.418L13.048,90.744z M122.002,90.645
				l-6.25-3.327c0.596-1.12,1.158-2.272,1.672-3.426l6.471,2.881C123.311,88.076,122.676,89.383,122.002,90.645z M9.534,82.897
				c-0.495-1.349-0.943-2.727-1.339-4.096l6.807-1.956c0.348,1.207,0.745,2.427,1.182,3.618L9.534,82.897z M125.51,82.773
				l-6.654-2.417c0.432-1.19,0.828-2.409,1.174-3.626l6.809,1.947C126.443,80.051,125.998,81.431,125.51,82.773z M7.149,74.625
				c-0.296-1.393-0.549-2.818-0.752-4.237l7.016-0.991c0.178,1.257,0.4,2.521,0.661,3.752L7.149,74.625z M127.877,74.494
				l-6.93-1.456c0.264-1.248,0.484-2.513,0.656-3.757l7.014,0.975C128.422,71.663,128.174,73.088,127.877,74.494z M5.945,66.108
				c-0.1-1.418-0.151-2.864-0.155-4.299l7.082-0.016c0.003,1.272,0.05,2.557,0.139,3.813L5.945,66.108z M129.062,65.975
				l-7.066-0.483c0.088-1.257,0.131-2.541,0.131-3.813v-0.243h7.084v0.243C129.211,63.112,129.16,64.559,129.062,65.975z
				 M12.994,57.981L5.926,57.51c0.096-1.424,0.243-2.864,0.437-4.277l7.015,0.958C13.208,55.443,13.079,56.72,12.994,57.981z
				 M121.98,57.637c-0.092-1.259-0.229-2.533-0.41-3.79l7.01-1.003c0.203,1.417,0.361,2.856,0.463,4.279L121.98,57.637z
				 M14.027,50.436l-6.932-1.45c0.292-1.393,0.636-2.799,1.027-4.178l6.813,1.928C14.592,47.958,14.285,49.202,14.027,50.436z
				 M120.896,50.099c-0.266-1.236-0.58-2.48-0.932-3.694l6.801-1.975c0.396,1.373,0.752,2.777,1.053,4.174L120.896,50.099z
				 M16.104,43.111l-6.659-2.404c0.487-1.354,1.028-2.7,1.607-4.003l6.474,2.869C17.012,40.726,16.538,41.916,16.104,43.111z
				 M118.773,42.786c-0.436-1.183-0.92-2.366-1.438-3.519l6.455-2.908c0.588,1.303,1.135,2.643,1.627,3.98L118.773,42.786z
				 M19.191,36.144l-6.259-3.316c0.674-1.267,1.396-2.523,2.152-3.734l6.008,3.747C20.426,33.911,19.786,35.021,19.191,36.144z
				 M115.652,35.854c-0.602-1.114-1.248-2.224-1.922-3.292l5.99-3.777c0.758,1.206,1.49,2.455,2.166,3.712L115.652,35.854z
				 M23.223,29.673l-5.736-4.153c0.836-1.156,1.727-2.297,2.646-3.396l5.431,4.541C24.751,27.639,23.962,28.648,23.223,29.673z
				 M111.586,29.414c-0.746-1.021-1.539-2.026-2.357-2.993l5.404-4.575c0.924,1.092,1.82,2.229,2.666,3.38L111.586,29.414z
				 M28.111,23.826l-5.106-4.908c0.988-1.027,2.026-2.033,3.086-2.997l4.757,5.248C29.906,22.02,28.986,22.914,28.111,23.826z
				 M106.67,23.598c-0.887-0.909-1.812-1.799-2.754-2.642l4.723-5.274c1.062,0.952,2.107,1.953,3.105,2.978L106.67,23.598z
				 M33.757,18.712l-4.374-5.567c1.126-0.886,2.294-1.74,3.47-2.541l3.98,5.858C35.792,17.171,34.755,17.929,33.757,18.712z
				 M100.988,18.514c-1.002-0.776-2.041-1.529-3.09-2.232l3.943-5.883c1.188,0.797,2.361,1.646,3.49,2.523L100.988,18.514z
				 M40.057,14.429l-3.562-6.118c1.237-0.719,2.514-1.403,3.794-2.034l3.123,6.357C42.281,13.188,41.152,13.793,40.057,14.429z
				 M94.658,14.271c-1.102-0.634-2.238-1.233-3.375-1.785l3.09-6.371c1.283,0.622,2.564,1.299,3.809,2.012L94.658,14.271z
				 M46.883,11.072L44.21,4.514c1.331-0.541,2.692-1.041,4.046-1.484l2.204,6.731C49.262,10.151,48.062,10.592,46.883,11.072z
				 M87.799,10.944c-1.172-0.47-2.379-0.904-3.59-1.295l2.166-6.741c1.365,0.441,2.732,0.933,4.057,1.462L87.799,10.944z
				 M54.121,8.701l-1.731-6.868c1.388-0.349,2.804-0.653,4.213-0.904l1.24,6.973C56.597,8.123,55.345,8.392,54.121,8.701z
				 M80.541,8.616c-1.223-0.302-2.475-0.561-3.729-0.777l1.201-6.978c1.412,0.241,2.83,0.536,4.213,0.875L80.541,8.616z
				 M61.617,7.363l-0.755-7.042c1.418-0.151,2.863-0.256,4.293-0.31l0.262,7.077C64.15,7.135,62.873,7.228,61.617,7.363z
				 M73.037,7.327c-1.254-0.127-2.533-0.211-3.807-0.25L69.455,0c1.432,0.043,2.877,0.14,4.289,0.281L73.037,7.327z"/>
		</defs>
		<clipPath id="SVGID_5_">
			<use xlink:href="#SVGID_4_"  overflow="visible"/>
		</clipPath>
		<linearGradient id="SVGID_6_" gradientUnits="userSpaceOnUse" x1="4.4185" y1="62.3511" x2="130.5801" y2="62.3511">
			<stop  offset="0" style="stop-color:#CBDC41"/>
			<stop  offset="0.3541" style="stop-color:#A0CF75"/>
			<stop  offset="1" style="stop-color:#05BAB9"/>
		</linearGradient>
		<rect x="4.418" y="-2.347" clip-path="url(#SVGID_5_)" fill="url(#SVGID_6_)" width="126.162" height="129.396"/>
	</g>
</g>
</svg>
