<?xml version="1.0" encoding="utf-8"?>
<!-- Generator: Adobe Illustrator 16.0.0, SVG Export Plug-In . SVG Version: 6.00 Build 0)  -->
<!DOCTYPE svg PUBLIC "-//W3C//DTD SVG 1.1//EN" "http://www.w3.org/Graphics/SVG/1.1/DTD/svg11.dtd">
<svg version="1.1" id="Layer_1" xmlns="http://www.w3.org/2000/svg" xmlns:xlink="http://www.w3.org/1999/xlink" x="0px" y="0px"
	 width="28px" height="28px" viewBox="0 0 28 28" enable-background="new 0 0 28 28" xml:space="preserve">
<g>
	<path fill="#94318D" d="M0,0v27.999h28V0H0z M17.08,23.468c-0.493,0.096-0.669-0.207-0.669-0.467c0-0.319,0.012-1.368,0.012-2.669
		c0-0.906-0.312-1.499-0.66-1.8c2.167-0.241,4.44-1.063,4.44-4.801c0-1.06-0.377-1.928-0.998-2.608
		c0.1-0.246,0.433-1.234-0.098-2.574c0,0-0.814-0.262-2.673,0.996C15.658,9.329,14.827,9.222,14,9.219
		c-0.827,0.003-1.659,0.11-2.436,0.326C9.707,8.287,8.891,8.549,8.891,8.549c-0.529,1.34-0.195,2.328-0.096,2.574
		c-0.62,0.681-1,1.549-1,2.608c0,3.728,2.271,4.563,4.431,4.81c-0.279,0.243-0.53,0.67-0.618,1.297
		c-0.555,0.25-1.963,0.683-2.83-0.807c0,0-0.514-0.932-1.491-1.002c0,0-0.95-0.012-0.067,0.593c0,0,0.638,0.298,1.08,1.421
		c0,0,0.57,1.892,3.276,1.304c0.004,0.812,0.012,1.424,0.012,1.654c0,0.257-0.176,0.557-0.664,0.47
		c-3.866-1.287-6.652-4.932-6.652-9.229c0-5.373,4.355-9.726,9.726-9.726c5.374,0,9.728,4.353,9.728,9.726
		C23.727,18.537,20.941,22.18,17.08,23.468z"/>
</g>
</svg>
