<?xml version="1.0" encoding="utf-8"?>
<!-- Generator: Adobe Illustrator 16.0.0, SVG Export Plug-In . SVG Version: 6.00 Build 0)  -->
<!DOCTYPE svg PUBLIC "-//W3C//DTD SVG 1.1//EN" "http://www.w3.org/Graphics/SVG/1.1/DTD/svg11.dtd">
<svg version="1.1" id="Layer_1" xmlns="http://www.w3.org/2000/svg" xmlns:xlink="http://www.w3.org/1999/xlink" x="0px" y="0px"
	 width="255px" height="79px" viewBox="0 0 255 79" enable-background="new 0 0 255 79" xml:space="preserve">
<g id="Logo_2_">
	<g>
		<g>
			<linearGradient id="SVGID_1_" gradientUnits="userSpaceOnUse" x1="1.7026" y1="78.8496" x2="56.9705" y2="42.3842">
				<stop  offset="0" style="stop-color:#CBDC41"/>
				<stop  offset="0.3541" style="stop-color:#A0CF75"/>
				<stop  offset="1" style="stop-color:#05BAB9"/>
			</linearGradient>
			<path fill="url(#SVGID_1_)" d="M40.778,77.35c-0.146,0-0.292-0.038-0.424-0.112L0.431,54.373C0.164,54.221,0,53.938,0,53.633
				c-0.001-0.306,0.162-0.59,0.428-0.741l11.823-6.825c0.408-0.235,0.931-0.097,1.168,0.312c0.235,0.408,0.096,0.931-0.313,1.167
				L2.568,53.629l38.209,21.88l26.445-15.241L40.311,44.862c-0.41-0.233-0.551-0.757-0.317-1.167
				c0.235-0.409,0.757-0.551,1.167-0.316l28.202,16.145c0.266,0.152,0.43,0.435,0.431,0.74c0,0.306-0.163,0.589-0.428,0.743
				l-28.16,16.229C41.074,77.312,40.926,77.35,40.778,77.35z"/>
		</g>
		<g>
			<g>
				<linearGradient id="SVGID_2_" gradientUnits="userSpaceOnUse" x1="-9.689" y1="61.5947" x2="45.5885" y2="25.123">
					<stop  offset="0" style="stop-color:#CBDC41"/>
					<stop  offset="0.3541" style="stop-color:#A0CF75"/>
					<stop  offset="1" style="stop-color:#05BAB9"/>
				</linearGradient>
				<polygon fill="url(#SVGID_2_)" points="12.82,47.052 12.536,46.56 13.275,46.132 13.561,46.627 				"/>
			</g>
			<g>
				<linearGradient id="SVGID_3_" gradientUnits="userSpaceOnUse" x1="-9.3936" y1="62.0391" x2="45.8779" y2="25.5713">
					<stop  offset="0" style="stop-color:#CBDC41"/>
					<stop  offset="0.3541" style="stop-color:#A0CF75"/>
					<stop  offset="1" style="stop-color:#05BAB9"/>
				</linearGradient>
				<path fill="url(#SVGID_3_)" d="M14.484,46.092L14.2,45.598l1.388-0.8l0.284,0.493L14.484,46.092z M16.797,44.756l-0.285-0.492
					l1.388-0.802l0.286,0.494L16.797,44.756z M19.109,43.421l-0.285-0.493l1.387-0.801l0.285,0.493L19.109,43.421z M21.421,42.086
					l-0.285-0.493l1.387-0.8l0.284,0.493L21.421,42.086z M23.733,40.752l-0.285-0.493l1.388-0.801l0.285,0.494L23.733,40.752z
					 M26.045,39.417l-0.284-0.492l1.387-0.802l0.285,0.494L26.045,39.417z"/>
			</g>
			<g>
				<linearGradient id="SVGID_4_" gradientUnits="userSpaceOnUse" x1="-8.9131" y1="62.7275" x2="46.3314" y2="26.2775">
					<stop  offset="0" style="stop-color:#CBDC41"/>
					<stop  offset="0.3541" style="stop-color:#A0CF75"/>
					<stop  offset="1" style="stop-color:#05BAB9"/>
				</linearGradient>
				<path fill="url(#SVGID_4_)" d="M28.358,38.083l-0.285-0.494l0.74-0.427c0.087-0.051,0.196-0.051,0.283,0l0.743,0.422
					l-0.282,0.495l-0.602-0.343L28.358,38.083z"/>
			</g>
			<g>
				<linearGradient id="SVGID_5_" gradientUnits="userSpaceOnUse" x1="-5.7559" y1="67.5547" x2="49.517" y2="31.0859">
					<stop  offset="0" style="stop-color:#CBDC41"/>
					<stop  offset="0.3541" style="stop-color:#A0CF75"/>
					<stop  offset="1" style="stop-color:#05BAB9"/>
				</linearGradient>
				<path fill="url(#SVGID_5_)" d="M38.917,43.412l-1.403-0.801l0.282-0.495l1.404,0.801L38.917,43.412z M36.577,42.078l-1.404-0.8
					l0.282-0.495l1.404,0.801L36.577,42.078z M34.237,40.745l-1.405-0.8l0.284-0.494l1.404,0.799L34.237,40.745z M31.896,39.412
					l-1.403-0.8l0.283-0.495l1.403,0.799L31.896,39.412z"/>
			</g>
			<g>
				<linearGradient id="SVGID_6_" gradientUnits="userSpaceOnUse" x1="-2.6724" y1="72.3047" x2="52.6448" y2="35.8067">
					<stop  offset="0" style="stop-color:#CBDC41"/>
					<stop  offset="0.3541" style="stop-color:#A0CF75"/>
					<stop  offset="1" style="stop-color:#05BAB9"/>
				</linearGradient>
				<polygon fill="url(#SVGID_6_)" points="40.595,44.368 39.852,43.944 40.134,43.45 40.877,43.873 				"/>
			</g>
		</g>
	</g>
	<g>
		<g>
			<linearGradient id="SVGID_7_" gradientUnits="userSpaceOnUse" x1="-5.917" y1="52.9854" x2="62.1692" y2="14.5266">
				<stop  offset="0" style="stop-color:#CBDC41"/>
				<stop  offset="0.3541" style="stop-color:#A0CF75"/>
				<stop  offset="1" style="stop-color:#05BAB9"/>
			</linearGradient>
			<path fill="url(#SVGID_7_)" d="M12.678,61.232c-0.147,0-0.294-0.04-0.427-0.115c-0.265-0.151-0.428-0.437-0.428-0.741v-34.9
				c0-0.304,0.161-0.584,0.422-0.738l42.013-24.62c0.265-0.155,0.592-0.157,0.858-0.004c0.266,0.153,0.429,0.435,0.429,0.741v16.067
				c0,0.473-0.383,0.855-0.855,0.855c-0.471,0-0.854-0.382-0.854-0.855V2.347L13.532,25.965v32.929l26.775-15.514
				c0.408-0.236,0.932-0.097,1.168,0.311c0.236,0.408,0.097,0.932-0.312,1.169L13.106,61.116
				C12.975,61.192,12.826,61.232,12.678,61.232z"/>
		</g>
		<g>
			<g>
				<linearGradient id="SVGID_8_" gradientUnits="userSpaceOnUse" x1="-6.5557" y1="51.9443" x2="61.5735" y2="13.4613">
					<stop  offset="0" style="stop-color:#CBDC41"/>
					<stop  offset="0.3541" style="stop-color:#A0CF75"/>
					<stop  offset="1" style="stop-color:#05BAB9"/>
				</linearGradient>
				<rect x="54.407" y="16.921" fill="url(#SVGID_8_)" width="0.57" height="0.855"/>
			</g>
			<g>
				<linearGradient id="SVGID_9_" gradientUnits="userSpaceOnUse" x1="-2.6094" y1="58.8457" x2="65.4799" y2="20.3852">
					<stop  offset="0" style="stop-color:#CBDC41"/>
					<stop  offset="0.3541" style="stop-color:#A0CF75"/>
					<stop  offset="1" style="stop-color:#05BAB9"/>
				</linearGradient>
				<path fill="url(#SVGID_9_)" d="M54.977,34.095h-0.57v-1.632h0.57V34.095z M54.977,31.375h-0.57v-1.632h0.57V31.375z
					 M54.977,28.655h-0.57v-1.632h0.57V28.655z M54.977,25.935h-0.57v-1.631h0.57V25.935z M54.977,23.215h-0.57v-1.632h0.57V23.215z
					 M54.977,20.496h-0.57v-1.632h0.57V20.496z"/>
			</g>
			<g>
				<linearGradient id="SVGID_10_" gradientUnits="userSpaceOnUse" x1="1.3281" y1="65.8428" x2="69.4316" y2="27.3742">
					<stop  offset="0" style="stop-color:#CBDC41"/>
					<stop  offset="0.3541" style="stop-color:#A0CF75"/>
					<stop  offset="1" style="stop-color:#05BAB9"/>
				</linearGradient>
				<path fill="url(#SVGID_10_)" d="M54.097,36.713l-0.288-0.493l0.598-0.348v-0.69h0.57v0.854c0,0.102-0.054,0.196-0.143,0.247
					L54.097,36.713z"/>
			</g>
			<g>
				<linearGradient id="SVGID_11_" gradientUnits="userSpaceOnUse" x1="1.54" y1="66.1895" x2="69.6281" y2="27.7296">
					<stop  offset="0" style="stop-color:#CBDC41"/>
					<stop  offset="0.3541" style="stop-color:#A0CF75"/>
					<stop  offset="1" style="stop-color:#05BAB9"/>
				</linearGradient>
				<path fill="url(#SVGID_11_)" d="M42.634,43.401l-0.288-0.493l1.376-0.802l0.287,0.492L42.634,43.401z M44.925,42.062
					l-0.287-0.49l1.376-0.803l0.287,0.491L44.925,42.062z M47.219,40.726l-0.287-0.491l1.375-0.804l0.287,0.492L47.219,40.726z
					 M49.512,39.389l-0.288-0.492l1.376-0.803l0.288,0.492L49.512,39.389z M51.805,38.051l-0.288-0.492l1.375-0.802l0.287,0.49
					L51.805,38.051z"/>
			</g>
			<g>
				<linearGradient id="SVGID_12_" gradientUnits="userSpaceOnUse" x1="1.5527" y1="66.3018" x2="69.7077" y2="27.8041">
					<stop  offset="0" style="stop-color:#CBDC41"/>
					<stop  offset="0.3541" style="stop-color:#A0CF75"/>
					<stop  offset="1" style="stop-color:#05BAB9"/>
				</linearGradient>
				<polygon fill="url(#SVGID_12_)" points="40.978,44.366 40.69,43.874 41.43,43.444 41.717,43.936 				"/>
			</g>
		</g>
	</g>
	<g>
		<g>
			<linearGradient id="SVGID_13_" gradientUnits="userSpaceOnUse" x1="55.0815" y1="13.938" x2="54.7957" y2="85.1058">
				<stop  offset="0" style="stop-color:#CBDC41"/>
				<stop  offset="0.3541" style="stop-color:#A0CF75"/>
				<stop  offset="1" style="stop-color:#05BAB9"/>
			</linearGradient>
			<path fill="url(#SVGID_13_)" d="M69.193,79c-0.146,0-0.294-0.037-0.426-0.114l-15.624-8.981c-0.409-0.234-0.55-0.757-0.315-1.166
				c0.235-0.41,0.758-0.551,1.167-0.315l14.355,8.252l0.012-51.037L41.586,10.489v33.632c0,0.473-0.384,0.854-0.855,0.854
				c-0.472,0-0.855-0.382-0.855-0.854V9.024c0-0.304,0.162-0.585,0.424-0.739c0.263-0.153,0.588-0.155,0.852-0.005l28.489,16.117
				c0.271,0.154,0.436,0.441,0.434,0.751l-0.028,53.002c-0.002,0.305-0.166,0.585-0.43,0.734C69.487,78.963,69.339,79,69.193,79z"/>
		</g>
		<g>
			<g>
				<linearGradient id="SVGID_14_" gradientUnits="userSpaceOnUse" x1="53.4189" y1="13.9639" x2="53.1343" y2="84.8292">
					<stop  offset="0" style="stop-color:#CBDC41"/>
					<stop  offset="0.3541" style="stop-color:#A0CF75"/>
					<stop  offset="1" style="stop-color:#05BAB9"/>
				</linearGradient>
				<polygon fill="url(#SVGID_14_)" points="53.427,69.41 52.686,68.985 52.969,68.491 53.71,68.916 				"/>
			</g>
			<g>
				<linearGradient id="SVGID_15_" gradientUnits="userSpaceOnUse" x1="47.3579" y1="13.9009" x2="47.0731" y2="84.8144">
					<stop  offset="0" style="stop-color:#CBDC41"/>
					<stop  offset="0.3541" style="stop-color:#A0CF75"/>
					<stop  offset="1" style="stop-color:#05BAB9"/>
				</linearGradient>
				<path fill="url(#SVGID_15_)" d="M51.654,68.392l-1.548-0.889l0.283-0.494l1.549,0.89L51.654,68.392z M49.072,66.911
					l-1.548-0.891l0.284-0.494l1.549,0.891L49.072,66.911z M46.492,65.429l-1.548-0.89l0.284-0.493l1.548,0.889L46.492,65.429z
					 M43.911,63.947l-1.548-0.888l0.284-0.496l1.548,0.89L43.911,63.947z"/>
			</g>
			<g>
				<linearGradient id="SVGID_16_" gradientUnits="userSpaceOnUse" x1="41.2222" y1="13.8662" x2="40.9373" y2="84.7929">
					<stop  offset="0" style="stop-color:#CBDC41"/>
					<stop  offset="0.3541" style="stop-color:#A0CF75"/>
					<stop  offset="1" style="stop-color:#05BAB9"/>
				</linearGradient>
				<path fill="url(#SVGID_16_)" d="M41.332,62.464l-0.743-0.424c-0.088-0.051-0.143-0.146-0.143-0.247v-0.856h0.57v0.689
					l0.599,0.345L41.332,62.464z"/>
			</g>
			<g>
				<linearGradient id="SVGID_17_" gradientUnits="userSpaceOnUse" x1="40.8887" y1="13.8618" x2="40.6038" y2="84.7965">
					<stop  offset="0" style="stop-color:#CBDC41"/>
					<stop  offset="0.3541" style="stop-color:#A0CF75"/>
					<stop  offset="1" style="stop-color:#05BAB9"/>
				</linearGradient>
				<path fill="url(#SVGID_17_)" d="M41.017,59.756h-0.57v-1.774h0.57V59.756z M41.017,56.799h-0.57v-1.774h0.57V56.799z
					 M41.017,53.843h-0.57v-1.773h0.57V53.843z M41.017,50.886h-0.57v-1.773h0.57V50.886z M41.017,47.931h-0.57v-1.772h0.57V47.931z
					"/>
			</g>
			<g>
				<linearGradient id="SVGID_18_" gradientUnits="userSpaceOnUse" x1="40.855" y1="13.8604" x2="40.5701" y2="84.7965">
					<stop  offset="0" style="stop-color:#CBDC41"/>
					<stop  offset="0.3541" style="stop-color:#A0CF75"/>
					<stop  offset="1" style="stop-color:#05BAB9"/>
				</linearGradient>
				<rect x="40.446" y="44.121" fill="url(#SVGID_18_)" width="0.57" height="0.854"/>
			</g>
		</g>
	</g>
	<g>
		<path fill="#FDFEFF" d="M109.582,68.248c-0.797,0-1.479-0.283-2.047-0.853c-0.57-0.569-0.855-1.251-0.855-2.049V53.67H91.663
			v11.677c0,0.798-0.276,1.479-0.828,2.049c-0.57,0.569-1.252,0.853-2.049,0.853c-0.796,0-1.479-0.283-2.047-0.853
			c-0.569-0.569-0.854-1.251-0.854-2.049V36.216c0-0.795,0.285-1.478,0.854-2.047c0.568-0.568,1.25-0.853,2.047-0.853
			c0.797,0,1.479,0.284,2.049,0.853c0.552,0.569,0.828,1.251,0.828,2.047v11.677h15.017V36.216c0-0.795,0.285-1.478,0.855-2.047
			c0.568-0.568,1.25-0.853,2.047-0.853c0.796,0,1.479,0.284,2.047,0.853c0.569,0.569,0.854,1.251,0.854,2.047v29.131
			c0,0.798-0.284,1.479-0.854,2.049C111.06,67.965,110.378,68.248,109.582,68.248z"/>
		<path fill="#FDFEFF" d="M144.603,34.023c0.617,0.488,0.975,1.122,1.072,1.9c0.081,0.797-0.131,1.504-0.634,2.122l-10.557,13.211
			v14.115c0,0.797-0.285,1.479-0.854,2.049c-0.551,0.552-1.228,0.827-2.022,0.827c-0.797,0-1.472-0.275-2.023-0.827
			c-0.569-0.57-0.854-1.252-0.854-2.049V51.257l-10.556-13.211c-0.504-0.618-0.708-1.325-0.61-2.122
			c0.083-0.778,0.432-1.413,1.048-1.9c0.618-0.503,1.325-0.714,2.121-0.634c0.78,0.097,1.422,0.456,1.926,1.073l8.948,11.213
			l8.971-11.213c0.488-0.618,1.121-0.976,1.901-1.073C143.276,33.309,143.983,33.52,144.603,34.023z"/>
		<path fill="#FDFEFF" d="M163.935,33.218c3.022,0,5.6,1,7.729,2.998c2.144,2,3.217,4.405,3.217,7.217
			c0,2.763-1.033,5.136-3.098,7.118c-2.047,1.967-4.534,3-7.458,3.096H164.3h-0.024h-0.048c-0.181,0.017-0.277,0.023-0.293,0.023
			l-0.146-0.023h-7.143v11.726c0,0.797-0.276,1.47-0.829,2.023c-0.569,0.569-1.253,0.853-2.048,0.853
			c-0.797,0-1.47-0.283-2.023-0.853c-0.569-0.554-0.854-1.227-0.854-2.023V36.095c0-0.795,0.284-1.47,0.854-2.022
			c0.554-0.57,1.227-0.855,2.023-0.855H163.935z M164.104,47.893c1.383-0.03,2.561-0.479,3.536-1.339
			c0.976-0.878,1.465-1.919,1.465-3.121c0-1.218-0.505-2.267-1.514-3.145c-1.008-0.878-2.227-1.316-3.656-1.316h-7.289v8.921
			H164.104z"/>
		<path fill="#FDFEFF" d="M200.467,62.471c0.796,0,1.472,0.286,2.024,0.855c0.568,0.568,0.853,1.251,0.853,2.046
			c0,0.797-0.284,1.47-0.853,2.023c-0.553,0.569-1.229,0.853-2.024,0.853h-17.65c-0.797,0-1.471-0.283-2.024-0.853
			c-0.568-0.554-0.853-1.227-0.853-2.023V36.144c0-0.813,0.284-1.496,0.853-2.047c0.554-0.569,1.228-0.854,2.024-0.854h0.022
			l17.628,0.048c0.796,0,1.479,0.286,2.049,0.854c0.552,0.569,0.828,1.252,0.828,2.047c0,0.798-0.284,1.472-0.853,2.024
			c-0.553,0.569-1.229,0.853-2.024,0.853h-0.024l-14.724-0.049v8.85h10.629c0.794,0,1.477,0.275,2.047,0.828
			c0.567,0.568,0.854,1.252,0.854,2.048c0,0.797-0.286,1.479-0.854,2.048c-0.57,0.552-1.253,0.827-2.047,0.827h-10.629v8.85H200.467
			z"/>
		<path fill="#FDFEFF" d="M232.222,43.407c0,2.147-0.668,4.088-2,5.826c-1.283,1.724-2.974,2.95-5.071,3.682l5.535,11.215
			c0.341,0.698,0.381,1.421,0.121,2.167c-0.243,0.749-0.724,1.302-1.439,1.659c-0.405,0.195-0.827,0.292-1.266,0.292
			c-1.187,0-2.04-0.536-2.561-1.607l-6.46-13.09h-4.949v11.627c0,0.778-0.285,1.453-0.854,2.023
			c-0.552,0.551-1.229,0.827-2.024,0.827c-0.778,0-1.454-0.276-2.022-0.827c-0.553-0.57-0.829-1.245-0.829-2.023V36.12
			c0-0.797,0.276-1.471,0.829-2.023c0.568-0.569,1.244-0.854,2.022-0.854h10.095c3.006,0,5.566,0.991,7.678,2.973
			C231.155,38.2,232.222,40.598,232.222,43.407z M221.543,47.82c1.365-0.049,2.536-0.496,3.511-1.341
			c0.957-0.86,1.438-1.885,1.438-3.072c0-1.234-0.504-2.282-1.512-3.142c-1.008-0.863-2.217-1.293-3.631-1.293h-7.217v8.849H221.543
			z"/>
		<path fill="#FDFEFF" d="M252.148,64.981c0.78,0,1.453,0.277,2.022,0.829c0.553,0.553,0.829,1.218,0.829,2
			c0,0.795-0.276,1.469-0.829,2.023c-0.569,0.552-1.242,0.827-2.022,0.827h-12.069c-0.797,0-1.472-0.275-2.022-0.827
			c-0.555-0.555-0.829-1.229-0.829-2.023c0-0.782,0.274-1.447,0.829-2c0.551-0.552,1.226-0.829,2.022-0.829H252.148z"/>
	</g>
</g>
</svg>
