<?xml version="1.0" encoding="utf-8"?>
<!-- Generator: Adobe Illustrator 16.0.0, SVG Export Plug-In . SVG Version: 6.00 Build 0)  -->
<!DOCTYPE svg PUBLIC "-//W3C//DTD SVG 1.1//EN" "http://www.w3.org/Graphics/SVG/1.1/DTD/svg11.dtd">
<svg version="1.1" id="Layer_1" xmlns="http://www.w3.org/2000/svg" xmlns:xlink="http://www.w3.org/1999/xlink" x="0px" y="0px"
	 width="300px" height="90px" viewBox="0 0 300 90" enable-background="new 0 0 300 90" xml:space="preserve">
<g>
	<g id="Logo_4_">
		<g>
			<g>
				<linearGradient id="SVGID_1_" gradientUnits="userSpaceOnUse" x1="1.938" y1="90.0615" x2="65.483" y2="48.1349">
					<stop  offset="0" style="stop-color:#CBDC41"/>
					<stop  offset="0.3541" style="stop-color:#A0CF75"/>
					<stop  offset="1" style="stop-color:#05BAB9"/>
				</linearGradient>
				<path fill="url(#SVGID_1_)" d="M46.863,88.123c-0.167,0-0.337-0.044-0.488-0.131L0.496,61.946C0.189,61.771,0,61.45,0,61.102
					c-0.002-0.349,0.186-0.671,0.493-0.845l13.586-7.776c0.469-0.268,1.069-0.108,1.342,0.356c0.27,0.466,0.109,1.06-0.361,1.33
					L2.953,61.098l43.91,24.928l30.391-17.363L46.328,51.108c-0.474-0.266-0.636-0.861-0.367-1.326
					c0.27-0.469,0.869-0.629,1.34-0.362l32.411,18.392c0.306,0.176,0.494,0.497,0.494,0.846c0,0.347-0.184,0.67-0.491,0.846
					L47.354,87.991C47.202,88.077,47.034,88.123,46.863,88.123z"/>
			</g>
			<g>
				<g>
					<linearGradient id="SVGID_2_" gradientUnits="userSpaceOnUse" x1="-10.9834" y1="70.2227" x2="52.1735" y2="28.5521">
						<stop  offset="0" style="stop-color:#CBDC41"/>
						<stop  offset="0.3541" style="stop-color:#A0CF75"/>
						<stop  offset="1" style="stop-color:#05BAB9"/>
					</linearGradient>
					<polygon fill="url(#SVGID_2_)" points="14.732,53.605 14.406,53.044 15.255,52.557 15.584,53.119 					"/>
				</g>
				<g>
					<linearGradient id="SVGID_3_" gradientUnits="userSpaceOnUse" x1="-10.7031" y1="70.8174" x2="52.6506" y2="29.0169">
						<stop  offset="0" style="stop-color:#CBDC41"/>
						<stop  offset="0.3541" style="stop-color:#A0CF75"/>
						<stop  offset="1" style="stop-color:#05BAB9"/>
					</linearGradient>
					<path fill="url(#SVGID_3_)" d="M16.646,52.51l-0.327-0.562l1.595-0.912l0.326,0.562L16.646,52.51z M19.302,50.988l-0.327-0.562
						l1.595-0.912l0.328,0.563L19.302,50.988z M21.962,49.47l-0.33-0.562l1.594-0.913l0.329,0.562L21.962,49.47z M24.618,47.947
						l-0.328-0.562l1.594-0.912l0.329,0.562L24.618,47.947z M27.276,46.427l-0.329-0.562l1.593-0.913l0.33,0.562L27.276,46.427z
						 M29.932,44.906l-0.326-0.561l1.594-0.914l0.328,0.562L29.932,44.906z"/>
				</g>
				<g>
					<linearGradient id="SVGID_4_" gradientUnits="userSpaceOnUse" x1="-10.1758" y1="71.665" x2="53.2134" y2="29.8412">
						<stop  offset="0" style="stop-color:#CBDC41"/>
						<stop  offset="0.3541" style="stop-color:#A0CF75"/>
						<stop  offset="1" style="stop-color:#05BAB9"/>
					</linearGradient>
					<path fill="url(#SVGID_4_)" d="M32.591,43.385l-0.328-0.562l0.849-0.487c0.101-0.057,0.225-0.057,0.327-0.001l0.854,0.482
						l-0.324,0.563l-0.691-0.39L32.591,43.385z"/>
				</g>
				<g>
					<linearGradient id="SVGID_5_" gradientUnits="userSpaceOnUse" x1="-6.7979" y1="77.3486" x2="56.9697" y2="35.2752">
						<stop  offset="0" style="stop-color:#CBDC41"/>
						<stop  offset="0.3541" style="stop-color:#A0CF75"/>
						<stop  offset="1" style="stop-color:#05BAB9"/>
					</linearGradient>
					<path fill="url(#SVGID_5_)" d="M44.724,49.458l-1.613-0.911l0.323-0.565l1.613,0.912L44.724,49.458z M42.034,47.939
						l-1.612-0.912l0.324-0.564l1.614,0.912L42.034,47.939z M39.345,46.419l-1.613-0.911l0.325-0.565l1.612,0.912L39.345,46.419z
						 M36.657,44.901l-1.615-0.913l0.326-0.563l1.613,0.912L36.657,44.901z"/>
				</g>
				<g>
					<linearGradient id="SVGID_6_" gradientUnits="userSpaceOnUse" x1="-3.0083" y1="82.6152" x2="60.4828" y2="40.7242">
						<stop  offset="0" style="stop-color:#CBDC41"/>
						<stop  offset="0.3541" style="stop-color:#A0CF75"/>
						<stop  offset="1" style="stop-color:#05BAB9"/>
					</linearGradient>
					<polygon fill="url(#SVGID_6_)" points="46.653,50.547 45.798,50.064 46.121,49.502 46.976,49.982 					"/>
				</g>
			</g>
		</g>
		<g>
			<g>
				<linearGradient id="SVGID_7_" gradientUnits="userSpaceOnUse" x1="-6.6289" y1="60.4863" x2="71.32" y2="16.4566">
					<stop  offset="0" style="stop-color:#CBDC41"/>
					<stop  offset="0.3541" style="stop-color:#A0CF75"/>
					<stop  offset="1" style="stop-color:#05BAB9"/>
				</linearGradient>
				<path fill="url(#SVGID_7_)" d="M14.57,69.758c-0.17,0-0.339-0.043-0.49-0.131c-0.304-0.172-0.495-0.494-0.495-0.844v-39.76
					c0-0.347,0.188-0.666,0.488-0.84L62.354,0.134c0.305-0.176,0.681-0.179,0.986-0.005c0.306,0.174,0.494,0.496,0.494,0.844v18.305
					c0,0.537-0.44,0.973-0.982,0.973c-0.542,0-0.982-0.436-0.982-0.973V2.672L15.551,29.58v37.516l30.771-17.674
					c0.469-0.268,1.068-0.112,1.343,0.354c0.271,0.465,0.11,1.061-0.358,1.33L15.061,69.625
					C14.909,69.715,14.739,69.758,14.57,69.758z"/>
			</g>
			<g>
				<g>
					<linearGradient id="SVGID_8_" gradientUnits="userSpaceOnUse" x1="-7.2827" y1="59.3799" x2="70.7321" y2="15.3129">
						<stop  offset="0" style="stop-color:#CBDC41"/>
						<stop  offset="0.3541" style="stop-color:#A0CF75"/>
						<stop  offset="1" style="stop-color:#05BAB9"/>
					</linearGradient>
					<rect x="62.524" y="19.278" fill="url(#SVGID_8_)" width="0.656" height="0.973"/>
				</g>
				<g>
					<linearGradient id="SVGID_9_" gradientUnits="userSpaceOnUse" x1="-2.4727" y1="67.0645" x2="75.151" y2="23.2184">
						<stop  offset="0" style="stop-color:#CBDC41"/>
						<stop  offset="0.3541" style="stop-color:#A0CF75"/>
						<stop  offset="1" style="stop-color:#05BAB9"/>
					</linearGradient>
					<path fill="url(#SVGID_9_)" d="M63.18,38.842h-0.656v-1.859h0.656V38.842z M63.18,35.744h-0.656v-1.859h0.656V35.744z
						 M63.18,32.645h-0.656v-1.859h0.656V32.645z M63.18,29.546h-0.656v-1.858h0.656V29.546z M63.18,26.449h-0.656v-1.86h0.656
						V26.449z M63.18,23.351h-0.656v-1.86h0.656V23.351z"/>
				</g>
				<g>
					<linearGradient id="SVGID_10_" gradientUnits="userSpaceOnUse" x1="1.6216" y1="75.2539" x2="79.7621" y2="31.1159">
						<stop  offset="0" style="stop-color:#CBDC41"/>
						<stop  offset="0.3541" style="stop-color:#A0CF75"/>
						<stop  offset="1" style="stop-color:#05BAB9"/>
					</linearGradient>
					<path fill="url(#SVGID_10_)" d="M62.168,41.827l-0.332-0.562l0.687-0.398v-0.786h0.656v0.973c0,0.115-0.062,0.223-0.162,0.281
						L62.168,41.827z"/>
				</g>
				<g>
					<linearGradient id="SVGID_11_" gradientUnits="userSpaceOnUse" x1="1.8745" y1="75.6084" x2="79.9678" y2="31.4971">
						<stop  offset="0" style="stop-color:#CBDC41"/>
						<stop  offset="0.3541" style="stop-color:#A0CF75"/>
						<stop  offset="1" style="stop-color:#05BAB9"/>
					</linearGradient>
					<path fill="url(#SVGID_11_)" d="M48.996,49.445l-0.332-0.562l1.582-0.914l0.331,0.56L48.996,49.445z M51.629,47.92l-0.33-0.559
						l1.58-0.915l0.331,0.56L51.629,47.92z M54.264,46.396l-0.33-0.559l1.581-0.915l0.33,0.56L54.264,46.396z M56.9,44.873
						l-0.331-0.56l1.581-0.914l0.33,0.559L56.9,44.873z M59.534,43.35l-0.33-0.56l1.581-0.913l0.329,0.559L59.534,43.35z"/>
				</g>
				<g>
					<linearGradient id="SVGID_12_" gradientUnits="userSpaceOnUse" x1="1.7842" y1="75.7588" x2="80.1104" y2="31.5159">
						<stop  offset="0" style="stop-color:#CBDC41"/>
						<stop  offset="0.3541" style="stop-color:#A0CF75"/>
						<stop  offset="1" style="stop-color:#05BAB9"/>
					</linearGradient>
					<polygon fill="url(#SVGID_12_)" points="47.093,50.545 46.763,49.984 47.61,49.494 47.942,50.055 					"/>
				</g>
			</g>
		</g>
		<g>
			<g>
				<linearGradient id="SVGID_13_" gradientUnits="userSpaceOnUse" x1="63.2979" y1="15.8794" x2="62.9723" y2="96.9554">
					<stop  offset="0" style="stop-color:#CBDC41"/>
					<stop  offset="0.3541" style="stop-color:#A0CF75"/>
					<stop  offset="1" style="stop-color:#05BAB9"/>
				</linearGradient>
				<path fill="url(#SVGID_13_)" d="M79.517,90c-0.169,0-0.339-0.043-0.489-0.13L61.071,79.642
					c-0.471-0.267-0.632-0.863-0.361-1.332c0.27-0.465,0.871-0.627,1.339-0.356l16.499,9.398l0.014-58.143L47.791,11.95v38.315
					c0,0.538-0.439,0.974-0.983,0.974c-0.542,0-0.981-0.436-0.981-0.974V10.281c0-0.347,0.186-0.666,0.487-0.841
					c0.302-0.175,0.674-0.177,0.979-0.006l32.74,18.362c0.312,0.175,0.5,0.502,0.498,0.856l-0.034,60.383
					c-0.002,0.347-0.188,0.666-0.492,0.836C79.855,89.957,79.686,90,79.517,90z"/>
			</g>
			<g>
				<g>
					<linearGradient id="SVGID_14_" gradientUnits="userSpaceOnUse" x1="61.3877" y1="15.8081" x2="61.0629" y2="96.6731">
						<stop  offset="0" style="stop-color:#CBDC41"/>
						<stop  offset="0.3541" style="stop-color:#A0CF75"/>
						<stop  offset="1" style="stop-color:#05BAB9"/>
					</linearGradient>
					<polygon fill="url(#SVGID_14_)" points="61.398,79.078 60.546,78.593 60.872,78.029 61.725,78.516 					"/>
				</g>
				<g>
					<linearGradient id="SVGID_15_" gradientUnits="userSpaceOnUse" x1="54.4214" y1="15.8379" x2="54.0969" y2="96.6282">
						<stop  offset="0" style="stop-color:#CBDC41"/>
						<stop  offset="0.3541" style="stop-color:#A0CF75"/>
						<stop  offset="1" style="stop-color:#05BAB9"/>
					</linearGradient>
					<path fill="url(#SVGID_15_)" d="M59.361,77.918l-1.78-1.015l0.326-0.563l1.779,1.016L59.361,77.918z M56.395,76.228
						l-1.78-1.013l0.327-0.562l1.78,1.011L56.395,76.228z M53.43,74.539l-1.779-1.013l0.325-0.562l1.779,1.011L53.43,74.539z
						 M50.464,72.852l-1.779-1.011l0.325-0.562l1.779,1.01L50.464,72.852z"/>
				</g>
				<g>
					<linearGradient id="SVGID_16_" gradientUnits="userSpaceOnUse" x1="47.3701" y1="15.8164" x2="47.0457" y2="96.5934">
						<stop  offset="0" style="stop-color:#CBDC41"/>
						<stop  offset="0.3541" style="stop-color:#A0CF75"/>
						<stop  offset="1" style="stop-color:#05BAB9"/>
					</linearGradient>
					<path fill="url(#SVGID_16_)" d="M47.499,71.163l-0.854-0.484c-0.103-0.059-0.165-0.166-0.165-0.281v-0.974h0.657v0.785
						l0.687,0.393L47.499,71.163z"/>
				</g>
				<g>
					<linearGradient id="SVGID_17_" gradientUnits="userSpaceOnUse" x1="46.9883" y1="15.7959" x2="46.6638" y2="96.6018">
						<stop  offset="0" style="stop-color:#CBDC41"/>
						<stop  offset="0.3541" style="stop-color:#A0CF75"/>
						<stop  offset="1" style="stop-color:#05BAB9"/>
					</linearGradient>
					<path fill="url(#SVGID_17_)" d="M47.137,68.077H46.48v-2.021h0.657V68.077z M47.137,64.708H46.48v-2.021h0.657V64.708z
						 M47.137,61.342H46.48v-2.021h0.657V61.342z M47.137,57.973H46.48v-2.021h0.657V57.973z M47.137,54.606H46.48v-2.02h0.657
						V54.606z"/>
				</g>
				<g>
					<linearGradient id="SVGID_18_" gradientUnits="userSpaceOnUse" x1="46.9502" y1="15.7974" x2="46.6257" y2="96.5958">
						<stop  offset="0" style="stop-color:#CBDC41"/>
						<stop  offset="0.3541" style="stop-color:#A0CF75"/>
						<stop  offset="1" style="stop-color:#05BAB9"/>
					</linearGradient>
					<rect x="46.48" y="50.265" fill="url(#SVGID_18_)" width="0.657" height="0.974"/>
				</g>
			</g>
		</g>
	</g>
	<g>
		<path fill="#303030" d="M132.885,77.752c-0.916,0-1.701-0.323-2.353-0.972c-0.655-0.646-0.98-1.425-0.98-2.332V61.145h-17.26
			v13.304c0,0.907-0.317,1.687-0.952,2.332c-0.655,0.648-1.438,0.972-2.354,0.972c-0.916,0-1.699-0.323-2.354-0.972
			c-0.652-0.646-0.98-1.425-0.98-2.332V41.259c0-0.906,0.329-1.684,0.98-2.332c0.655-0.648,1.438-0.971,2.354-0.971
			c0.915,0,1.699,0.323,2.354,0.971c0.635,0.648,0.952,1.426,0.952,2.332v13.304h17.26V41.259c0-0.906,0.325-1.684,0.98-2.332
			c0.652-0.648,1.437-0.971,2.353-0.971c0.917,0,1.699,0.323,2.355,0.971c0.651,0.648,0.979,1.426,0.979,2.332v33.189
			c0,0.907-0.328,1.687-0.979,2.332C134.584,77.429,133.802,77.752,132.885,77.752z"/>
		<path fill="#303030" d="M173.131,38.76c0.711,0.556,1.12,1.278,1.233,2.166c0.095,0.909-0.151,1.713-0.729,2.417l-12.131,15.053
			v16.082c0,0.905-0.326,1.685-0.981,2.331c-0.634,0.63-1.409,0.943-2.322,0.943c-0.918,0-1.692-0.313-2.327-0.943
			c-0.655-0.646-0.981-1.426-0.981-2.331V58.396l-12.13-15.053c-0.579-0.704-0.812-1.507-0.7-2.417
			c0.094-0.887,0.495-1.61,1.204-2.166c0.71-0.573,1.522-0.813,2.438-0.721c0.896,0.11,1.633,0.517,2.213,1.222L158.2,52.037
			l10.308-12.776c0.561-0.705,1.29-1.112,2.187-1.222C171.608,37.947,172.419,38.188,173.131,38.76z"/>
		<path fill="#303030" d="M195.347,37.843c3.475,0,6.435,1.139,8.884,3.416c2.463,2.279,3.696,5.018,3.696,8.222
			c0,3.147-1.187,5.851-3.558,8.11c-2.354,2.24-5.211,3.415-8.571,3.526h-0.027h-0.029h-0.057c-0.206,0.017-0.319,0.026-0.338,0.026
			l-0.167-0.026h-8.207v13.359c0,0.905-0.318,1.675-0.953,2.303c-0.654,0.648-1.438,0.972-2.354,0.972
			c-0.914,0-1.689-0.323-2.324-0.972c-0.657-0.628-0.982-1.397-0.982-2.303V41.122c0-0.907,0.325-1.676,0.982-2.306
			c0.635-0.648,1.41-0.973,2.324-0.973H195.347z M195.545,54.563c1.586-0.037,2.941-0.547,4.062-1.527
			c1.12-0.999,1.683-2.186,1.683-3.555c0-1.39-0.581-2.584-1.738-3.583c-1.157-1-2.559-1.5-4.204-1.5h-8.374v10.166H195.545z"/>
		<path fill="#303030" d="M237.33,71.171c0.917,0,1.691,0.325,2.328,0.975c0.652,0.646,0.981,1.426,0.981,2.332
			c0,0.905-0.329,1.675-0.981,2.303c-0.637,0.648-1.411,0.972-2.328,0.972h-20.282c-0.917,0-1.691-0.323-2.327-0.972
			c-0.652-0.628-0.98-1.397-0.98-2.303V41.177c0-0.926,0.328-1.704,0.98-2.333c0.636-0.648,1.41-0.972,2.327-0.972h0.026
			l20.256,0.055c0.917,0,1.7,0.324,2.354,0.972c0.636,0.648,0.955,1.426,0.955,2.333c0,0.908-0.329,1.676-0.981,2.306
			c-0.637,0.648-1.411,0.971-2.328,0.971h-0.026l-16.923-0.055v10.081h12.216c0.914,0,1.697,0.315,2.354,0.945
			c0.653,0.648,0.981,1.426,0.981,2.333s-0.328,1.685-0.981,2.334c-0.656,0.628-1.439,0.942-2.354,0.942h-12.216v10.081H237.33z"/>
		<path fill="#303030" d="M273.822,49.453c0,2.444-0.766,4.657-2.298,6.638c-1.475,1.963-3.417,3.359-5.826,4.191l6.358,12.777
			c0.393,0.797,0.439,1.621,0.142,2.471c-0.279,0.853-0.832,1.483-1.651,1.889c-0.469,0.225-0.955,0.333-1.457,0.333
			c-1.366,0-2.344-0.611-2.942-1.83l-7.424-14.915h-5.689v13.247c0,0.888-0.328,1.656-0.979,2.305
			c-0.635,0.629-1.413,0.944-2.326,0.944c-0.896,0-1.673-0.315-2.323-0.944c-0.638-0.648-0.955-1.417-0.955-2.305V41.149
			c0-0.907,0.317-1.676,0.955-2.305c0.65-0.648,1.428-0.972,2.323-0.972h11.6c3.455,0,6.395,1.129,8.825,3.387
			C272.601,43.519,273.822,46.25,273.822,49.453z M261.554,54.48c1.568-0.056,2.911-0.565,4.031-1.528
			c1.102-0.981,1.654-2.148,1.654-3.499c0-1.405-0.579-2.601-1.736-3.582c-1.158-0.981-2.551-1.473-4.174-1.473h-8.295V54.48
			H261.554z"/>
		<path fill="#303030" d="M296.721,74.031c0.896,0,1.672,0.316,2.325,0.945c0.636,0.629,0.954,1.387,0.954,2.277
			c0,0.907-0.318,1.674-0.954,2.305c-0.653,0.63-1.429,0.945-2.325,0.945h-13.865c-0.916,0-1.692-0.315-2.327-0.945
			c-0.635-0.631-0.951-1.397-0.951-2.305c0-0.891,0.316-1.648,0.951-2.277s1.411-0.945,2.327-0.945H296.721z"/>
	</g>
</g>
</svg>
