<?xml version="1.0" encoding="utf-8"?>
<!-- Generator: Adobe Illustrator 16.0.0, SVG Export Plug-In . SVG Version: 6.00 Build 0)  -->
<!DOCTYPE svg PUBLIC "-//W3C//DTD SVG 1.1//EN" "http://www.w3.org/Graphics/SVG/1.1/DTD/svg11.dtd">
<svg version="1.1" id="Layer_1" xmlns="http://www.w3.org/2000/svg" xmlns:xlink="http://www.w3.org/1999/xlink" x="0px" y="0px"
	 width="20px" height="20px" viewBox="0 0 20 20" enable-background="new 0 0 20 20" xml:space="preserve">
<g id="SEE_MORE_1_">
	<path fill="#94318D" d="M9.999,0C4.486,0,0,4.486,0,10c0,5.516,4.486,10,9.999,10C15.514,20,20,15.516,20,10
		C20,4.486,15.514,0,9.999,0z M9.999,18.18c-4.509,0-8.177-3.671-8.177-8.18c0-4.509,3.668-8.178,8.177-8.178
		c4.511,0,8.177,3.668,8.177,8.178C18.176,14.509,14.51,18.18,9.999,18.18z"/>
	<path fill="#94318D" d="M14.109,9.01h-3.016V5.996c0-0.605-0.489-1.096-1.095-1.096c-0.605,0-1.095,0.49-1.095,1.096V9.01H5.89
		c-0.606,0-1.096,0.49-1.096,1.096c0,0.606,0.49,1.097,1.096,1.097h3.014v3.013c0,0.604,0.49,1.097,1.095,1.097
		c0.605,0,1.095-0.492,1.095-1.097v-3.013h3.016c0.605,0,1.094-0.49,1.094-1.097C15.203,9.5,14.715,9.01,14.109,9.01z"/>
</g>
</svg>
