<?xml version="1.0" encoding="UTF-8" standalone="no"?>
<svg
   xmlns:dc="http://purl.org/dc/elements/1.1/"
   xmlns:cc="http://creativecommons.org/ns#"
   xmlns:rdf="http://www.w3.org/1999/02/22-rdf-syntax-ns#"
   xmlns:svg="http://www.w3.org/2000/svg"
   xmlns="http://www.w3.org/2000/svg"
   xmlns:sodipodi="http://sodipodi.sourceforge.net/DTD/sodipodi-0.dtd"
   xmlns:inkscape="http://www.inkscape.org/namespaces/inkscape"
   width="28"
   height="28"
   viewBox="0 0 28 28"
   id="svg3600"
   version="1.1"
   inkscape:version="0.91 r13725"
   sodipodi:docname="slack.svg">
  <metadata
     id="metadata3608">
    <rdf:RDF>
      <cc:Work
         rdf:about="">
        <dc:format>image/svg+xml</dc:format>
        <dc:type
           rdf:resource="http://purl.org/dc/dcmitype/StillImage" />
        <dc:title />
      </cc:Work>
    </rdf:RDF>
  </metadata>
  <defs
     id="defs3606" />
  <sodipodi:namedview
     pagecolor="#ffffff"
     bordercolor="#666666"
     borderopacity="1"
     objecttolerance="10"
     gridtolerance="10"
     guidetolerance="10"
     inkscape:pageopacity="0"
     inkscape:pageshadow="2"
     inkscape:window-width="2495"
     inkscape:window-height="1416"
     id="namedview3604"
     showgrid="false"
     inkscape:zoom="16.857143"
     inkscape:cx="58.051262"
     inkscape:cy="2.0210198"
     inkscape:window-x="65"
     inkscape:window-y="24"
     inkscape:window-maximized="1"
     inkscape:current-layer="svg3600" />
  <path
     id="rect3390"
     style="fill:#94318d;fill-opacity:1"
     d="m 25.152542,-2.7288134 3.084746,0 0,32.3898314 -3.084746,0 z m -26.2203386,27.3474584 29.8983036,0 0,3.974576 -29.8983036,0 z m 0.83050847,-25.15254306 2.84745763,0 0,29.06779706 -2.84745763,0 z m 0.1779661,0.29661017 28.41525503,0 0,3.85593219 -28.41525503,0 z m 2.37211883,3.06355419 22.9036772,0 0,22.1934647 -22.9036772,0 z M 15.076285,4.3727025 c -0.459873,0 -0.855436,0.1675894 -1.186698,0.5027489 -0.331263,0.3351594 -0.496894,0.7326699 -0.496894,1.1925426 0,0.1792707 0.03115,0.3624387 0.09357,0.5495131 L 14.117609,8.488162 10.493209,9.7157874 9.8618596,7.8451223 C 9.7449408,7.4943751 9.5383806,7.2137733 9.2422011,7.003327 8.9460115,6.7928807 8.6147492,6.6876524 8.2484041,6.6876524 c -0.4676568,0 -0.8651775,0.1656307 -1.1925435,0.496893 -0.3273642,0.3312632 -0.4910472,0.7307325 -0.4910472,1.1983985 0,0.1792708 0.031159,0.3624378 0.093567,0.549503 L 7.2780289,10.791422 5.4424466,11.41108 c -0.3429538,0.116909 -0.621607,0.323469 -0.8359505,0.619649 -0.2143536,0.29619 -0.3215203,0.627452 -0.3215203,0.993796 0,0.467667 0.1597868,0.859332 0.4793576,1.175006 0.3195717,0.315675 0.713185,0.473513 1.180852,0.473513 0.1714764,0 0.3585415,-0.03116 0.5611935,-0.09357 l 1.8239018,-0.631348 1.2276254,3.659484 -1.8239018,0.619658 c -0.3429538,0.116919 -0.6216061,0.323468 -0.8359496,0.619658 -0.2143435,0.29619 -0.3215203,0.627453 -0.3215203,0.993787 0,0.475461 0.1578373,0.869085 0.4735118,1.180862 0.3156746,0.311777 0.7112365,0.467666 1.1866969,0.467666 0.163683,0 0.3585517,-0.03511 0.5845858,-0.105227 l 1.7888181,-0.61966 0.643041,1.905739 c 0.116918,0.350748 0.323468,0.631349 0.619657,0.841796 0.296191,0.210457 0.627453,0.315675 0.993789,0.315675 0.467665,0 0.865187,-0.16758 1.192552,-0.502739 0.327365,-0.33516 0.491047,-0.732671 0.491047,-1.192542 0,-0.179281 -0.03115,-0.362449 -0.09357,-0.549514 l -0.643041,-1.91743 3.624412,-1.239316 0.643039,1.92912 c 0.116921,0.350758 0.325419,0.63135 0.625504,0.841807 0.300087,0.210446 0.633298,0.315673 0.999633,0.315673 0.459872,0 0.853496,-0.167579 1.180861,-0.502739 0.327366,-0.335159 0.491049,-0.73268 0.491049,-1.192552 -10e-6,-0.202652 -0.0273,-0.38582 -0.0819,-0.549502 l -0.654732,-1.952513 2.010967,-0.689802 c 0.724877,-0.257211 1.087316,-0.763857 1.087316,-1.51991 0,-0.47546 -0.161736,-0.871033 -0.485204,-1.186707 -0.32347,-0.315675 -0.726825,-0.473512 -1.21008,-0.473512 -0.171475,0 -0.350747,0.03116 -0.537821,0.09357 l -1.917429,0.654732 -1.227616,-3.694557 1.835584,-0.6313491 C 20.540157,9.7508631 20.828553,9.5501588 21.062393,9.2656597 21.29622,8.9811607 21.41314,8.6635376 21.41314,8.3127913 21.41314,7.8529187 21.247508,7.4690474 20.916245,7.1611662 20.584983,6.8532851 20.185514,6.699345 19.717847,6.699345 c -0.171477,0 -0.339056,0.023346 -0.50274,0.070131 L 17.321069,7.4125244 16.70141,5.5301668 C 16.584502,5.187214 16.375994,4.9085607 16.075907,4.6942071 15.77583,4.4798636 15.442609,4.3726877 15.076275,4.3726877 Z m 0.0819,7.2254415 1.227614,3.682866 -3.624401,1.227615 -1.227626,-3.659474 3.624413,-1.251007 z" />
</svg>
