<?xml version="1.0" encoding="utf-8"?>
<!-- Generator: Adobe Illustrator 16.0.0, SVG Export Plug-In . SVG Version: 6.00 Build 0)  -->
<!DOCTYPE svg PUBLIC "-//W3C//DTD SVG 1.1//EN" "http://www.w3.org/Graphics/SVG/1.1/DTD/svg11.dtd">
<svg version="1.1" id="Layer_1" xmlns="http://www.w3.org/2000/svg" xmlns:xlink="http://www.w3.org/1999/xlink" x="0px" y="0px"
	 width="50px" height="50px" viewBox="0 0 50 50" enable-background="new 0 0 50 50" xml:space="preserve">
<g>
	<path fill="#FFFFFF" d="M32.855,26.457H17.478c-0.676,0-1.224-0.548-1.224-1.224s0.548-1.223,1.224-1.223h15.378
		c0.676,0,1.224,0.547,1.224,1.223S33.531,26.457,32.855,26.457z"/>
	<path fill="#FFFFFF" d="M32.855,31.292H17.478c-0.676,0-1.224-0.548-1.224-1.224s0.548-1.223,1.224-1.223h15.378
		c0.676,0,1.224,0.547,1.224,1.223S33.531,31.292,32.855,31.292z"/>
	<path fill="#FFFFFF" d="M32.855,21.738H17.478c-0.676,0-1.224-0.547-1.224-1.223s0.548-1.223,1.224-1.223h15.378
		c0.676,0,1.224,0.547,1.224,1.223S33.531,21.738,32.855,21.738z"/>
</g>
</svg>
