<?xml version="1.0" encoding="utf-8"?>
<!-- Generator: Adobe Illustrator 16.0.0, SVG Export Plug-In . SVG Version: 6.00 Build 0)  -->
<!DOCTYPE svg PUBLIC "-//W3C//DTD SVG 1.1//EN" "http://www.w3.org/Graphics/SVG/1.1/DTD/svg11.dtd">
<svg version="1.1" id="Layer_1" xmlns="http://www.w3.org/2000/svg" xmlns:xlink="http://www.w3.org/1999/xlink" x="0px" y="0px"
	 width="28px" height="28px" viewBox="0 0 28 28" enable-background="new 0 0 28 28" xml:space="preserve">
<g>
	<path fill="#94318D" d="M0,0v27.999h28V0H0z M21.423,10.192c0.006,0.165,0.01,0.331,0.01,0.495c0,5.062-3.852,10.896-10.895,10.896
		c-2.164,0-4.176-0.633-5.871-1.719c0.299,0.033,0.604,0.055,0.913,0.055c1.795,0,3.446-0.613,4.756-1.641
		c-1.675-0.033-3.09-1.139-3.576-2.66c0.233,0.044,0.473,0.069,0.721,0.069c0.347,0,0.688-0.048,1.008-0.136
		c-1.751-0.352-3.072-1.9-3.072-3.756v-0.046c0.516,0.286,1.107,0.459,1.734,0.479c-1.027-0.687-1.703-1.86-1.703-3.188
		c0-0.702,0.189-1.36,0.518-1.925c1.889,2.315,4.71,3.841,7.894,4c-0.065-0.28-0.099-0.572-0.099-0.873
		c0-2.114,1.715-3.83,3.829-3.83c1.103,0,2.098,0.467,2.797,1.21c0.873-0.171,1.693-0.491,2.432-0.929
		c-0.285,0.896-0.895,1.645-1.684,2.118c0.773-0.092,1.512-0.298,2.198-0.603C22.818,8.98,22.169,9.653,21.423,10.192z"/>
</g>
</svg>
