<?xml version="1.0" encoding="utf-8"?>
<!-- Generator: Adobe Illustrator 16.0.0, SVG Export Plug-In . SVG Version: 6.00 Build 0)  -->
<!DOCTYPE svg PUBLIC "-//W3C//DTD SVG 1.1//EN" "http://www.w3.org/Graphics/SVG/1.1/DTD/svg11.dtd">
<svg version="1.1" id="Layer_1" xmlns="http://www.w3.org/2000/svg" xmlns:xlink="http://www.w3.org/1999/xlink" x="0px" y="0px"
	 width="28px" height="28px" viewBox="0 0 28 28" enable-background="new 0 0 28 28" xml:space="preserve">
<g>
	<path fill="#94318D" d="M0,0v28h28V0H0z M23.079,9.938c-0.083,1.818-1.354,4.309-3.809,7.47c-2.538,3.3-4.687,4.95-6.445,4.95
		c-1.087,0-2.008-1.004-2.761-3.016c-0.503-1.844-1.005-3.685-1.508-5.528c-0.557-2.01-1.157-3.016-1.798-3.016
		c-0.139,0-0.629,0.295-1.466,0.88l-0.878-1.132c0.921-0.809,1.83-1.621,2.724-2.432c1.23-1.061,2.153-1.621,2.77-1.677
		c1.452-0.14,2.347,0.854,2.682,2.982c0.364,2.295,0.615,3.724,0.755,4.281c0.418,1.904,0.88,2.855,1.382,2.855
		c0.392,0,0.98-0.618,1.761-1.853c0.783-1.236,1.201-2.175,1.258-2.819c0.111-1.066-0.309-1.601-1.258-1.601
		c-0.447,0-0.908,0.102-1.382,0.306c0.918-3.006,2.671-4.467,5.26-4.385C22.285,6.259,23.189,7.505,23.079,9.938z"/>
</g>
</svg>
