<?xml version="1.0" encoding="utf-8"?>
<!-- Generator: Adobe Illustrator 16.0.0, SVG Export Plug-In . SVG Version: 6.00 Build 0)  -->
<!DOCTYPE svg PUBLIC "-//W3C//DTD SVG 1.1//EN" "http://www.w3.org/Graphics/SVG/1.1/DTD/svg11.dtd">
<svg version="1.1" id="Layer_1" xmlns="http://www.w3.org/2000/svg" xmlns:xlink="http://www.w3.org/1999/xlink" x="0px" y="0px"
	 width="1200px" height="120px" viewBox="0 0 1200 120" enable-background="new 0 0 1200 120" xml:space="preserve">
<g>
	<path fill="#FFFFFF" d="M0,0l0.29,0.413L0.185,1.151L0,1.874l464.387,118.114l0.185-0.722l0.132,0.734l436.057-77.59
		l179.677,39.059l0.159-0.729l0.424,0.616L1200,0H0z M13.586,3.79l410.413,57.759l38.834,56.505L13.586,3.79z M464.349,117.622
		l-38.833-56.503l71.635-38.521L464.349,117.622z M465.693,118.309l33.312-96.5l397.637,19.819L465.693,118.309z M1080.439,79.943
		l-178.441-38.79l-0.015-0.087l292.005-38.763L1080.439,79.943z"/>
</g>
</svg>
