<?xml version="1.0" encoding="utf-8"?>
<!-- Generator: Adobe Illustrator 16.0.0, SVG Export Plug-In . SVG Version: 6.00 Build 0)  -->
<!DOCTYPE svg PUBLIC "-//W3C//DTD SVG 1.1//EN" "http://www.w3.org/Graphics/SVG/1.1/DTD/svg11.dtd">
<svg version="1.1" id="Layer_1" xmlns="http://www.w3.org/2000/svg" xmlns:xlink="http://www.w3.org/1999/xlink" x="0px" y="0px"
	 width="350px" height="290.95px" viewBox="0 0 350 290.95" enable-background="new 0 0 350 290.95" xml:space="preserve">
<g>
	<g>
		<g>
			<path fill="#05BAB9" d="M109.848,94.923c0,2.2-1.8,4-4,4H23.98c-2.2,0-4-1.8-4-4V82.998c0-2.2,1.8-4,4-4h81.867c2.2,0,4,1.8,4,4
				V94.923z"/>
		</g>
		<rect x="14.377" y="228.997" fill="#E8E8E8" width="321.248" height="34.752"/>
		<g opacity="0.15">
			<path fill="#94318D" d="M350,120.294c0-4.4-3.6-8-8-8H8c-4.4,0-8,3.6-8,8v91.607c0,4.4,3.6,8,8,8h334c4.4,0,8-3.6,8-8V120.294z"
				/>
			<path fill="none" stroke="#94318D" stroke-width="2" stroke-miterlimit="10" d="M350,120.294c0-4.4-3.6-8-8-8H8c-4.4,0-8,3.6-8,8
				v91.607c0,4.4,3.6,8,8,8h334c4.4,0,8-3.6,8-8V120.294z"/>
		</g>
		<g>
			<path fill="#782779" d="M116.038,160.477c0-2.2-1.8-4-4-4H18.377c-2.2,0-4,1.8-4,4v45.877c0,2.2,1.8,4,4,4h9.538c2.2,0,5.8,0,8,0
				h76.123c2.2,0,4-1.8,4-4V160.477z"/>
		</g>
		<g>
			<path fill="none" stroke="#05BAB9" stroke-width="2" stroke-miterlimit="10" d="M116.038,38.483c0-4.4-3.6-8-8-8H22.377
				c-4.4,0-8,3.6-8,8v57.58c0,4.4,3.6,8,8,8h85.661c4.4,0,8-3.6,8-8v-1.405c0-4.4,0-11.6,0-16V38.483z"/>
		</g>
		<g>
			<path fill="none" stroke="#05BAB9" stroke-width="2" stroke-miterlimit="10" d="M225.831,38.483c0-4.4-3.6-8-8-8h-85.66
				c-4.4,0-8,3.6-8,8v57.58c0,4.4,3.6,8,8,8h85.66c4.4,0,8-3.6,8-8V38.483z"/>
		</g>
		<g>
			<path fill="none" stroke="#05BAB9" stroke-width="2" stroke-miterlimit="10" d="M335.625,38.483c0-4.4-3.6-8-8-8h-85.661
				c-4.4,0-8,3.6-8,8v57.58c0,4.4,3.6,8,8,8h85.661c4.4,0,8-3.6,8-8V38.483z"/>
		</g>
		<g>
			<path fill="#782779" d="M225.831,160.477c0-2.2-1.8-4-4-4h-93.66c-2.2,0-4,1.8-4,4v45.877c0,2.2,1.8,4,4,4h93.66c2.2,0,4-1.8,4-4
				V160.477z"/>
		</g>
		<g>
			<path fill="#782779" d="M335.625,160.477c0-2.2-1.8-4-4-4h-93.661c-2.2,0-4,1.8-4,4v45.877c0,2.2,1.8,4,4,4h93.661
				c2.2,0,4-1.8,4-4V160.477z"/>
		</g>
		<g>
			<path fill="#A24499" d="M335.625,124.953c0-2.2-1.8-4-4-4H18.377c-2.2,0-4,1.8-4,4v20.333c0,2.2,1.8,4,4,4h313.248
				c2.2,0,4-1.8,4-4V124.953z"/>
		</g>
		<g>
			<path fill="#4DC2C0" d="M110.141,72.15c0,2.2-1.8,4-4,4H24.273c-2.2,0-4-1.8-4-4V40.3c0-2.2,1.8-4,4-4h81.867c2.2,0,4,1.8,4,4
				V72.15z"/>
		</g>
		<g>
			<path fill="#4DC2C0" d="M219.935,72.15c0,2.2-1.8,4-4,4h-81.868c-2.2,0-4-1.8-4-4V40.3c0-2.2,1.8-4,4-4h81.868c2.2,0,4,1.8,4,4
				V72.15z"/>
		</g>
		<g>
			<path fill="#4DC2C0" d="M329.728,72.15c0,2.2-1.8,4-4,4H243.86c-2.2,0-4-1.8-4-4V40.3c0-2.2,1.8-4,4-4h81.867c2.2,0,4,1.8,4,4
				V72.15z"/>
		</g>
		<rect x="45.383" y="50.815" fill="none" width="39.648" height="14.711"/>
		<text transform="matrix(1 0 0 1 47.6758 60.6348)" fill="#010101" font-family="'Lato-Bold'" font-size="13.2159">Nginx</text>
		<rect x="23.74" y="84.655" fill="none" width="81.837" height="10.353"/>
		<text transform="matrix(1 0 0 1 34.8833 92.2085)" fill="#FFFFFF" font-family="'Lato-Bold'" font-size="10.1661">Guest Kernel</text>
		<g>
			<path fill="#05BAB9" d="M219.935,95.793c0,2.2-1.8,4-4,4h-81.868c-2.2,0-4-1.8-4-4V83.867c0-2.2,1.8-4,4-4h81.868
				c2.2,0,4,1.8,4,4V95.793z"/>
		</g>
		<rect x="133.828" y="84.655" fill="none" width="81.837" height="10.353"/>
		<text transform="matrix(1 0 0 1 141.9922 92.9634)" fill="#FFFFFF" font-family="'Lato-Bold'" font-size="11.1827">Guest Kernel</text>
		<g>
			<path fill="#05BAB9" d="M330.021,95.647c0,2.2-1.8,4-4,4h-81.868c-2.2,0-4-1.8-4-4V83.723c0-2.2,1.8-4,4-4h81.868
				c2.2,0,4,1.8,4,4V95.647z"/>
		</g>
		<rect x="243.914" y="84.655" fill="none" width="81.837" height="10.353"/>
		<text transform="matrix(1 0 0 1 252.0791 92.9634)" fill="#FFFFFF" font-family="'Lato-Bold'" font-size="11.1827">Guest Kernel</text>
		<rect x="25.266" y="168.421" fill="none" width="79.295" height="29.546"/>
		<text transform="matrix(1 0 0 1 47.3818 178.2417)"><tspan x="0" y="0" fill="#E8E8E8" font-family="'Lato-Bold'" font-size="13.2159">Nginx</tspan><tspan x="-0.519" y="15.859" fill="#E8E8E8" font-family="'Lato-Bold'" font-size="13.2159">Image</tspan></text>
		<rect x="135.353" y="168.421" fill="none" width="79.296" height="29.546"/>
		<text transform="matrix(1 0 0 1 162.5864 178.2417)"><tspan x="0" y="0" fill="#E8E8E8" font-family="'Lato-Bold'" font-size="13.2159">RoR</tspan><tspan x="-5.637" y="15.859" fill="#E8E8E8" font-family="'Lato-Bold'" font-size="13.2159">Image</tspan></text>
		<rect x="246.163" y="168.421" fill="none" width="79.296" height="29.546"/>
		<text transform="matrix(1 0 0 1 259.6689 178.2417)"><tspan x="0" y="0" fill="#E8E8E8" font-family="'Lato-Bold'" font-size="13.2159">Logstash</tspan><tspan x="8.091" y="15.859" fill="#E8E8E8" font-family="'Lato-Bold'" font-size="13.2159">Image</tspan></text>
		<rect x="20.272" y="130.244" fill="none" width="309.455" height="11.214"/>
		<text transform="matrix(1 0 0 1 143.0903 140.063)" fill="#010101" font-family="'Lato-Bold'" font-size="13.2159">hypervisor</text>
		<rect x="20.272" y="243.595" fill="none" width="309.455" height="11.214"/>
		<text transform="matrix(1 0 0 1 143.3647 253.4146)" fill="#010101" font-family="'Lato-Bold'" font-size="13.2159">bare metal</text>
		<rect x="155.177" y="50.815" fill="none" width="39.647" height="13.248"/>
		<text transform="matrix(1 0 0 1 162.5874 60.6348)" fill="#010101" font-family="'Lato-Bold'" font-size="13.2159">RoR</text>
		<rect x="244.345" y="50.815" fill="none" width="79.804" height="13.248"/>
		<text transform="matrix(1 0 0 1 258.1055 60.6348)" fill="#010101" font-family="'Lato-Bold'" font-size="13.2159">Logstash</text>
	</g>
	<rect x="65.822" y="0" fill="none" width="218.355" height="13.247"/>
	<text transform="matrix(1 0 0 1 125.4971 9.8203)" fill="#05BAB9" font-family="'Lato-Bold'" font-size="13.2159">Hyper Container</text>
	<path fill="#4DC2C0" d="M51.672,290.411H41.229c-1.118,0-2.033-0.916-2.033-2.033v-10.441c0-1.121,0.915-2.033,2.033-2.033h10.442
		c1.118,0,2.033,0.912,2.033,2.033v10.441C53.705,289.495,52.79,290.411,51.672,290.411z"/>
	<rect x="59.914" y="279.428" fill="none" width="58.285" height="11.522"/>
	<text transform="matrix(1 0 0 1 59.915 286.9819)" fill="#010101" font-family="'Lato-Bold'" font-size="10.1661">App Process</text>
	<path fill="#782779" d="M153.333,290.411h-10.442c-1.119,0-2.033-0.916-2.033-2.033v-10.441c0-1.121,0.914-2.033,2.033-2.033
		h10.442c1.117,0,2.033,0.912,2.033,2.033v10.441C155.366,289.495,154.45,290.411,153.333,290.411z"/>
	<rect x="161.575" y="279.428" fill="none" width="65.487" height="11.522"/>
	<text transform="matrix(1 0 0 1 161.5747 286.9819)" fill="#010101" font-family="'Lato-Bold'" font-size="10.1661">Docker Image</text>
	<path opacity="0.15" fill="#94318D" d="M261.093,290.411H250.65c-1.118,0-2.033-0.916-2.033-2.033v-10.441
		c0-1.121,0.915-2.033,2.033-2.033h10.442c1.118,0,2.033,0.912,2.033,2.033v10.441C263.126,289.495,262.211,290.411,261.093,290.411
		z"/>
	<rect x="269.336" y="279.428" fill="none" width="58.285" height="11.522"/>
	<text transform="matrix(1 0 0 1 269.3359 286.9819)" fill="#010101" font-family="'Lato-Bold'" font-size="10.1661">Host OS</text>
</g>
</svg>
